G75*
%MOIN*%
%OFA0B0*%
%FSLAX25Y25*%
%IPPOS*%
%LPD*%
%AMOC8*
5,1,8,0,0,1.08239X$1,22.5*
%
%ADD10C,0.00800*%
%ADD11C,0.00500*%
%ADD12C,0.00400*%
%ADD13R,0.02953X0.05709*%
%ADD14R,0.01969X0.03740*%
%ADD15R,0.03740X0.01969*%
%ADD16C,0.01600*%
%ADD17C,0.01500*%
%ADD18C,0.01200*%
%ADD19C,0.03000*%
%ADD20R,0.03000X0.02000*%
%ADD21C,0.00000*%
%ADD22R,0.01800X0.02300*%
%ADD23C,0.00600*%
%ADD24R,0.03400X0.01600*%
%ADD25R,0.01600X0.03400*%
%ADD26C,0.02000*%
%ADD27C,0.01181*%
%ADD28R,0.01969X0.01181*%
D10*
X0106713Y0154825D02*
X0110650Y0154825D01*
X0110650Y0163487D01*
X0106713Y0163487D01*
X0106713Y0154825D01*
X0295771Y0150559D02*
X0295771Y0147757D01*
X0296471Y0147056D01*
X0297873Y0147056D01*
X0298573Y0147757D01*
X0298573Y0150559D01*
X0297873Y0151260D01*
X0296471Y0151260D01*
X0295771Y0150559D01*
X0300375Y0150559D02*
X0300375Y0147757D01*
X0301075Y0147056D01*
X0303177Y0147056D01*
X0303177Y0151260D01*
X0301075Y0151260D01*
X0300375Y0150559D01*
X0304979Y0151260D02*
X0307781Y0151260D01*
X0306380Y0151260D02*
X0306380Y0147056D01*
X0307081Y0141260D02*
X0305679Y0141260D01*
X0304979Y0140559D01*
X0304979Y0139859D01*
X0305679Y0139158D01*
X0304979Y0138457D01*
X0304979Y0137757D01*
X0305679Y0137056D01*
X0307081Y0137056D01*
X0307781Y0137757D01*
X0306380Y0139158D02*
X0305679Y0139158D01*
X0307781Y0140559D02*
X0307081Y0141260D01*
X0303177Y0141260D02*
X0303177Y0138457D01*
X0301776Y0137056D01*
X0300375Y0138457D01*
X0300375Y0141260D01*
X0298573Y0140559D02*
X0297873Y0141260D01*
X0296471Y0141260D01*
X0295771Y0140559D01*
X0295771Y0139859D01*
X0296471Y0139158D01*
X0295771Y0138457D01*
X0295771Y0137757D01*
X0296471Y0137056D01*
X0297873Y0137056D01*
X0298573Y0137757D01*
X0297172Y0139158D02*
X0296471Y0139158D01*
X0297172Y0157056D02*
X0298573Y0157056D01*
X0297873Y0157056D02*
X0297873Y0161260D01*
X0298573Y0161260D02*
X0297172Y0161260D01*
X0300375Y0160559D02*
X0301075Y0161260D01*
X0303177Y0161260D01*
X0303177Y0157056D01*
X0301075Y0157056D01*
X0300375Y0157757D01*
X0300375Y0160559D01*
X0304979Y0161260D02*
X0307781Y0161260D01*
X0306380Y0161260D02*
X0306380Y0157056D01*
X0306380Y0167056D02*
X0306380Y0171260D01*
X0307781Y0171260D02*
X0304979Y0171260D01*
X0303177Y0170559D02*
X0303177Y0167757D01*
X0302477Y0167056D01*
X0301075Y0167056D01*
X0300375Y0167757D01*
X0298573Y0168457D02*
X0295771Y0171260D01*
X0298573Y0171260D02*
X0298573Y0167056D01*
X0297873Y0169158D02*
X0295771Y0167056D01*
X0300375Y0170559D02*
X0301075Y0171260D01*
X0302477Y0171260D01*
X0303177Y0170559D01*
X0303177Y0177056D02*
X0303177Y0181260D01*
X0301776Y0179859D01*
X0300375Y0181260D01*
X0300375Y0177056D01*
X0298573Y0177757D02*
X0297873Y0177056D01*
X0296471Y0177056D01*
X0295771Y0177757D01*
X0295771Y0178457D01*
X0296471Y0179158D01*
X0297873Y0179158D01*
X0298573Y0179859D01*
X0298573Y0180559D01*
X0297873Y0181260D01*
X0296471Y0181260D01*
X0295771Y0180559D01*
X0296471Y0187056D02*
X0295771Y0187757D01*
X0295771Y0190559D01*
X0296471Y0191260D01*
X0298573Y0191260D01*
X0298573Y0187056D01*
X0296471Y0187056D01*
X0300375Y0187056D02*
X0300375Y0191260D01*
X0303177Y0191260D02*
X0300375Y0187056D01*
X0303177Y0187056D02*
X0303177Y0191260D01*
X0304979Y0190559D02*
X0305679Y0191260D01*
X0307081Y0191260D01*
X0307781Y0190559D01*
X0307781Y0187757D01*
X0307081Y0187056D01*
X0305679Y0187056D01*
X0304979Y0187757D01*
X0304979Y0189158D01*
X0306380Y0189158D01*
X0306380Y0181260D02*
X0306380Y0177056D01*
X0307781Y0181260D02*
X0304979Y0181260D01*
D11*
X0326843Y0184156D02*
X0326843Y0194156D01*
X0336685Y0194156D01*
X0336685Y0184156D01*
X0326843Y0184156D01*
X0326843Y0174156D01*
X0336685Y0174156D01*
X0336685Y0184156D01*
X0336685Y0174156D02*
X0336685Y0164156D01*
X0326843Y0164156D01*
X0326843Y0154156D01*
X0336685Y0154156D01*
X0336685Y0164156D01*
X0326843Y0164156D02*
X0326843Y0174156D01*
X0326843Y0154156D02*
X0326843Y0144156D01*
X0336685Y0144156D01*
X0336685Y0154156D01*
X0336685Y0144156D02*
X0336685Y0134156D01*
X0326843Y0134156D01*
X0326843Y0144156D01*
X0327133Y0132408D02*
X0328034Y0132408D01*
X0328485Y0131958D01*
X0328485Y0130157D01*
X0328034Y0129706D01*
X0327133Y0129706D01*
X0326683Y0130157D01*
X0326683Y0131057D01*
X0327584Y0131057D01*
X0326683Y0131958D02*
X0327133Y0132408D01*
X0329630Y0131508D02*
X0329630Y0129706D01*
X0329630Y0131057D02*
X0331431Y0131057D01*
X0331431Y0131508D02*
X0330530Y0132408D01*
X0329630Y0131508D01*
X0331431Y0131508D02*
X0331431Y0129706D01*
X0333477Y0129706D02*
X0333477Y0132408D01*
X0334378Y0132408D02*
X0332576Y0132408D01*
X0335523Y0132408D02*
X0336423Y0132408D01*
X0335973Y0132408D02*
X0335973Y0130157D01*
X0336423Y0129706D01*
X0336874Y0129706D01*
X0337324Y0130157D01*
X0335083Y0120654D02*
X0334633Y0120654D01*
X0334182Y0120204D01*
X0334182Y0119303D01*
X0334633Y0118853D01*
X0335083Y0118853D01*
X0335533Y0119303D01*
X0335533Y0120204D01*
X0335083Y0120654D01*
X0334182Y0120204D02*
X0333732Y0120654D01*
X0333281Y0120654D01*
X0332831Y0120204D01*
X0332831Y0119303D01*
X0333281Y0118853D01*
X0333732Y0118853D01*
X0334182Y0119303D01*
X0334182Y0117708D02*
X0333732Y0117257D01*
X0333732Y0115906D01*
X0332831Y0115906D02*
X0335533Y0115906D01*
X0335533Y0117257D01*
X0335083Y0117708D01*
X0334182Y0117708D01*
X0333732Y0116807D02*
X0332831Y0117708D01*
X0325533Y0117257D02*
X0325533Y0116357D01*
X0325083Y0115906D01*
X0323281Y0115906D01*
X0322831Y0116357D01*
X0322831Y0117257D01*
X0323281Y0117708D01*
X0323281Y0118853D02*
X0322831Y0118853D01*
X0323281Y0118853D02*
X0325083Y0120654D01*
X0325533Y0120654D01*
X0325533Y0118853D01*
X0325083Y0117708D02*
X0325533Y0117257D01*
X0315533Y0117257D02*
X0315083Y0117708D01*
X0314182Y0117708D01*
X0313732Y0117257D01*
X0313732Y0115906D01*
X0312831Y0115906D02*
X0315533Y0115906D01*
X0315533Y0117257D01*
X0315533Y0118853D02*
X0315533Y0120654D01*
X0315083Y0120654D01*
X0313281Y0118853D01*
X0312831Y0118853D01*
X0312831Y0117708D02*
X0313732Y0116807D01*
X0280533Y0117257D02*
X0280083Y0117708D01*
X0279182Y0117708D01*
X0278732Y0117257D01*
X0278732Y0115906D01*
X0277831Y0115906D02*
X0280533Y0115906D01*
X0280533Y0117257D01*
X0278732Y0116807D02*
X0277831Y0117708D01*
X0278281Y0118853D02*
X0277831Y0119303D01*
X0277831Y0120204D01*
X0278281Y0120654D01*
X0278732Y0120654D01*
X0279182Y0120204D01*
X0279182Y0118853D01*
X0278281Y0118853D01*
X0279182Y0118853D02*
X0280083Y0119753D01*
X0280533Y0120654D01*
X0269533Y0120654D02*
X0269083Y0119753D01*
X0268182Y0118853D01*
X0268182Y0120204D01*
X0267732Y0120654D01*
X0267281Y0120654D01*
X0266831Y0120204D01*
X0266831Y0119303D01*
X0267281Y0118853D01*
X0268182Y0118853D01*
X0267281Y0117708D02*
X0266831Y0117257D01*
X0266831Y0116357D01*
X0267281Y0115906D01*
X0269083Y0115906D01*
X0269533Y0116357D01*
X0269533Y0117257D01*
X0269083Y0117708D01*
X0260533Y0117257D02*
X0260083Y0117708D01*
X0259182Y0117708D01*
X0258732Y0117257D01*
X0258732Y0115906D01*
X0257831Y0115906D02*
X0260533Y0115906D01*
X0260533Y0117257D01*
X0260533Y0118853D02*
X0259182Y0118853D01*
X0259633Y0119753D01*
X0259633Y0120204D01*
X0259182Y0120654D01*
X0258281Y0120654D01*
X0257831Y0120204D01*
X0257831Y0119303D01*
X0258281Y0118853D01*
X0257831Y0117708D02*
X0258732Y0116807D01*
X0260533Y0118853D02*
X0260533Y0120654D01*
X0225533Y0120204D02*
X0224182Y0118853D01*
X0224182Y0120654D01*
X0222831Y0120204D02*
X0225533Y0120204D01*
X0225083Y0117708D02*
X0224182Y0117708D01*
X0223732Y0117257D01*
X0223732Y0115906D01*
X0222831Y0115906D02*
X0225533Y0115906D01*
X0225533Y0117257D01*
X0225083Y0117708D01*
X0223732Y0116807D02*
X0222831Y0117708D01*
X0215533Y0117257D02*
X0215533Y0116357D01*
X0215083Y0115906D01*
X0213281Y0115906D01*
X0212831Y0116357D01*
X0212831Y0117257D01*
X0213281Y0117708D01*
X0213281Y0118853D02*
X0212831Y0119303D01*
X0212831Y0120204D01*
X0213281Y0120654D01*
X0214182Y0120654D01*
X0214633Y0120204D01*
X0214633Y0119753D01*
X0214182Y0118853D01*
X0215533Y0118853D01*
X0215533Y0120654D01*
X0215083Y0117708D02*
X0215533Y0117257D01*
X0205533Y0117257D02*
X0205083Y0117708D01*
X0204182Y0117708D01*
X0203732Y0117257D01*
X0203732Y0115906D01*
X0202831Y0115906D02*
X0205533Y0115906D01*
X0205533Y0117257D01*
X0205083Y0118853D02*
X0205533Y0119303D01*
X0205533Y0120204D01*
X0205083Y0120654D01*
X0204633Y0120654D01*
X0204182Y0120204D01*
X0203732Y0120654D01*
X0203281Y0120654D01*
X0202831Y0120204D01*
X0202831Y0119303D01*
X0203281Y0118853D01*
X0202831Y0117708D02*
X0203732Y0116807D01*
X0204182Y0119753D02*
X0204182Y0120204D01*
X0188683Y0136986D02*
X0186881Y0136986D01*
X0186431Y0137437D01*
X0186431Y0138338D01*
X0186881Y0138788D01*
X0186431Y0139933D02*
X0186431Y0141734D01*
X0186431Y0140834D02*
X0189133Y0140834D01*
X0188233Y0139933D01*
X0188683Y0138788D02*
X0189133Y0138338D01*
X0189133Y0137437D01*
X0188683Y0136986D01*
X0188683Y0142879D02*
X0189133Y0143330D01*
X0189133Y0144231D01*
X0188683Y0144681D01*
X0188233Y0144681D01*
X0187782Y0144231D01*
X0187332Y0144681D01*
X0186881Y0144681D01*
X0186431Y0144231D01*
X0186431Y0143330D01*
X0186881Y0142879D01*
X0187782Y0143780D02*
X0187782Y0144231D01*
X0204656Y0151857D02*
X0205107Y0151406D01*
X0206007Y0151406D01*
X0206458Y0151857D01*
X0206458Y0152757D01*
X0205107Y0152757D01*
X0204656Y0152307D01*
X0204656Y0151857D01*
X0205557Y0153658D02*
X0206458Y0152757D01*
X0205557Y0153658D02*
X0204656Y0154108D01*
X0208504Y0154108D02*
X0208504Y0151406D01*
X0209404Y0151406D02*
X0207603Y0151406D01*
X0209404Y0153208D02*
X0208504Y0154108D01*
X0210549Y0153658D02*
X0210549Y0152757D01*
X0211000Y0152307D01*
X0212351Y0152307D01*
X0212351Y0151406D02*
X0212351Y0154108D01*
X0211000Y0154108D01*
X0210549Y0153658D01*
X0211450Y0152307D02*
X0210549Y0151406D01*
X0220331Y0154906D02*
X0223033Y0154906D01*
X0223033Y0156257D01*
X0222583Y0156708D01*
X0221682Y0156708D01*
X0221232Y0156257D01*
X0221232Y0154906D01*
X0221232Y0155807D02*
X0220331Y0156708D01*
X0220331Y0157853D02*
X0220331Y0159654D01*
X0220331Y0158753D02*
X0223033Y0158753D01*
X0222133Y0157853D01*
X0221682Y0160799D02*
X0222133Y0161700D01*
X0222133Y0162150D01*
X0221682Y0162601D01*
X0220781Y0162601D01*
X0220331Y0162150D01*
X0220331Y0161250D01*
X0220781Y0160799D01*
X0221682Y0160799D02*
X0223033Y0160799D01*
X0223033Y0162601D01*
X0230331Y0162601D02*
X0230331Y0160799D01*
X0230331Y0161700D02*
X0233033Y0161700D01*
X0232133Y0160799D01*
X0230331Y0159654D02*
X0230331Y0157853D01*
X0230331Y0158753D02*
X0233033Y0158753D01*
X0232133Y0157853D01*
X0232583Y0156708D02*
X0231682Y0156708D01*
X0231232Y0156257D01*
X0231232Y0154906D01*
X0230331Y0154906D02*
X0233033Y0154906D01*
X0233033Y0156257D01*
X0232583Y0156708D01*
X0231232Y0155807D02*
X0230331Y0156708D01*
X0240331Y0156708D02*
X0241232Y0155807D01*
X0241232Y0156257D02*
X0241232Y0154906D01*
X0240331Y0154906D02*
X0243033Y0154906D01*
X0243033Y0156257D01*
X0242583Y0156708D01*
X0241682Y0156708D01*
X0241232Y0156257D01*
X0242133Y0157853D02*
X0243033Y0158753D01*
X0240331Y0158753D01*
X0240331Y0157853D02*
X0240331Y0159654D01*
X0241682Y0160799D02*
X0241682Y0162601D01*
X0240331Y0162150D02*
X0243033Y0162150D01*
X0241682Y0160799D01*
X0241232Y0165067D02*
X0241232Y0166418D01*
X0241682Y0166868D01*
X0242583Y0166868D01*
X0243033Y0166418D01*
X0243033Y0165067D01*
X0240331Y0165067D01*
X0241232Y0165967D02*
X0240331Y0166868D01*
X0240331Y0168013D02*
X0240331Y0169815D01*
X0240331Y0168914D02*
X0243033Y0168914D01*
X0242133Y0168013D01*
X0243033Y0170960D02*
X0243033Y0172761D01*
X0242583Y0172761D01*
X0240781Y0170960D01*
X0240331Y0170960D01*
X0233033Y0171410D02*
X0232583Y0170960D01*
X0233033Y0171410D02*
X0233033Y0172311D01*
X0232583Y0172761D01*
X0232133Y0172761D01*
X0230331Y0170960D01*
X0230331Y0172761D01*
X0230331Y0169815D02*
X0230331Y0168013D01*
X0230331Y0168914D02*
X0233033Y0168914D01*
X0232133Y0168013D01*
X0232583Y0166868D02*
X0231682Y0166868D01*
X0231232Y0166418D01*
X0231232Y0165067D01*
X0231232Y0165967D02*
X0230331Y0166868D01*
X0230331Y0165067D02*
X0233033Y0165067D01*
X0233033Y0166418D01*
X0232583Y0166868D01*
X0250331Y0162150D02*
X0250331Y0161250D01*
X0250781Y0160799D01*
X0251232Y0160799D01*
X0251682Y0161250D01*
X0251682Y0162150D01*
X0251232Y0162601D01*
X0250781Y0162601D01*
X0250331Y0162150D01*
X0251682Y0162150D02*
X0252133Y0162601D01*
X0252583Y0162601D01*
X0253033Y0162150D01*
X0253033Y0161250D01*
X0252583Y0160799D01*
X0252133Y0160799D01*
X0251682Y0161250D01*
X0250331Y0159654D02*
X0250331Y0157853D01*
X0250331Y0158753D02*
X0253033Y0158753D01*
X0252133Y0157853D01*
X0252583Y0156708D02*
X0251682Y0156708D01*
X0251232Y0156257D01*
X0251232Y0154906D01*
X0250331Y0154906D02*
X0253033Y0154906D01*
X0253033Y0156257D01*
X0252583Y0156708D01*
X0251232Y0155807D02*
X0250331Y0156708D01*
X0270331Y0156708D02*
X0271232Y0155807D01*
X0271232Y0156257D02*
X0271232Y0154906D01*
X0270331Y0154906D02*
X0273033Y0154906D01*
X0273033Y0156257D01*
X0272583Y0156708D01*
X0271682Y0156708D01*
X0271232Y0156257D01*
X0272133Y0157853D02*
X0273033Y0158753D01*
X0270331Y0158753D01*
X0270331Y0157853D02*
X0270331Y0159654D01*
X0270781Y0160799D02*
X0270331Y0161250D01*
X0270331Y0162150D01*
X0270781Y0162601D01*
X0271232Y0162601D01*
X0271682Y0162150D01*
X0271682Y0161700D01*
X0271682Y0162150D02*
X0272133Y0162601D01*
X0272583Y0162601D01*
X0273033Y0162150D01*
X0273033Y0161250D01*
X0272583Y0160799D01*
X0281831Y0160799D02*
X0281831Y0162601D01*
X0281831Y0161700D02*
X0284533Y0161700D01*
X0283633Y0160799D01*
X0283633Y0159654D02*
X0284083Y0159654D01*
X0284533Y0159204D01*
X0284533Y0158303D01*
X0284083Y0157853D01*
X0284083Y0156708D02*
X0283182Y0156708D01*
X0282732Y0156257D01*
X0282732Y0154906D01*
X0281831Y0154906D02*
X0284533Y0154906D01*
X0284533Y0156257D01*
X0284083Y0156708D01*
X0282732Y0155807D02*
X0281831Y0156708D01*
X0281831Y0157853D02*
X0283633Y0159654D01*
X0281831Y0159654D02*
X0281831Y0157853D01*
X0328184Y0195182D02*
X0329985Y0195182D01*
X0329085Y0195182D02*
X0329085Y0197884D01*
X0329985Y0196983D01*
X0331130Y0196533D02*
X0331581Y0196083D01*
X0332932Y0196083D01*
X0332932Y0195182D02*
X0332932Y0197884D01*
X0331581Y0197884D01*
X0331130Y0197434D01*
X0331130Y0196533D01*
X0334077Y0197884D02*
X0334978Y0197884D01*
X0334527Y0197884D02*
X0334527Y0195632D01*
X0334978Y0195182D01*
X0335428Y0195182D01*
X0335878Y0195632D01*
X0202351Y0164158D02*
X0202351Y0162357D01*
X0201900Y0161906D01*
X0201000Y0161906D01*
X0200549Y0162357D01*
X0199404Y0161906D02*
X0197603Y0161906D01*
X0198504Y0161906D02*
X0198504Y0164608D01*
X0199404Y0163708D01*
X0200549Y0164158D02*
X0201000Y0164608D01*
X0201900Y0164608D01*
X0202351Y0164158D01*
X0196458Y0164158D02*
X0196007Y0164608D01*
X0195107Y0164608D01*
X0194656Y0164158D01*
X0196458Y0162357D01*
X0196007Y0161906D01*
X0195107Y0161906D01*
X0194656Y0162357D01*
X0194656Y0164158D01*
X0196458Y0164158D02*
X0196458Y0162357D01*
X0166431Y0178750D02*
X0165981Y0178300D01*
X0165080Y0178300D01*
X0164630Y0178750D01*
X0164630Y0181002D01*
X0163485Y0180101D02*
X0162584Y0181002D01*
X0162584Y0178300D01*
X0163485Y0178300D02*
X0161683Y0178300D01*
X0166431Y0178750D02*
X0166431Y0181002D01*
X0152431Y0179058D02*
X0152431Y0177257D01*
X0151981Y0176806D01*
X0151080Y0176806D01*
X0150630Y0177257D01*
X0149485Y0176806D02*
X0147683Y0176806D01*
X0148584Y0176806D02*
X0148584Y0179508D01*
X0149485Y0178608D01*
X0150630Y0179058D02*
X0151080Y0179508D01*
X0151981Y0179508D01*
X0152431Y0179058D01*
X0146538Y0179058D02*
X0146088Y0179508D01*
X0145187Y0179508D01*
X0144737Y0179058D01*
X0144737Y0178608D01*
X0146538Y0176806D01*
X0144737Y0176806D01*
X0127299Y0164849D02*
X0117063Y0164849D01*
X0117063Y0151463D01*
X0127299Y0151463D01*
X0127299Y0164849D01*
X0128305Y0160334D02*
X0128305Y0158532D01*
X0128305Y0159433D02*
X0131007Y0159433D01*
X0130107Y0158532D01*
X0128305Y0157387D02*
X0128305Y0155586D01*
X0131007Y0155586D01*
X0148656Y0148958D02*
X0149107Y0149408D01*
X0150007Y0149408D01*
X0150458Y0148958D01*
X0150458Y0148508D01*
X0150007Y0148057D01*
X0148656Y0148057D01*
X0148656Y0147157D02*
X0148656Y0148958D01*
X0148656Y0147157D02*
X0149107Y0146706D01*
X0150007Y0146706D01*
X0150458Y0147157D01*
X0151603Y0146706D02*
X0153404Y0146706D01*
X0152504Y0146706D02*
X0152504Y0149408D01*
X0153404Y0148508D01*
X0154549Y0148958D02*
X0155000Y0149408D01*
X0156351Y0149408D01*
X0156351Y0146706D01*
X0156351Y0147607D02*
X0155000Y0147607D01*
X0154549Y0148057D01*
X0154549Y0148958D01*
X0155450Y0147607D02*
X0154549Y0146706D01*
X0158181Y0143208D02*
X0159983Y0143208D01*
X0160433Y0142757D01*
X0160433Y0141857D01*
X0159983Y0141406D01*
X0159533Y0141406D01*
X0159082Y0141857D01*
X0159082Y0143208D01*
X0158181Y0143208D02*
X0157731Y0142757D01*
X0157731Y0141857D01*
X0158181Y0141406D01*
X0158181Y0140261D02*
X0157731Y0139811D01*
X0157731Y0138910D01*
X0158181Y0138460D01*
X0159983Y0138460D01*
X0160433Y0138910D01*
X0160433Y0139811D01*
X0159983Y0140261D01*
X0159182Y0120654D02*
X0159182Y0118853D01*
X0160533Y0120204D01*
X0157831Y0120204D01*
X0158281Y0117708D02*
X0157831Y0117257D01*
X0157831Y0116357D01*
X0158281Y0115906D01*
X0160083Y0115906D01*
X0160533Y0116357D01*
X0160533Y0117257D01*
X0160083Y0117708D01*
X0167831Y0117708D02*
X0168732Y0116807D01*
X0168732Y0117257D02*
X0168732Y0115906D01*
X0167831Y0115906D02*
X0170533Y0115906D01*
X0170533Y0117257D01*
X0170083Y0117708D01*
X0169182Y0117708D01*
X0168732Y0117257D01*
X0167831Y0118853D02*
X0169633Y0120654D01*
X0170083Y0120654D01*
X0170533Y0120204D01*
X0170533Y0119303D01*
X0170083Y0118853D01*
X0167831Y0118853D02*
X0167831Y0120654D01*
X0150533Y0119753D02*
X0147831Y0119753D01*
X0147831Y0118853D02*
X0147831Y0120654D01*
X0149633Y0118853D02*
X0150533Y0119753D01*
X0150083Y0117708D02*
X0149182Y0117708D01*
X0148732Y0117257D01*
X0148732Y0115906D01*
X0147831Y0115906D02*
X0150533Y0115906D01*
X0150533Y0117257D01*
X0150083Y0117708D01*
X0148732Y0116807D02*
X0147831Y0117708D01*
X0121431Y0111558D02*
X0121431Y0109757D01*
X0120981Y0109306D01*
X0120080Y0109306D01*
X0119630Y0109757D01*
X0119630Y0111558D01*
X0120080Y0112008D01*
X0120981Y0112008D01*
X0121431Y0111558D01*
X0120530Y0110207D02*
X0119630Y0109306D01*
X0118485Y0109306D02*
X0116683Y0111108D01*
X0116683Y0111558D01*
X0117133Y0112008D01*
X0118034Y0112008D01*
X0118485Y0111558D01*
X0118485Y0109306D02*
X0116683Y0109306D01*
X0089281Y0108056D02*
X0078081Y0108056D01*
X0078081Y0113256D01*
X0089281Y0113256D01*
X0089281Y0108056D01*
X0076431Y0109757D02*
X0075981Y0109306D01*
X0075080Y0109306D01*
X0074630Y0109757D01*
X0074630Y0111558D01*
X0075080Y0112008D01*
X0075981Y0112008D01*
X0076431Y0111558D01*
X0076431Y0109757D01*
X0075530Y0110207D02*
X0074630Y0109306D01*
X0073485Y0109306D02*
X0071683Y0109306D01*
X0072584Y0109306D02*
X0072584Y0112008D01*
X0073485Y0111108D01*
X0082687Y0120306D02*
X0083588Y0120306D01*
X0084038Y0120757D01*
X0082237Y0122558D01*
X0082237Y0120757D01*
X0082687Y0120306D01*
X0084038Y0120757D02*
X0084038Y0122558D01*
X0083588Y0123008D01*
X0082687Y0123008D01*
X0082237Y0122558D01*
X0085183Y0120306D02*
X0086985Y0120306D01*
X0086084Y0120306D02*
X0086084Y0123008D01*
X0086985Y0122108D01*
X0088130Y0122558D02*
X0088130Y0121657D01*
X0088580Y0121207D01*
X0089931Y0121207D01*
X0089030Y0121207D02*
X0088130Y0120306D01*
X0089931Y0120306D02*
X0089931Y0123008D01*
X0088580Y0123008D01*
X0088130Y0122558D01*
X0094683Y0134806D02*
X0096485Y0134806D01*
X0095584Y0134806D02*
X0095584Y0137508D01*
X0096485Y0136608D01*
X0097630Y0137058D02*
X0098080Y0137508D01*
X0098981Y0137508D01*
X0099431Y0137058D01*
X0099431Y0135257D01*
X0098981Y0134806D01*
X0098080Y0134806D01*
X0097630Y0135257D01*
X0098485Y0144806D02*
X0096683Y0146608D01*
X0096683Y0147058D01*
X0097133Y0147508D01*
X0098034Y0147508D01*
X0098485Y0147058D01*
X0099630Y0147058D02*
X0100080Y0147508D01*
X0100981Y0147508D01*
X0101431Y0147058D01*
X0101431Y0145257D01*
X0100981Y0144806D01*
X0100080Y0144806D01*
X0099630Y0145257D01*
X0098485Y0144806D02*
X0096683Y0144806D01*
X0106405Y0151342D02*
X0106856Y0150891D01*
X0107756Y0150891D01*
X0108207Y0151342D01*
X0109352Y0151342D02*
X0109352Y0153594D01*
X0108207Y0153143D02*
X0107756Y0153594D01*
X0106856Y0153594D01*
X0106405Y0153143D01*
X0106405Y0152693D01*
X0106856Y0152242D01*
X0106405Y0151792D01*
X0106405Y0151342D01*
X0106856Y0152242D02*
X0107306Y0152242D01*
X0109352Y0151342D02*
X0109802Y0150891D01*
X0110703Y0150891D01*
X0111153Y0151342D01*
X0111153Y0153594D01*
X0100981Y0170806D02*
X0100080Y0170806D01*
X0099630Y0171257D01*
X0098485Y0171257D02*
X0098034Y0170806D01*
X0097133Y0170806D01*
X0096683Y0171257D01*
X0096683Y0171707D01*
X0097133Y0172157D01*
X0097584Y0172157D01*
X0097133Y0172157D02*
X0096683Y0172608D01*
X0096683Y0173058D01*
X0097133Y0173508D01*
X0098034Y0173508D01*
X0098485Y0173058D01*
X0099630Y0173058D02*
X0100080Y0173508D01*
X0100981Y0173508D01*
X0101431Y0173058D01*
X0101431Y0171257D01*
X0100981Y0170806D01*
X0101540Y0192326D02*
X0101089Y0192776D01*
X0101089Y0193677D01*
X0101540Y0194127D01*
X0103792Y0194127D01*
X0103341Y0195272D02*
X0103792Y0195723D01*
X0103792Y0196623D01*
X0103341Y0197074D01*
X0102891Y0197074D01*
X0101089Y0195272D01*
X0101089Y0197074D01*
X0101540Y0192326D02*
X0103792Y0192326D01*
X0114580Y0211906D02*
X0115481Y0211906D01*
X0115931Y0212357D01*
X0115931Y0212807D01*
X0115481Y0213257D01*
X0114580Y0213257D01*
X0114130Y0212807D01*
X0114130Y0212357D01*
X0114580Y0211906D01*
X0114580Y0213257D02*
X0114130Y0213708D01*
X0114130Y0214158D01*
X0114580Y0214608D01*
X0115481Y0214608D01*
X0115931Y0214158D01*
X0115931Y0213708D01*
X0115481Y0213257D01*
X0117076Y0212357D02*
X0117526Y0211906D01*
X0118427Y0211906D01*
X0118878Y0212357D01*
X0118878Y0214158D01*
X0118427Y0214608D01*
X0117526Y0214608D01*
X0117076Y0214158D01*
X0185931Y0194681D02*
X0185931Y0192879D01*
X0185931Y0193780D02*
X0188633Y0193780D01*
X0187733Y0192879D01*
X0185931Y0191734D02*
X0185931Y0189933D01*
X0185931Y0190834D02*
X0188633Y0190834D01*
X0187733Y0189933D01*
X0188183Y0188788D02*
X0188633Y0188338D01*
X0188633Y0187437D01*
X0188183Y0186986D01*
X0186381Y0186986D01*
X0185931Y0187437D01*
X0185931Y0188338D01*
X0186381Y0188788D01*
X0123483Y0092181D02*
X0121681Y0090379D01*
X0121231Y0090830D01*
X0121231Y0091731D01*
X0121681Y0092181D01*
X0123483Y0092181D01*
X0123933Y0091731D01*
X0123933Y0090830D01*
X0123483Y0090379D01*
X0121681Y0090379D01*
X0121231Y0089234D02*
X0121231Y0087433D01*
X0123033Y0089234D01*
X0123483Y0089234D01*
X0123933Y0088784D01*
X0123933Y0087883D01*
X0123483Y0087433D01*
X0123483Y0086288D02*
X0122582Y0086288D01*
X0122132Y0085838D01*
X0122132Y0084486D01*
X0121231Y0084486D02*
X0123933Y0084486D01*
X0123933Y0085838D01*
X0123483Y0086288D01*
X0122132Y0085387D02*
X0121231Y0086288D01*
X0069933Y0086811D02*
X0069483Y0087261D01*
X0068582Y0087261D01*
X0068132Y0086811D01*
X0068132Y0085460D01*
X0068132Y0086360D02*
X0067231Y0087261D01*
X0067681Y0088406D02*
X0067231Y0088857D01*
X0067231Y0089757D01*
X0067681Y0090208D01*
X0069483Y0090208D01*
X0069933Y0089757D01*
X0069933Y0088857D01*
X0069483Y0088406D01*
X0069033Y0088406D01*
X0068582Y0088857D01*
X0068582Y0090208D01*
X0069933Y0086811D02*
X0069933Y0085460D01*
X0067231Y0085460D01*
D12*
X0106681Y0133558D02*
X0109583Y0133558D01*
X0109681Y0138755D02*
X0106681Y0138755D01*
X0106780Y0144507D02*
X0109583Y0144507D01*
X0109583Y0147857D02*
X0106780Y0147857D01*
X0106780Y0170507D02*
X0109583Y0170507D01*
X0109583Y0173857D02*
X0106780Y0173857D01*
X0150780Y0173857D02*
X0153583Y0173857D01*
X0153583Y0170507D02*
X0150780Y0170507D01*
X0179531Y0185755D02*
X0179531Y0188558D01*
X0182882Y0188558D02*
X0182882Y0185755D01*
X0196780Y0158806D02*
X0199583Y0158806D01*
X0199583Y0155455D02*
X0196780Y0155455D01*
X0183331Y0142558D02*
X0183331Y0139755D01*
X0179980Y0139755D02*
X0179980Y0142558D01*
X0166831Y0142558D02*
X0166831Y0139755D01*
X0163480Y0139755D02*
X0163480Y0142558D01*
X0160831Y0110558D02*
X0160831Y0107755D01*
X0157480Y0107755D02*
X0157480Y0110558D01*
X0212480Y0110558D02*
X0212480Y0107755D01*
X0215831Y0107755D02*
X0215831Y0110558D01*
X0266480Y0110558D02*
X0266480Y0107755D01*
X0269831Y0107755D02*
X0269831Y0110558D01*
X0322480Y0110558D02*
X0322480Y0107755D01*
X0325831Y0107755D02*
X0325831Y0110558D01*
X0127583Y0209455D02*
X0124780Y0209455D01*
X0124780Y0212806D02*
X0127583Y0212806D01*
D13*
X0111005Y0136161D03*
X0105305Y0136161D03*
D14*
X0105897Y0146176D03*
X0110497Y0146176D03*
X0110497Y0172176D03*
X0105897Y0172176D03*
X0149897Y0172176D03*
X0154497Y0172176D03*
X0195866Y0157136D03*
X0200466Y0157136D03*
X0128466Y0211136D03*
X0123866Y0211136D03*
D15*
X0181201Y0189441D03*
X0181201Y0184841D03*
X0181661Y0143472D03*
X0181661Y0138872D03*
X0165161Y0138872D03*
X0165161Y0143472D03*
X0159161Y0111472D03*
X0159161Y0106872D03*
X0214161Y0106872D03*
X0214161Y0111472D03*
X0268161Y0111472D03*
X0268161Y0106872D03*
X0324161Y0106872D03*
X0324161Y0111472D03*
D16*
X0338081Y0095756D02*
X0338081Y0044556D01*
X0141281Y0044556D01*
X0141281Y0095756D01*
X0338081Y0095756D01*
X0288501Y0070156D02*
X0288504Y0070430D01*
X0288514Y0070705D01*
X0288531Y0070978D01*
X0288555Y0071252D01*
X0288585Y0071525D01*
X0288622Y0071796D01*
X0288666Y0072067D01*
X0288716Y0072337D01*
X0288773Y0072606D01*
X0288836Y0072873D01*
X0288906Y0073138D01*
X0288982Y0073401D01*
X0289065Y0073663D01*
X0289155Y0073922D01*
X0289250Y0074180D01*
X0289352Y0074434D01*
X0289460Y0074687D01*
X0289574Y0074936D01*
X0289695Y0075183D01*
X0289821Y0075426D01*
X0289953Y0075667D01*
X0290092Y0075904D01*
X0290236Y0076137D01*
X0290385Y0076367D01*
X0290540Y0076594D01*
X0290701Y0076816D01*
X0290867Y0077034D01*
X0291039Y0077249D01*
X0291215Y0077458D01*
X0291397Y0077664D01*
X0291584Y0077865D01*
X0291776Y0078061D01*
X0291972Y0078253D01*
X0292173Y0078440D01*
X0292379Y0078622D01*
X0292588Y0078798D01*
X0292803Y0078970D01*
X0293021Y0079136D01*
X0293243Y0079297D01*
X0293470Y0079452D01*
X0293700Y0079601D01*
X0293933Y0079745D01*
X0294170Y0079884D01*
X0294411Y0080016D01*
X0294654Y0080142D01*
X0294901Y0080263D01*
X0295150Y0080377D01*
X0295403Y0080485D01*
X0295657Y0080587D01*
X0295915Y0080682D01*
X0296174Y0080772D01*
X0296436Y0080855D01*
X0296699Y0080931D01*
X0296964Y0081001D01*
X0297231Y0081064D01*
X0297500Y0081121D01*
X0297770Y0081171D01*
X0298041Y0081215D01*
X0298312Y0081252D01*
X0298585Y0081282D01*
X0298859Y0081306D01*
X0299132Y0081323D01*
X0299407Y0081333D01*
X0299681Y0081336D01*
X0299955Y0081333D01*
X0300230Y0081323D01*
X0300503Y0081306D01*
X0300777Y0081282D01*
X0301050Y0081252D01*
X0301321Y0081215D01*
X0301592Y0081171D01*
X0301862Y0081121D01*
X0302131Y0081064D01*
X0302398Y0081001D01*
X0302663Y0080931D01*
X0302926Y0080855D01*
X0303188Y0080772D01*
X0303447Y0080682D01*
X0303705Y0080587D01*
X0303959Y0080485D01*
X0304212Y0080377D01*
X0304461Y0080263D01*
X0304708Y0080142D01*
X0304951Y0080016D01*
X0305192Y0079884D01*
X0305429Y0079745D01*
X0305662Y0079601D01*
X0305892Y0079452D01*
X0306119Y0079297D01*
X0306341Y0079136D01*
X0306559Y0078970D01*
X0306774Y0078798D01*
X0306983Y0078622D01*
X0307189Y0078440D01*
X0307390Y0078253D01*
X0307586Y0078061D01*
X0307778Y0077865D01*
X0307965Y0077664D01*
X0308147Y0077458D01*
X0308323Y0077249D01*
X0308495Y0077034D01*
X0308661Y0076816D01*
X0308822Y0076594D01*
X0308977Y0076367D01*
X0309126Y0076137D01*
X0309270Y0075904D01*
X0309409Y0075667D01*
X0309541Y0075426D01*
X0309667Y0075183D01*
X0309788Y0074936D01*
X0309902Y0074687D01*
X0310010Y0074434D01*
X0310112Y0074180D01*
X0310207Y0073922D01*
X0310297Y0073663D01*
X0310380Y0073401D01*
X0310456Y0073138D01*
X0310526Y0072873D01*
X0310589Y0072606D01*
X0310646Y0072337D01*
X0310696Y0072067D01*
X0310740Y0071796D01*
X0310777Y0071525D01*
X0310807Y0071252D01*
X0310831Y0070978D01*
X0310848Y0070705D01*
X0310858Y0070430D01*
X0310861Y0070156D01*
X0310858Y0069882D01*
X0310848Y0069607D01*
X0310831Y0069334D01*
X0310807Y0069060D01*
X0310777Y0068787D01*
X0310740Y0068516D01*
X0310696Y0068245D01*
X0310646Y0067975D01*
X0310589Y0067706D01*
X0310526Y0067439D01*
X0310456Y0067174D01*
X0310380Y0066911D01*
X0310297Y0066649D01*
X0310207Y0066390D01*
X0310112Y0066132D01*
X0310010Y0065878D01*
X0309902Y0065625D01*
X0309788Y0065376D01*
X0309667Y0065129D01*
X0309541Y0064886D01*
X0309409Y0064645D01*
X0309270Y0064408D01*
X0309126Y0064175D01*
X0308977Y0063945D01*
X0308822Y0063718D01*
X0308661Y0063496D01*
X0308495Y0063278D01*
X0308323Y0063063D01*
X0308147Y0062854D01*
X0307965Y0062648D01*
X0307778Y0062447D01*
X0307586Y0062251D01*
X0307390Y0062059D01*
X0307189Y0061872D01*
X0306983Y0061690D01*
X0306774Y0061514D01*
X0306559Y0061342D01*
X0306341Y0061176D01*
X0306119Y0061015D01*
X0305892Y0060860D01*
X0305662Y0060711D01*
X0305429Y0060567D01*
X0305192Y0060428D01*
X0304951Y0060296D01*
X0304708Y0060170D01*
X0304461Y0060049D01*
X0304212Y0059935D01*
X0303959Y0059827D01*
X0303705Y0059725D01*
X0303447Y0059630D01*
X0303188Y0059540D01*
X0302926Y0059457D01*
X0302663Y0059381D01*
X0302398Y0059311D01*
X0302131Y0059248D01*
X0301862Y0059191D01*
X0301592Y0059141D01*
X0301321Y0059097D01*
X0301050Y0059060D01*
X0300777Y0059030D01*
X0300503Y0059006D01*
X0300230Y0058989D01*
X0299955Y0058979D01*
X0299681Y0058976D01*
X0299407Y0058979D01*
X0299132Y0058989D01*
X0298859Y0059006D01*
X0298585Y0059030D01*
X0298312Y0059060D01*
X0298041Y0059097D01*
X0297770Y0059141D01*
X0297500Y0059191D01*
X0297231Y0059248D01*
X0296964Y0059311D01*
X0296699Y0059381D01*
X0296436Y0059457D01*
X0296174Y0059540D01*
X0295915Y0059630D01*
X0295657Y0059725D01*
X0295403Y0059827D01*
X0295150Y0059935D01*
X0294901Y0060049D01*
X0294654Y0060170D01*
X0294411Y0060296D01*
X0294170Y0060428D01*
X0293933Y0060567D01*
X0293700Y0060711D01*
X0293470Y0060860D01*
X0293243Y0061015D01*
X0293021Y0061176D01*
X0292803Y0061342D01*
X0292588Y0061514D01*
X0292379Y0061690D01*
X0292173Y0061872D01*
X0291972Y0062059D01*
X0291776Y0062251D01*
X0291584Y0062447D01*
X0291397Y0062648D01*
X0291215Y0062854D01*
X0291039Y0063063D01*
X0290867Y0063278D01*
X0290701Y0063496D01*
X0290540Y0063718D01*
X0290385Y0063945D01*
X0290236Y0064175D01*
X0290092Y0064408D01*
X0289953Y0064645D01*
X0289821Y0064886D01*
X0289695Y0065129D01*
X0289574Y0065376D01*
X0289460Y0065625D01*
X0289352Y0065878D01*
X0289250Y0066132D01*
X0289155Y0066390D01*
X0289065Y0066649D01*
X0288982Y0066911D01*
X0288906Y0067174D01*
X0288836Y0067439D01*
X0288773Y0067706D01*
X0288716Y0067975D01*
X0288666Y0068245D01*
X0288622Y0068516D01*
X0288585Y0068787D01*
X0288555Y0069060D01*
X0288531Y0069334D01*
X0288514Y0069607D01*
X0288504Y0069882D01*
X0288501Y0070156D01*
X0168501Y0070156D02*
X0168504Y0070430D01*
X0168514Y0070705D01*
X0168531Y0070978D01*
X0168555Y0071252D01*
X0168585Y0071525D01*
X0168622Y0071796D01*
X0168666Y0072067D01*
X0168716Y0072337D01*
X0168773Y0072606D01*
X0168836Y0072873D01*
X0168906Y0073138D01*
X0168982Y0073401D01*
X0169065Y0073663D01*
X0169155Y0073922D01*
X0169250Y0074180D01*
X0169352Y0074434D01*
X0169460Y0074687D01*
X0169574Y0074936D01*
X0169695Y0075183D01*
X0169821Y0075426D01*
X0169953Y0075667D01*
X0170092Y0075904D01*
X0170236Y0076137D01*
X0170385Y0076367D01*
X0170540Y0076594D01*
X0170701Y0076816D01*
X0170867Y0077034D01*
X0171039Y0077249D01*
X0171215Y0077458D01*
X0171397Y0077664D01*
X0171584Y0077865D01*
X0171776Y0078061D01*
X0171972Y0078253D01*
X0172173Y0078440D01*
X0172379Y0078622D01*
X0172588Y0078798D01*
X0172803Y0078970D01*
X0173021Y0079136D01*
X0173243Y0079297D01*
X0173470Y0079452D01*
X0173700Y0079601D01*
X0173933Y0079745D01*
X0174170Y0079884D01*
X0174411Y0080016D01*
X0174654Y0080142D01*
X0174901Y0080263D01*
X0175150Y0080377D01*
X0175403Y0080485D01*
X0175657Y0080587D01*
X0175915Y0080682D01*
X0176174Y0080772D01*
X0176436Y0080855D01*
X0176699Y0080931D01*
X0176964Y0081001D01*
X0177231Y0081064D01*
X0177500Y0081121D01*
X0177770Y0081171D01*
X0178041Y0081215D01*
X0178312Y0081252D01*
X0178585Y0081282D01*
X0178859Y0081306D01*
X0179132Y0081323D01*
X0179407Y0081333D01*
X0179681Y0081336D01*
X0179955Y0081333D01*
X0180230Y0081323D01*
X0180503Y0081306D01*
X0180777Y0081282D01*
X0181050Y0081252D01*
X0181321Y0081215D01*
X0181592Y0081171D01*
X0181862Y0081121D01*
X0182131Y0081064D01*
X0182398Y0081001D01*
X0182663Y0080931D01*
X0182926Y0080855D01*
X0183188Y0080772D01*
X0183447Y0080682D01*
X0183705Y0080587D01*
X0183959Y0080485D01*
X0184212Y0080377D01*
X0184461Y0080263D01*
X0184708Y0080142D01*
X0184951Y0080016D01*
X0185192Y0079884D01*
X0185429Y0079745D01*
X0185662Y0079601D01*
X0185892Y0079452D01*
X0186119Y0079297D01*
X0186341Y0079136D01*
X0186559Y0078970D01*
X0186774Y0078798D01*
X0186983Y0078622D01*
X0187189Y0078440D01*
X0187390Y0078253D01*
X0187586Y0078061D01*
X0187778Y0077865D01*
X0187965Y0077664D01*
X0188147Y0077458D01*
X0188323Y0077249D01*
X0188495Y0077034D01*
X0188661Y0076816D01*
X0188822Y0076594D01*
X0188977Y0076367D01*
X0189126Y0076137D01*
X0189270Y0075904D01*
X0189409Y0075667D01*
X0189541Y0075426D01*
X0189667Y0075183D01*
X0189788Y0074936D01*
X0189902Y0074687D01*
X0190010Y0074434D01*
X0190112Y0074180D01*
X0190207Y0073922D01*
X0190297Y0073663D01*
X0190380Y0073401D01*
X0190456Y0073138D01*
X0190526Y0072873D01*
X0190589Y0072606D01*
X0190646Y0072337D01*
X0190696Y0072067D01*
X0190740Y0071796D01*
X0190777Y0071525D01*
X0190807Y0071252D01*
X0190831Y0070978D01*
X0190848Y0070705D01*
X0190858Y0070430D01*
X0190861Y0070156D01*
X0190858Y0069882D01*
X0190848Y0069607D01*
X0190831Y0069334D01*
X0190807Y0069060D01*
X0190777Y0068787D01*
X0190740Y0068516D01*
X0190696Y0068245D01*
X0190646Y0067975D01*
X0190589Y0067706D01*
X0190526Y0067439D01*
X0190456Y0067174D01*
X0190380Y0066911D01*
X0190297Y0066649D01*
X0190207Y0066390D01*
X0190112Y0066132D01*
X0190010Y0065878D01*
X0189902Y0065625D01*
X0189788Y0065376D01*
X0189667Y0065129D01*
X0189541Y0064886D01*
X0189409Y0064645D01*
X0189270Y0064408D01*
X0189126Y0064175D01*
X0188977Y0063945D01*
X0188822Y0063718D01*
X0188661Y0063496D01*
X0188495Y0063278D01*
X0188323Y0063063D01*
X0188147Y0062854D01*
X0187965Y0062648D01*
X0187778Y0062447D01*
X0187586Y0062251D01*
X0187390Y0062059D01*
X0187189Y0061872D01*
X0186983Y0061690D01*
X0186774Y0061514D01*
X0186559Y0061342D01*
X0186341Y0061176D01*
X0186119Y0061015D01*
X0185892Y0060860D01*
X0185662Y0060711D01*
X0185429Y0060567D01*
X0185192Y0060428D01*
X0184951Y0060296D01*
X0184708Y0060170D01*
X0184461Y0060049D01*
X0184212Y0059935D01*
X0183959Y0059827D01*
X0183705Y0059725D01*
X0183447Y0059630D01*
X0183188Y0059540D01*
X0182926Y0059457D01*
X0182663Y0059381D01*
X0182398Y0059311D01*
X0182131Y0059248D01*
X0181862Y0059191D01*
X0181592Y0059141D01*
X0181321Y0059097D01*
X0181050Y0059060D01*
X0180777Y0059030D01*
X0180503Y0059006D01*
X0180230Y0058989D01*
X0179955Y0058979D01*
X0179681Y0058976D01*
X0179407Y0058979D01*
X0179132Y0058989D01*
X0178859Y0059006D01*
X0178585Y0059030D01*
X0178312Y0059060D01*
X0178041Y0059097D01*
X0177770Y0059141D01*
X0177500Y0059191D01*
X0177231Y0059248D01*
X0176964Y0059311D01*
X0176699Y0059381D01*
X0176436Y0059457D01*
X0176174Y0059540D01*
X0175915Y0059630D01*
X0175657Y0059725D01*
X0175403Y0059827D01*
X0175150Y0059935D01*
X0174901Y0060049D01*
X0174654Y0060170D01*
X0174411Y0060296D01*
X0174170Y0060428D01*
X0173933Y0060567D01*
X0173700Y0060711D01*
X0173470Y0060860D01*
X0173243Y0061015D01*
X0173021Y0061176D01*
X0172803Y0061342D01*
X0172588Y0061514D01*
X0172379Y0061690D01*
X0172173Y0061872D01*
X0171972Y0062059D01*
X0171776Y0062251D01*
X0171584Y0062447D01*
X0171397Y0062648D01*
X0171215Y0062854D01*
X0171039Y0063063D01*
X0170867Y0063278D01*
X0170701Y0063496D01*
X0170540Y0063718D01*
X0170385Y0063945D01*
X0170236Y0064175D01*
X0170092Y0064408D01*
X0169953Y0064645D01*
X0169821Y0064886D01*
X0169695Y0065129D01*
X0169574Y0065376D01*
X0169460Y0065625D01*
X0169352Y0065878D01*
X0169250Y0066132D01*
X0169155Y0066390D01*
X0169065Y0066649D01*
X0168982Y0066911D01*
X0168906Y0067174D01*
X0168836Y0067439D01*
X0168773Y0067706D01*
X0168716Y0067975D01*
X0168666Y0068245D01*
X0168622Y0068516D01*
X0168585Y0068787D01*
X0168555Y0069060D01*
X0168531Y0069334D01*
X0168514Y0069607D01*
X0168504Y0069882D01*
X0168501Y0070156D01*
D17*
X0175173Y0070162D02*
X0184181Y0070162D01*
X0179677Y0074666D02*
X0179677Y0065658D01*
X0295173Y0070162D02*
X0304181Y0070162D01*
D18*
X0259081Y0070162D02*
X0249873Y0070162D01*
X0249873Y0072464D02*
X0249873Y0063256D01*
X0245269Y0063256D02*
X0245269Y0072464D01*
X0240665Y0077068D01*
X0236061Y0072464D01*
X0236061Y0063256D01*
X0231458Y0063256D02*
X0231458Y0072464D01*
X0226854Y0077068D01*
X0222250Y0072464D01*
X0222250Y0063256D01*
X0222250Y0070162D02*
X0231458Y0070162D01*
X0236061Y0070162D02*
X0245269Y0070162D01*
X0249873Y0072464D02*
X0254477Y0077068D01*
X0259081Y0072464D01*
X0259081Y0063256D01*
X0146850Y0185314D02*
X0105512Y0185314D01*
X0105512Y0204999D01*
X0146850Y0204999D01*
X0146850Y0185314D01*
X0108070Y0200668D02*
X0108072Y0200756D01*
X0108078Y0200844D01*
X0108088Y0200932D01*
X0108102Y0201020D01*
X0108119Y0201106D01*
X0108141Y0201192D01*
X0108166Y0201276D01*
X0108196Y0201360D01*
X0108228Y0201442D01*
X0108265Y0201522D01*
X0108305Y0201601D01*
X0108349Y0201678D01*
X0108396Y0201753D01*
X0108446Y0201825D01*
X0108500Y0201896D01*
X0108556Y0201963D01*
X0108616Y0202029D01*
X0108678Y0202091D01*
X0108744Y0202151D01*
X0108811Y0202207D01*
X0108882Y0202261D01*
X0108954Y0202311D01*
X0109029Y0202358D01*
X0109106Y0202402D01*
X0109185Y0202442D01*
X0109265Y0202479D01*
X0109347Y0202511D01*
X0109431Y0202541D01*
X0109515Y0202566D01*
X0109601Y0202588D01*
X0109687Y0202605D01*
X0109775Y0202619D01*
X0109863Y0202629D01*
X0109951Y0202635D01*
X0110039Y0202637D01*
X0110127Y0202635D01*
X0110215Y0202629D01*
X0110303Y0202619D01*
X0110391Y0202605D01*
X0110477Y0202588D01*
X0110563Y0202566D01*
X0110647Y0202541D01*
X0110731Y0202511D01*
X0110813Y0202479D01*
X0110893Y0202442D01*
X0110972Y0202402D01*
X0111049Y0202358D01*
X0111124Y0202311D01*
X0111196Y0202261D01*
X0111267Y0202207D01*
X0111334Y0202151D01*
X0111400Y0202091D01*
X0111462Y0202029D01*
X0111522Y0201963D01*
X0111578Y0201896D01*
X0111632Y0201825D01*
X0111682Y0201753D01*
X0111729Y0201678D01*
X0111773Y0201601D01*
X0111813Y0201522D01*
X0111850Y0201442D01*
X0111882Y0201360D01*
X0111912Y0201276D01*
X0111937Y0201192D01*
X0111959Y0201106D01*
X0111976Y0201020D01*
X0111990Y0200932D01*
X0112000Y0200844D01*
X0112006Y0200756D01*
X0112008Y0200668D01*
X0112006Y0200580D01*
X0112000Y0200492D01*
X0111990Y0200404D01*
X0111976Y0200316D01*
X0111959Y0200230D01*
X0111937Y0200144D01*
X0111912Y0200060D01*
X0111882Y0199976D01*
X0111850Y0199894D01*
X0111813Y0199814D01*
X0111773Y0199735D01*
X0111729Y0199658D01*
X0111682Y0199583D01*
X0111632Y0199511D01*
X0111578Y0199440D01*
X0111522Y0199373D01*
X0111462Y0199307D01*
X0111400Y0199245D01*
X0111334Y0199185D01*
X0111267Y0199129D01*
X0111196Y0199075D01*
X0111124Y0199025D01*
X0111049Y0198978D01*
X0110972Y0198934D01*
X0110893Y0198894D01*
X0110813Y0198857D01*
X0110731Y0198825D01*
X0110647Y0198795D01*
X0110563Y0198770D01*
X0110477Y0198748D01*
X0110391Y0198731D01*
X0110303Y0198717D01*
X0110215Y0198707D01*
X0110127Y0198701D01*
X0110039Y0198699D01*
X0109951Y0198701D01*
X0109863Y0198707D01*
X0109775Y0198717D01*
X0109687Y0198731D01*
X0109601Y0198748D01*
X0109515Y0198770D01*
X0109431Y0198795D01*
X0109347Y0198825D01*
X0109265Y0198857D01*
X0109185Y0198894D01*
X0109106Y0198934D01*
X0109029Y0198978D01*
X0108954Y0199025D01*
X0108882Y0199075D01*
X0108811Y0199129D01*
X0108744Y0199185D01*
X0108678Y0199245D01*
X0108616Y0199307D01*
X0108556Y0199373D01*
X0108500Y0199440D01*
X0108446Y0199511D01*
X0108396Y0199583D01*
X0108349Y0199658D01*
X0108305Y0199735D01*
X0108265Y0199814D01*
X0108228Y0199894D01*
X0108196Y0199976D01*
X0108166Y0200060D01*
X0108141Y0200144D01*
X0108119Y0200230D01*
X0108102Y0200316D01*
X0108088Y0200404D01*
X0108078Y0200492D01*
X0108072Y0200580D01*
X0108070Y0200668D01*
D19*
X0337972Y0189156D02*
X0360071Y0189156D01*
X0360071Y0179156D02*
X0337972Y0179156D01*
X0337972Y0169156D02*
X0360071Y0169156D01*
X0360071Y0159156D02*
X0337972Y0159156D01*
X0337972Y0149156D02*
X0360071Y0149156D01*
X0359677Y0139156D02*
X0337972Y0139156D01*
D20*
X0325181Y0139156D03*
X0325181Y0149156D03*
X0325181Y0159156D03*
X0325181Y0169156D03*
X0325181Y0179156D03*
X0325181Y0189156D03*
D21*
X0353394Y0034156D02*
X0069929Y0034156D01*
X0063630Y0049904D02*
X0063632Y0050062D01*
X0063638Y0050220D01*
X0063648Y0050378D01*
X0063662Y0050536D01*
X0063680Y0050693D01*
X0063701Y0050850D01*
X0063727Y0051006D01*
X0063757Y0051162D01*
X0063790Y0051317D01*
X0063828Y0051470D01*
X0063869Y0051623D01*
X0063914Y0051775D01*
X0063963Y0051926D01*
X0064016Y0052075D01*
X0064072Y0052223D01*
X0064132Y0052369D01*
X0064196Y0052514D01*
X0064264Y0052657D01*
X0064335Y0052799D01*
X0064409Y0052939D01*
X0064487Y0053076D01*
X0064569Y0053212D01*
X0064653Y0053346D01*
X0064742Y0053477D01*
X0064833Y0053606D01*
X0064928Y0053733D01*
X0065025Y0053858D01*
X0065126Y0053980D01*
X0065230Y0054099D01*
X0065337Y0054216D01*
X0065447Y0054330D01*
X0065560Y0054441D01*
X0065675Y0054550D01*
X0065793Y0054655D01*
X0065914Y0054757D01*
X0066037Y0054857D01*
X0066163Y0054953D01*
X0066291Y0055046D01*
X0066421Y0055136D01*
X0066554Y0055222D01*
X0066689Y0055306D01*
X0066825Y0055385D01*
X0066964Y0055462D01*
X0067105Y0055534D01*
X0067247Y0055604D01*
X0067391Y0055669D01*
X0067537Y0055731D01*
X0067684Y0055789D01*
X0067833Y0055844D01*
X0067983Y0055895D01*
X0068134Y0055942D01*
X0068286Y0055985D01*
X0068439Y0056024D01*
X0068594Y0056060D01*
X0068749Y0056091D01*
X0068905Y0056119D01*
X0069061Y0056143D01*
X0069218Y0056163D01*
X0069376Y0056179D01*
X0069533Y0056191D01*
X0069692Y0056199D01*
X0069850Y0056203D01*
X0070008Y0056203D01*
X0070166Y0056199D01*
X0070325Y0056191D01*
X0070482Y0056179D01*
X0070640Y0056163D01*
X0070797Y0056143D01*
X0070953Y0056119D01*
X0071109Y0056091D01*
X0071264Y0056060D01*
X0071419Y0056024D01*
X0071572Y0055985D01*
X0071724Y0055942D01*
X0071875Y0055895D01*
X0072025Y0055844D01*
X0072174Y0055789D01*
X0072321Y0055731D01*
X0072467Y0055669D01*
X0072611Y0055604D01*
X0072753Y0055534D01*
X0072894Y0055462D01*
X0073033Y0055385D01*
X0073169Y0055306D01*
X0073304Y0055222D01*
X0073437Y0055136D01*
X0073567Y0055046D01*
X0073695Y0054953D01*
X0073821Y0054857D01*
X0073944Y0054757D01*
X0074065Y0054655D01*
X0074183Y0054550D01*
X0074298Y0054441D01*
X0074411Y0054330D01*
X0074521Y0054216D01*
X0074628Y0054099D01*
X0074732Y0053980D01*
X0074833Y0053858D01*
X0074930Y0053733D01*
X0075025Y0053606D01*
X0075116Y0053477D01*
X0075205Y0053346D01*
X0075289Y0053212D01*
X0075371Y0053076D01*
X0075449Y0052939D01*
X0075523Y0052799D01*
X0075594Y0052657D01*
X0075662Y0052514D01*
X0075726Y0052369D01*
X0075786Y0052223D01*
X0075842Y0052075D01*
X0075895Y0051926D01*
X0075944Y0051775D01*
X0075989Y0051623D01*
X0076030Y0051470D01*
X0076068Y0051317D01*
X0076101Y0051162D01*
X0076131Y0051006D01*
X0076157Y0050850D01*
X0076178Y0050693D01*
X0076196Y0050536D01*
X0076210Y0050378D01*
X0076220Y0050220D01*
X0076226Y0050062D01*
X0076228Y0049904D01*
X0076226Y0049746D01*
X0076220Y0049588D01*
X0076210Y0049430D01*
X0076196Y0049272D01*
X0076178Y0049115D01*
X0076157Y0048958D01*
X0076131Y0048802D01*
X0076101Y0048646D01*
X0076068Y0048491D01*
X0076030Y0048338D01*
X0075989Y0048185D01*
X0075944Y0048033D01*
X0075895Y0047882D01*
X0075842Y0047733D01*
X0075786Y0047585D01*
X0075726Y0047439D01*
X0075662Y0047294D01*
X0075594Y0047151D01*
X0075523Y0047009D01*
X0075449Y0046869D01*
X0075371Y0046732D01*
X0075289Y0046596D01*
X0075205Y0046462D01*
X0075116Y0046331D01*
X0075025Y0046202D01*
X0074930Y0046075D01*
X0074833Y0045950D01*
X0074732Y0045828D01*
X0074628Y0045709D01*
X0074521Y0045592D01*
X0074411Y0045478D01*
X0074298Y0045367D01*
X0074183Y0045258D01*
X0074065Y0045153D01*
X0073944Y0045051D01*
X0073821Y0044951D01*
X0073695Y0044855D01*
X0073567Y0044762D01*
X0073437Y0044672D01*
X0073304Y0044586D01*
X0073169Y0044502D01*
X0073033Y0044423D01*
X0072894Y0044346D01*
X0072753Y0044274D01*
X0072611Y0044204D01*
X0072467Y0044139D01*
X0072321Y0044077D01*
X0072174Y0044019D01*
X0072025Y0043964D01*
X0071875Y0043913D01*
X0071724Y0043866D01*
X0071572Y0043823D01*
X0071419Y0043784D01*
X0071264Y0043748D01*
X0071109Y0043717D01*
X0070953Y0043689D01*
X0070797Y0043665D01*
X0070640Y0043645D01*
X0070482Y0043629D01*
X0070325Y0043617D01*
X0070166Y0043609D01*
X0070008Y0043605D01*
X0069850Y0043605D01*
X0069692Y0043609D01*
X0069533Y0043617D01*
X0069376Y0043629D01*
X0069218Y0043645D01*
X0069061Y0043665D01*
X0068905Y0043689D01*
X0068749Y0043717D01*
X0068594Y0043748D01*
X0068439Y0043784D01*
X0068286Y0043823D01*
X0068134Y0043866D01*
X0067983Y0043913D01*
X0067833Y0043964D01*
X0067684Y0044019D01*
X0067537Y0044077D01*
X0067391Y0044139D01*
X0067247Y0044204D01*
X0067105Y0044274D01*
X0066964Y0044346D01*
X0066825Y0044423D01*
X0066689Y0044502D01*
X0066554Y0044586D01*
X0066421Y0044672D01*
X0066291Y0044762D01*
X0066163Y0044855D01*
X0066037Y0044951D01*
X0065914Y0045051D01*
X0065793Y0045153D01*
X0065675Y0045258D01*
X0065560Y0045367D01*
X0065447Y0045478D01*
X0065337Y0045592D01*
X0065230Y0045709D01*
X0065126Y0045828D01*
X0065025Y0045950D01*
X0064928Y0046075D01*
X0064833Y0046202D01*
X0064742Y0046331D01*
X0064653Y0046462D01*
X0064569Y0046596D01*
X0064487Y0046732D01*
X0064409Y0046869D01*
X0064335Y0047009D01*
X0064264Y0047151D01*
X0064196Y0047294D01*
X0064132Y0047439D01*
X0064072Y0047585D01*
X0064016Y0047733D01*
X0063963Y0047882D01*
X0063914Y0048033D01*
X0063869Y0048185D01*
X0063828Y0048338D01*
X0063790Y0048491D01*
X0063757Y0048646D01*
X0063727Y0048802D01*
X0063701Y0048958D01*
X0063680Y0049115D01*
X0063662Y0049272D01*
X0063648Y0049430D01*
X0063638Y0049588D01*
X0063632Y0049746D01*
X0063630Y0049904D01*
X0054181Y0049904D02*
X0054186Y0049523D01*
X0054199Y0049143D01*
X0054222Y0048763D01*
X0054255Y0048384D01*
X0054296Y0048006D01*
X0054346Y0047629D01*
X0054406Y0047253D01*
X0054474Y0046878D01*
X0054552Y0046506D01*
X0054639Y0046135D01*
X0054734Y0045767D01*
X0054839Y0045401D01*
X0054952Y0045038D01*
X0055074Y0044677D01*
X0055204Y0044320D01*
X0055344Y0043966D01*
X0055491Y0043615D01*
X0055648Y0043268D01*
X0055812Y0042925D01*
X0055985Y0042586D01*
X0056166Y0042251D01*
X0056355Y0041920D01*
X0056552Y0041595D01*
X0056756Y0041274D01*
X0056969Y0040958D01*
X0057189Y0040648D01*
X0057416Y0040342D01*
X0057651Y0040043D01*
X0057893Y0039749D01*
X0058141Y0039461D01*
X0058397Y0039179D01*
X0058660Y0038904D01*
X0058929Y0038635D01*
X0059204Y0038372D01*
X0059486Y0038116D01*
X0059774Y0037868D01*
X0060068Y0037626D01*
X0060367Y0037391D01*
X0060673Y0037164D01*
X0060983Y0036944D01*
X0061299Y0036731D01*
X0061620Y0036527D01*
X0061945Y0036330D01*
X0062276Y0036141D01*
X0062611Y0035960D01*
X0062950Y0035787D01*
X0063293Y0035623D01*
X0063640Y0035466D01*
X0063991Y0035319D01*
X0064345Y0035179D01*
X0064702Y0035049D01*
X0065063Y0034927D01*
X0065426Y0034814D01*
X0065792Y0034709D01*
X0066160Y0034614D01*
X0066531Y0034527D01*
X0066903Y0034449D01*
X0067278Y0034381D01*
X0067654Y0034321D01*
X0068031Y0034271D01*
X0068409Y0034230D01*
X0068788Y0034197D01*
X0069168Y0034174D01*
X0069548Y0034161D01*
X0069929Y0034156D01*
X0054181Y0049904D02*
X0054181Y0211322D01*
X0063630Y0211322D02*
X0063632Y0211480D01*
X0063638Y0211638D01*
X0063648Y0211796D01*
X0063662Y0211954D01*
X0063680Y0212111D01*
X0063701Y0212268D01*
X0063727Y0212424D01*
X0063757Y0212580D01*
X0063790Y0212735D01*
X0063828Y0212888D01*
X0063869Y0213041D01*
X0063914Y0213193D01*
X0063963Y0213344D01*
X0064016Y0213493D01*
X0064072Y0213641D01*
X0064132Y0213787D01*
X0064196Y0213932D01*
X0064264Y0214075D01*
X0064335Y0214217D01*
X0064409Y0214357D01*
X0064487Y0214494D01*
X0064569Y0214630D01*
X0064653Y0214764D01*
X0064742Y0214895D01*
X0064833Y0215024D01*
X0064928Y0215151D01*
X0065025Y0215276D01*
X0065126Y0215398D01*
X0065230Y0215517D01*
X0065337Y0215634D01*
X0065447Y0215748D01*
X0065560Y0215859D01*
X0065675Y0215968D01*
X0065793Y0216073D01*
X0065914Y0216175D01*
X0066037Y0216275D01*
X0066163Y0216371D01*
X0066291Y0216464D01*
X0066421Y0216554D01*
X0066554Y0216640D01*
X0066689Y0216724D01*
X0066825Y0216803D01*
X0066964Y0216880D01*
X0067105Y0216952D01*
X0067247Y0217022D01*
X0067391Y0217087D01*
X0067537Y0217149D01*
X0067684Y0217207D01*
X0067833Y0217262D01*
X0067983Y0217313D01*
X0068134Y0217360D01*
X0068286Y0217403D01*
X0068439Y0217442D01*
X0068594Y0217478D01*
X0068749Y0217509D01*
X0068905Y0217537D01*
X0069061Y0217561D01*
X0069218Y0217581D01*
X0069376Y0217597D01*
X0069533Y0217609D01*
X0069692Y0217617D01*
X0069850Y0217621D01*
X0070008Y0217621D01*
X0070166Y0217617D01*
X0070325Y0217609D01*
X0070482Y0217597D01*
X0070640Y0217581D01*
X0070797Y0217561D01*
X0070953Y0217537D01*
X0071109Y0217509D01*
X0071264Y0217478D01*
X0071419Y0217442D01*
X0071572Y0217403D01*
X0071724Y0217360D01*
X0071875Y0217313D01*
X0072025Y0217262D01*
X0072174Y0217207D01*
X0072321Y0217149D01*
X0072467Y0217087D01*
X0072611Y0217022D01*
X0072753Y0216952D01*
X0072894Y0216880D01*
X0073033Y0216803D01*
X0073169Y0216724D01*
X0073304Y0216640D01*
X0073437Y0216554D01*
X0073567Y0216464D01*
X0073695Y0216371D01*
X0073821Y0216275D01*
X0073944Y0216175D01*
X0074065Y0216073D01*
X0074183Y0215968D01*
X0074298Y0215859D01*
X0074411Y0215748D01*
X0074521Y0215634D01*
X0074628Y0215517D01*
X0074732Y0215398D01*
X0074833Y0215276D01*
X0074930Y0215151D01*
X0075025Y0215024D01*
X0075116Y0214895D01*
X0075205Y0214764D01*
X0075289Y0214630D01*
X0075371Y0214494D01*
X0075449Y0214357D01*
X0075523Y0214217D01*
X0075594Y0214075D01*
X0075662Y0213932D01*
X0075726Y0213787D01*
X0075786Y0213641D01*
X0075842Y0213493D01*
X0075895Y0213344D01*
X0075944Y0213193D01*
X0075989Y0213041D01*
X0076030Y0212888D01*
X0076068Y0212735D01*
X0076101Y0212580D01*
X0076131Y0212424D01*
X0076157Y0212268D01*
X0076178Y0212111D01*
X0076196Y0211954D01*
X0076210Y0211796D01*
X0076220Y0211638D01*
X0076226Y0211480D01*
X0076228Y0211322D01*
X0076226Y0211164D01*
X0076220Y0211006D01*
X0076210Y0210848D01*
X0076196Y0210690D01*
X0076178Y0210533D01*
X0076157Y0210376D01*
X0076131Y0210220D01*
X0076101Y0210064D01*
X0076068Y0209909D01*
X0076030Y0209756D01*
X0075989Y0209603D01*
X0075944Y0209451D01*
X0075895Y0209300D01*
X0075842Y0209151D01*
X0075786Y0209003D01*
X0075726Y0208857D01*
X0075662Y0208712D01*
X0075594Y0208569D01*
X0075523Y0208427D01*
X0075449Y0208287D01*
X0075371Y0208150D01*
X0075289Y0208014D01*
X0075205Y0207880D01*
X0075116Y0207749D01*
X0075025Y0207620D01*
X0074930Y0207493D01*
X0074833Y0207368D01*
X0074732Y0207246D01*
X0074628Y0207127D01*
X0074521Y0207010D01*
X0074411Y0206896D01*
X0074298Y0206785D01*
X0074183Y0206676D01*
X0074065Y0206571D01*
X0073944Y0206469D01*
X0073821Y0206369D01*
X0073695Y0206273D01*
X0073567Y0206180D01*
X0073437Y0206090D01*
X0073304Y0206004D01*
X0073169Y0205920D01*
X0073033Y0205841D01*
X0072894Y0205764D01*
X0072753Y0205692D01*
X0072611Y0205622D01*
X0072467Y0205557D01*
X0072321Y0205495D01*
X0072174Y0205437D01*
X0072025Y0205382D01*
X0071875Y0205331D01*
X0071724Y0205284D01*
X0071572Y0205241D01*
X0071419Y0205202D01*
X0071264Y0205166D01*
X0071109Y0205135D01*
X0070953Y0205107D01*
X0070797Y0205083D01*
X0070640Y0205063D01*
X0070482Y0205047D01*
X0070325Y0205035D01*
X0070166Y0205027D01*
X0070008Y0205023D01*
X0069850Y0205023D01*
X0069692Y0205027D01*
X0069533Y0205035D01*
X0069376Y0205047D01*
X0069218Y0205063D01*
X0069061Y0205083D01*
X0068905Y0205107D01*
X0068749Y0205135D01*
X0068594Y0205166D01*
X0068439Y0205202D01*
X0068286Y0205241D01*
X0068134Y0205284D01*
X0067983Y0205331D01*
X0067833Y0205382D01*
X0067684Y0205437D01*
X0067537Y0205495D01*
X0067391Y0205557D01*
X0067247Y0205622D01*
X0067105Y0205692D01*
X0066964Y0205764D01*
X0066825Y0205841D01*
X0066689Y0205920D01*
X0066554Y0206004D01*
X0066421Y0206090D01*
X0066291Y0206180D01*
X0066163Y0206273D01*
X0066037Y0206369D01*
X0065914Y0206469D01*
X0065793Y0206571D01*
X0065675Y0206676D01*
X0065560Y0206785D01*
X0065447Y0206896D01*
X0065337Y0207010D01*
X0065230Y0207127D01*
X0065126Y0207246D01*
X0065025Y0207368D01*
X0064928Y0207493D01*
X0064833Y0207620D01*
X0064742Y0207749D01*
X0064653Y0207880D01*
X0064569Y0208014D01*
X0064487Y0208150D01*
X0064409Y0208287D01*
X0064335Y0208427D01*
X0064264Y0208569D01*
X0064196Y0208712D01*
X0064132Y0208857D01*
X0064072Y0209003D01*
X0064016Y0209151D01*
X0063963Y0209300D01*
X0063914Y0209451D01*
X0063869Y0209603D01*
X0063828Y0209756D01*
X0063790Y0209909D01*
X0063757Y0210064D01*
X0063727Y0210220D01*
X0063701Y0210376D01*
X0063680Y0210533D01*
X0063662Y0210690D01*
X0063648Y0210848D01*
X0063638Y0211006D01*
X0063632Y0211164D01*
X0063630Y0211322D01*
X0054181Y0211322D02*
X0054186Y0211703D01*
X0054199Y0212083D01*
X0054222Y0212463D01*
X0054255Y0212842D01*
X0054296Y0213220D01*
X0054346Y0213597D01*
X0054406Y0213973D01*
X0054474Y0214348D01*
X0054552Y0214720D01*
X0054639Y0215091D01*
X0054734Y0215459D01*
X0054839Y0215825D01*
X0054952Y0216188D01*
X0055074Y0216549D01*
X0055204Y0216906D01*
X0055344Y0217260D01*
X0055491Y0217611D01*
X0055648Y0217958D01*
X0055812Y0218301D01*
X0055985Y0218640D01*
X0056166Y0218975D01*
X0056355Y0219306D01*
X0056552Y0219631D01*
X0056756Y0219952D01*
X0056969Y0220268D01*
X0057189Y0220578D01*
X0057416Y0220884D01*
X0057651Y0221183D01*
X0057893Y0221477D01*
X0058141Y0221765D01*
X0058397Y0222047D01*
X0058660Y0222322D01*
X0058929Y0222591D01*
X0059204Y0222854D01*
X0059486Y0223110D01*
X0059774Y0223358D01*
X0060068Y0223600D01*
X0060367Y0223835D01*
X0060673Y0224062D01*
X0060983Y0224282D01*
X0061299Y0224495D01*
X0061620Y0224699D01*
X0061945Y0224896D01*
X0062276Y0225085D01*
X0062611Y0225266D01*
X0062950Y0225439D01*
X0063293Y0225603D01*
X0063640Y0225760D01*
X0063991Y0225907D01*
X0064345Y0226047D01*
X0064702Y0226177D01*
X0065063Y0226299D01*
X0065426Y0226412D01*
X0065792Y0226517D01*
X0066160Y0226612D01*
X0066531Y0226699D01*
X0066903Y0226777D01*
X0067278Y0226845D01*
X0067654Y0226905D01*
X0068031Y0226955D01*
X0068409Y0226996D01*
X0068788Y0227029D01*
X0069168Y0227052D01*
X0069548Y0227065D01*
X0069929Y0227070D01*
X0353394Y0227070D01*
X0347095Y0211322D02*
X0347097Y0211480D01*
X0347103Y0211638D01*
X0347113Y0211796D01*
X0347127Y0211954D01*
X0347145Y0212111D01*
X0347166Y0212268D01*
X0347192Y0212424D01*
X0347222Y0212580D01*
X0347255Y0212735D01*
X0347293Y0212888D01*
X0347334Y0213041D01*
X0347379Y0213193D01*
X0347428Y0213344D01*
X0347481Y0213493D01*
X0347537Y0213641D01*
X0347597Y0213787D01*
X0347661Y0213932D01*
X0347729Y0214075D01*
X0347800Y0214217D01*
X0347874Y0214357D01*
X0347952Y0214494D01*
X0348034Y0214630D01*
X0348118Y0214764D01*
X0348207Y0214895D01*
X0348298Y0215024D01*
X0348393Y0215151D01*
X0348490Y0215276D01*
X0348591Y0215398D01*
X0348695Y0215517D01*
X0348802Y0215634D01*
X0348912Y0215748D01*
X0349025Y0215859D01*
X0349140Y0215968D01*
X0349258Y0216073D01*
X0349379Y0216175D01*
X0349502Y0216275D01*
X0349628Y0216371D01*
X0349756Y0216464D01*
X0349886Y0216554D01*
X0350019Y0216640D01*
X0350154Y0216724D01*
X0350290Y0216803D01*
X0350429Y0216880D01*
X0350570Y0216952D01*
X0350712Y0217022D01*
X0350856Y0217087D01*
X0351002Y0217149D01*
X0351149Y0217207D01*
X0351298Y0217262D01*
X0351448Y0217313D01*
X0351599Y0217360D01*
X0351751Y0217403D01*
X0351904Y0217442D01*
X0352059Y0217478D01*
X0352214Y0217509D01*
X0352370Y0217537D01*
X0352526Y0217561D01*
X0352683Y0217581D01*
X0352841Y0217597D01*
X0352998Y0217609D01*
X0353157Y0217617D01*
X0353315Y0217621D01*
X0353473Y0217621D01*
X0353631Y0217617D01*
X0353790Y0217609D01*
X0353947Y0217597D01*
X0354105Y0217581D01*
X0354262Y0217561D01*
X0354418Y0217537D01*
X0354574Y0217509D01*
X0354729Y0217478D01*
X0354884Y0217442D01*
X0355037Y0217403D01*
X0355189Y0217360D01*
X0355340Y0217313D01*
X0355490Y0217262D01*
X0355639Y0217207D01*
X0355786Y0217149D01*
X0355932Y0217087D01*
X0356076Y0217022D01*
X0356218Y0216952D01*
X0356359Y0216880D01*
X0356498Y0216803D01*
X0356634Y0216724D01*
X0356769Y0216640D01*
X0356902Y0216554D01*
X0357032Y0216464D01*
X0357160Y0216371D01*
X0357286Y0216275D01*
X0357409Y0216175D01*
X0357530Y0216073D01*
X0357648Y0215968D01*
X0357763Y0215859D01*
X0357876Y0215748D01*
X0357986Y0215634D01*
X0358093Y0215517D01*
X0358197Y0215398D01*
X0358298Y0215276D01*
X0358395Y0215151D01*
X0358490Y0215024D01*
X0358581Y0214895D01*
X0358670Y0214764D01*
X0358754Y0214630D01*
X0358836Y0214494D01*
X0358914Y0214357D01*
X0358988Y0214217D01*
X0359059Y0214075D01*
X0359127Y0213932D01*
X0359191Y0213787D01*
X0359251Y0213641D01*
X0359307Y0213493D01*
X0359360Y0213344D01*
X0359409Y0213193D01*
X0359454Y0213041D01*
X0359495Y0212888D01*
X0359533Y0212735D01*
X0359566Y0212580D01*
X0359596Y0212424D01*
X0359622Y0212268D01*
X0359643Y0212111D01*
X0359661Y0211954D01*
X0359675Y0211796D01*
X0359685Y0211638D01*
X0359691Y0211480D01*
X0359693Y0211322D01*
X0359691Y0211164D01*
X0359685Y0211006D01*
X0359675Y0210848D01*
X0359661Y0210690D01*
X0359643Y0210533D01*
X0359622Y0210376D01*
X0359596Y0210220D01*
X0359566Y0210064D01*
X0359533Y0209909D01*
X0359495Y0209756D01*
X0359454Y0209603D01*
X0359409Y0209451D01*
X0359360Y0209300D01*
X0359307Y0209151D01*
X0359251Y0209003D01*
X0359191Y0208857D01*
X0359127Y0208712D01*
X0359059Y0208569D01*
X0358988Y0208427D01*
X0358914Y0208287D01*
X0358836Y0208150D01*
X0358754Y0208014D01*
X0358670Y0207880D01*
X0358581Y0207749D01*
X0358490Y0207620D01*
X0358395Y0207493D01*
X0358298Y0207368D01*
X0358197Y0207246D01*
X0358093Y0207127D01*
X0357986Y0207010D01*
X0357876Y0206896D01*
X0357763Y0206785D01*
X0357648Y0206676D01*
X0357530Y0206571D01*
X0357409Y0206469D01*
X0357286Y0206369D01*
X0357160Y0206273D01*
X0357032Y0206180D01*
X0356902Y0206090D01*
X0356769Y0206004D01*
X0356634Y0205920D01*
X0356498Y0205841D01*
X0356359Y0205764D01*
X0356218Y0205692D01*
X0356076Y0205622D01*
X0355932Y0205557D01*
X0355786Y0205495D01*
X0355639Y0205437D01*
X0355490Y0205382D01*
X0355340Y0205331D01*
X0355189Y0205284D01*
X0355037Y0205241D01*
X0354884Y0205202D01*
X0354729Y0205166D01*
X0354574Y0205135D01*
X0354418Y0205107D01*
X0354262Y0205083D01*
X0354105Y0205063D01*
X0353947Y0205047D01*
X0353790Y0205035D01*
X0353631Y0205027D01*
X0353473Y0205023D01*
X0353315Y0205023D01*
X0353157Y0205027D01*
X0352998Y0205035D01*
X0352841Y0205047D01*
X0352683Y0205063D01*
X0352526Y0205083D01*
X0352370Y0205107D01*
X0352214Y0205135D01*
X0352059Y0205166D01*
X0351904Y0205202D01*
X0351751Y0205241D01*
X0351599Y0205284D01*
X0351448Y0205331D01*
X0351298Y0205382D01*
X0351149Y0205437D01*
X0351002Y0205495D01*
X0350856Y0205557D01*
X0350712Y0205622D01*
X0350570Y0205692D01*
X0350429Y0205764D01*
X0350290Y0205841D01*
X0350154Y0205920D01*
X0350019Y0206004D01*
X0349886Y0206090D01*
X0349756Y0206180D01*
X0349628Y0206273D01*
X0349502Y0206369D01*
X0349379Y0206469D01*
X0349258Y0206571D01*
X0349140Y0206676D01*
X0349025Y0206785D01*
X0348912Y0206896D01*
X0348802Y0207010D01*
X0348695Y0207127D01*
X0348591Y0207246D01*
X0348490Y0207368D01*
X0348393Y0207493D01*
X0348298Y0207620D01*
X0348207Y0207749D01*
X0348118Y0207880D01*
X0348034Y0208014D01*
X0347952Y0208150D01*
X0347874Y0208287D01*
X0347800Y0208427D01*
X0347729Y0208569D01*
X0347661Y0208712D01*
X0347597Y0208857D01*
X0347537Y0209003D01*
X0347481Y0209151D01*
X0347428Y0209300D01*
X0347379Y0209451D01*
X0347334Y0209603D01*
X0347293Y0209756D01*
X0347255Y0209909D01*
X0347222Y0210064D01*
X0347192Y0210220D01*
X0347166Y0210376D01*
X0347145Y0210533D01*
X0347127Y0210690D01*
X0347113Y0210848D01*
X0347103Y0211006D01*
X0347097Y0211164D01*
X0347095Y0211322D01*
X0353394Y0227070D02*
X0353775Y0227065D01*
X0354155Y0227052D01*
X0354535Y0227029D01*
X0354914Y0226996D01*
X0355292Y0226955D01*
X0355669Y0226905D01*
X0356045Y0226845D01*
X0356420Y0226777D01*
X0356792Y0226699D01*
X0357163Y0226612D01*
X0357531Y0226517D01*
X0357897Y0226412D01*
X0358260Y0226299D01*
X0358621Y0226177D01*
X0358978Y0226047D01*
X0359332Y0225907D01*
X0359683Y0225760D01*
X0360030Y0225603D01*
X0360373Y0225439D01*
X0360712Y0225266D01*
X0361047Y0225085D01*
X0361378Y0224896D01*
X0361703Y0224699D01*
X0362024Y0224495D01*
X0362340Y0224282D01*
X0362650Y0224062D01*
X0362956Y0223835D01*
X0363255Y0223600D01*
X0363549Y0223358D01*
X0363837Y0223110D01*
X0364119Y0222854D01*
X0364394Y0222591D01*
X0364663Y0222322D01*
X0364926Y0222047D01*
X0365182Y0221765D01*
X0365430Y0221477D01*
X0365672Y0221183D01*
X0365907Y0220884D01*
X0366134Y0220578D01*
X0366354Y0220268D01*
X0366567Y0219952D01*
X0366771Y0219631D01*
X0366968Y0219306D01*
X0367157Y0218975D01*
X0367338Y0218640D01*
X0367511Y0218301D01*
X0367675Y0217958D01*
X0367832Y0217611D01*
X0367979Y0217260D01*
X0368119Y0216906D01*
X0368249Y0216549D01*
X0368371Y0216188D01*
X0368484Y0215825D01*
X0368589Y0215459D01*
X0368684Y0215091D01*
X0368771Y0214720D01*
X0368849Y0214348D01*
X0368917Y0213973D01*
X0368977Y0213597D01*
X0369027Y0213220D01*
X0369068Y0212842D01*
X0369101Y0212463D01*
X0369124Y0212083D01*
X0369137Y0211703D01*
X0369142Y0211322D01*
X0369142Y0049904D01*
X0347095Y0049904D02*
X0347097Y0050062D01*
X0347103Y0050220D01*
X0347113Y0050378D01*
X0347127Y0050536D01*
X0347145Y0050693D01*
X0347166Y0050850D01*
X0347192Y0051006D01*
X0347222Y0051162D01*
X0347255Y0051317D01*
X0347293Y0051470D01*
X0347334Y0051623D01*
X0347379Y0051775D01*
X0347428Y0051926D01*
X0347481Y0052075D01*
X0347537Y0052223D01*
X0347597Y0052369D01*
X0347661Y0052514D01*
X0347729Y0052657D01*
X0347800Y0052799D01*
X0347874Y0052939D01*
X0347952Y0053076D01*
X0348034Y0053212D01*
X0348118Y0053346D01*
X0348207Y0053477D01*
X0348298Y0053606D01*
X0348393Y0053733D01*
X0348490Y0053858D01*
X0348591Y0053980D01*
X0348695Y0054099D01*
X0348802Y0054216D01*
X0348912Y0054330D01*
X0349025Y0054441D01*
X0349140Y0054550D01*
X0349258Y0054655D01*
X0349379Y0054757D01*
X0349502Y0054857D01*
X0349628Y0054953D01*
X0349756Y0055046D01*
X0349886Y0055136D01*
X0350019Y0055222D01*
X0350154Y0055306D01*
X0350290Y0055385D01*
X0350429Y0055462D01*
X0350570Y0055534D01*
X0350712Y0055604D01*
X0350856Y0055669D01*
X0351002Y0055731D01*
X0351149Y0055789D01*
X0351298Y0055844D01*
X0351448Y0055895D01*
X0351599Y0055942D01*
X0351751Y0055985D01*
X0351904Y0056024D01*
X0352059Y0056060D01*
X0352214Y0056091D01*
X0352370Y0056119D01*
X0352526Y0056143D01*
X0352683Y0056163D01*
X0352841Y0056179D01*
X0352998Y0056191D01*
X0353157Y0056199D01*
X0353315Y0056203D01*
X0353473Y0056203D01*
X0353631Y0056199D01*
X0353790Y0056191D01*
X0353947Y0056179D01*
X0354105Y0056163D01*
X0354262Y0056143D01*
X0354418Y0056119D01*
X0354574Y0056091D01*
X0354729Y0056060D01*
X0354884Y0056024D01*
X0355037Y0055985D01*
X0355189Y0055942D01*
X0355340Y0055895D01*
X0355490Y0055844D01*
X0355639Y0055789D01*
X0355786Y0055731D01*
X0355932Y0055669D01*
X0356076Y0055604D01*
X0356218Y0055534D01*
X0356359Y0055462D01*
X0356498Y0055385D01*
X0356634Y0055306D01*
X0356769Y0055222D01*
X0356902Y0055136D01*
X0357032Y0055046D01*
X0357160Y0054953D01*
X0357286Y0054857D01*
X0357409Y0054757D01*
X0357530Y0054655D01*
X0357648Y0054550D01*
X0357763Y0054441D01*
X0357876Y0054330D01*
X0357986Y0054216D01*
X0358093Y0054099D01*
X0358197Y0053980D01*
X0358298Y0053858D01*
X0358395Y0053733D01*
X0358490Y0053606D01*
X0358581Y0053477D01*
X0358670Y0053346D01*
X0358754Y0053212D01*
X0358836Y0053076D01*
X0358914Y0052939D01*
X0358988Y0052799D01*
X0359059Y0052657D01*
X0359127Y0052514D01*
X0359191Y0052369D01*
X0359251Y0052223D01*
X0359307Y0052075D01*
X0359360Y0051926D01*
X0359409Y0051775D01*
X0359454Y0051623D01*
X0359495Y0051470D01*
X0359533Y0051317D01*
X0359566Y0051162D01*
X0359596Y0051006D01*
X0359622Y0050850D01*
X0359643Y0050693D01*
X0359661Y0050536D01*
X0359675Y0050378D01*
X0359685Y0050220D01*
X0359691Y0050062D01*
X0359693Y0049904D01*
X0359691Y0049746D01*
X0359685Y0049588D01*
X0359675Y0049430D01*
X0359661Y0049272D01*
X0359643Y0049115D01*
X0359622Y0048958D01*
X0359596Y0048802D01*
X0359566Y0048646D01*
X0359533Y0048491D01*
X0359495Y0048338D01*
X0359454Y0048185D01*
X0359409Y0048033D01*
X0359360Y0047882D01*
X0359307Y0047733D01*
X0359251Y0047585D01*
X0359191Y0047439D01*
X0359127Y0047294D01*
X0359059Y0047151D01*
X0358988Y0047009D01*
X0358914Y0046869D01*
X0358836Y0046732D01*
X0358754Y0046596D01*
X0358670Y0046462D01*
X0358581Y0046331D01*
X0358490Y0046202D01*
X0358395Y0046075D01*
X0358298Y0045950D01*
X0358197Y0045828D01*
X0358093Y0045709D01*
X0357986Y0045592D01*
X0357876Y0045478D01*
X0357763Y0045367D01*
X0357648Y0045258D01*
X0357530Y0045153D01*
X0357409Y0045051D01*
X0357286Y0044951D01*
X0357160Y0044855D01*
X0357032Y0044762D01*
X0356902Y0044672D01*
X0356769Y0044586D01*
X0356634Y0044502D01*
X0356498Y0044423D01*
X0356359Y0044346D01*
X0356218Y0044274D01*
X0356076Y0044204D01*
X0355932Y0044139D01*
X0355786Y0044077D01*
X0355639Y0044019D01*
X0355490Y0043964D01*
X0355340Y0043913D01*
X0355189Y0043866D01*
X0355037Y0043823D01*
X0354884Y0043784D01*
X0354729Y0043748D01*
X0354574Y0043717D01*
X0354418Y0043689D01*
X0354262Y0043665D01*
X0354105Y0043645D01*
X0353947Y0043629D01*
X0353790Y0043617D01*
X0353631Y0043609D01*
X0353473Y0043605D01*
X0353315Y0043605D01*
X0353157Y0043609D01*
X0352998Y0043617D01*
X0352841Y0043629D01*
X0352683Y0043645D01*
X0352526Y0043665D01*
X0352370Y0043689D01*
X0352214Y0043717D01*
X0352059Y0043748D01*
X0351904Y0043784D01*
X0351751Y0043823D01*
X0351599Y0043866D01*
X0351448Y0043913D01*
X0351298Y0043964D01*
X0351149Y0044019D01*
X0351002Y0044077D01*
X0350856Y0044139D01*
X0350712Y0044204D01*
X0350570Y0044274D01*
X0350429Y0044346D01*
X0350290Y0044423D01*
X0350154Y0044502D01*
X0350019Y0044586D01*
X0349886Y0044672D01*
X0349756Y0044762D01*
X0349628Y0044855D01*
X0349502Y0044951D01*
X0349379Y0045051D01*
X0349258Y0045153D01*
X0349140Y0045258D01*
X0349025Y0045367D01*
X0348912Y0045478D01*
X0348802Y0045592D01*
X0348695Y0045709D01*
X0348591Y0045828D01*
X0348490Y0045950D01*
X0348393Y0046075D01*
X0348298Y0046202D01*
X0348207Y0046331D01*
X0348118Y0046462D01*
X0348034Y0046596D01*
X0347952Y0046732D01*
X0347874Y0046869D01*
X0347800Y0047009D01*
X0347729Y0047151D01*
X0347661Y0047294D01*
X0347597Y0047439D01*
X0347537Y0047585D01*
X0347481Y0047733D01*
X0347428Y0047882D01*
X0347379Y0048033D01*
X0347334Y0048185D01*
X0347293Y0048338D01*
X0347255Y0048491D01*
X0347222Y0048646D01*
X0347192Y0048802D01*
X0347166Y0048958D01*
X0347145Y0049115D01*
X0347127Y0049272D01*
X0347113Y0049430D01*
X0347103Y0049588D01*
X0347097Y0049746D01*
X0347095Y0049904D01*
X0353394Y0034156D02*
X0353775Y0034161D01*
X0354155Y0034174D01*
X0354535Y0034197D01*
X0354914Y0034230D01*
X0355292Y0034271D01*
X0355669Y0034321D01*
X0356045Y0034381D01*
X0356420Y0034449D01*
X0356792Y0034527D01*
X0357163Y0034614D01*
X0357531Y0034709D01*
X0357897Y0034814D01*
X0358260Y0034927D01*
X0358621Y0035049D01*
X0358978Y0035179D01*
X0359332Y0035319D01*
X0359683Y0035466D01*
X0360030Y0035623D01*
X0360373Y0035787D01*
X0360712Y0035960D01*
X0361047Y0036141D01*
X0361378Y0036330D01*
X0361703Y0036527D01*
X0362024Y0036731D01*
X0362340Y0036944D01*
X0362650Y0037164D01*
X0362956Y0037391D01*
X0363255Y0037626D01*
X0363549Y0037868D01*
X0363837Y0038116D01*
X0364119Y0038372D01*
X0364394Y0038635D01*
X0364663Y0038904D01*
X0364926Y0039179D01*
X0365182Y0039461D01*
X0365430Y0039749D01*
X0365672Y0040043D01*
X0365907Y0040342D01*
X0366134Y0040648D01*
X0366354Y0040958D01*
X0366567Y0041274D01*
X0366771Y0041595D01*
X0366968Y0041920D01*
X0367157Y0042251D01*
X0367338Y0042586D01*
X0367511Y0042925D01*
X0367675Y0043268D01*
X0367832Y0043615D01*
X0367979Y0043966D01*
X0368119Y0044320D01*
X0368249Y0044677D01*
X0368371Y0045038D01*
X0368484Y0045401D01*
X0368589Y0045767D01*
X0368684Y0046135D01*
X0368771Y0046506D01*
X0368849Y0046878D01*
X0368917Y0047253D01*
X0368977Y0047629D01*
X0369027Y0048006D01*
X0369068Y0048384D01*
X0369101Y0048763D01*
X0369124Y0049143D01*
X0369137Y0049523D01*
X0369142Y0049904D01*
X0094212Y0077392D02*
X0094214Y0077480D01*
X0094220Y0077568D01*
X0094230Y0077656D01*
X0094244Y0077744D01*
X0094261Y0077830D01*
X0094283Y0077916D01*
X0094308Y0078000D01*
X0094338Y0078084D01*
X0094370Y0078166D01*
X0094407Y0078246D01*
X0094447Y0078325D01*
X0094491Y0078402D01*
X0094538Y0078477D01*
X0094588Y0078549D01*
X0094642Y0078620D01*
X0094698Y0078687D01*
X0094758Y0078753D01*
X0094820Y0078815D01*
X0094886Y0078875D01*
X0094953Y0078931D01*
X0095024Y0078985D01*
X0095096Y0079035D01*
X0095171Y0079082D01*
X0095248Y0079126D01*
X0095327Y0079166D01*
X0095407Y0079203D01*
X0095489Y0079235D01*
X0095573Y0079265D01*
X0095657Y0079290D01*
X0095743Y0079312D01*
X0095829Y0079329D01*
X0095917Y0079343D01*
X0096005Y0079353D01*
X0096093Y0079359D01*
X0096181Y0079361D01*
X0096269Y0079359D01*
X0096357Y0079353D01*
X0096445Y0079343D01*
X0096533Y0079329D01*
X0096619Y0079312D01*
X0096705Y0079290D01*
X0096789Y0079265D01*
X0096873Y0079235D01*
X0096955Y0079203D01*
X0097035Y0079166D01*
X0097114Y0079126D01*
X0097191Y0079082D01*
X0097266Y0079035D01*
X0097338Y0078985D01*
X0097409Y0078931D01*
X0097476Y0078875D01*
X0097542Y0078815D01*
X0097604Y0078753D01*
X0097664Y0078687D01*
X0097720Y0078620D01*
X0097774Y0078549D01*
X0097824Y0078477D01*
X0097871Y0078402D01*
X0097915Y0078325D01*
X0097955Y0078246D01*
X0097992Y0078166D01*
X0098024Y0078084D01*
X0098054Y0078000D01*
X0098079Y0077916D01*
X0098101Y0077830D01*
X0098118Y0077744D01*
X0098132Y0077656D01*
X0098142Y0077568D01*
X0098148Y0077480D01*
X0098150Y0077392D01*
X0098148Y0077304D01*
X0098142Y0077216D01*
X0098132Y0077128D01*
X0098118Y0077040D01*
X0098101Y0076954D01*
X0098079Y0076868D01*
X0098054Y0076784D01*
X0098024Y0076700D01*
X0097992Y0076618D01*
X0097955Y0076538D01*
X0097915Y0076459D01*
X0097871Y0076382D01*
X0097824Y0076307D01*
X0097774Y0076235D01*
X0097720Y0076164D01*
X0097664Y0076097D01*
X0097604Y0076031D01*
X0097542Y0075969D01*
X0097476Y0075909D01*
X0097409Y0075853D01*
X0097338Y0075799D01*
X0097266Y0075749D01*
X0097191Y0075702D01*
X0097114Y0075658D01*
X0097035Y0075618D01*
X0096955Y0075581D01*
X0096873Y0075549D01*
X0096789Y0075519D01*
X0096705Y0075494D01*
X0096619Y0075472D01*
X0096533Y0075455D01*
X0096445Y0075441D01*
X0096357Y0075431D01*
X0096269Y0075425D01*
X0096181Y0075423D01*
X0096093Y0075425D01*
X0096005Y0075431D01*
X0095917Y0075441D01*
X0095829Y0075455D01*
X0095743Y0075472D01*
X0095657Y0075494D01*
X0095573Y0075519D01*
X0095489Y0075549D01*
X0095407Y0075581D01*
X0095327Y0075618D01*
X0095248Y0075658D01*
X0095171Y0075702D01*
X0095096Y0075749D01*
X0095024Y0075799D01*
X0094953Y0075853D01*
X0094886Y0075909D01*
X0094820Y0075969D01*
X0094758Y0076031D01*
X0094698Y0076097D01*
X0094642Y0076164D01*
X0094588Y0076235D01*
X0094538Y0076307D01*
X0094491Y0076382D01*
X0094447Y0076459D01*
X0094407Y0076538D01*
X0094370Y0076618D01*
X0094338Y0076700D01*
X0094308Y0076784D01*
X0094283Y0076868D01*
X0094261Y0076954D01*
X0094244Y0077040D01*
X0094230Y0077128D01*
X0094220Y0077216D01*
X0094214Y0077304D01*
X0094212Y0077392D01*
X0094212Y0106920D02*
X0094214Y0107008D01*
X0094220Y0107096D01*
X0094230Y0107184D01*
X0094244Y0107272D01*
X0094261Y0107358D01*
X0094283Y0107444D01*
X0094308Y0107528D01*
X0094338Y0107612D01*
X0094370Y0107694D01*
X0094407Y0107774D01*
X0094447Y0107853D01*
X0094491Y0107930D01*
X0094538Y0108005D01*
X0094588Y0108077D01*
X0094642Y0108148D01*
X0094698Y0108215D01*
X0094758Y0108281D01*
X0094820Y0108343D01*
X0094886Y0108403D01*
X0094953Y0108459D01*
X0095024Y0108513D01*
X0095096Y0108563D01*
X0095171Y0108610D01*
X0095248Y0108654D01*
X0095327Y0108694D01*
X0095407Y0108731D01*
X0095489Y0108763D01*
X0095573Y0108793D01*
X0095657Y0108818D01*
X0095743Y0108840D01*
X0095829Y0108857D01*
X0095917Y0108871D01*
X0096005Y0108881D01*
X0096093Y0108887D01*
X0096181Y0108889D01*
X0096269Y0108887D01*
X0096357Y0108881D01*
X0096445Y0108871D01*
X0096533Y0108857D01*
X0096619Y0108840D01*
X0096705Y0108818D01*
X0096789Y0108793D01*
X0096873Y0108763D01*
X0096955Y0108731D01*
X0097035Y0108694D01*
X0097114Y0108654D01*
X0097191Y0108610D01*
X0097266Y0108563D01*
X0097338Y0108513D01*
X0097409Y0108459D01*
X0097476Y0108403D01*
X0097542Y0108343D01*
X0097604Y0108281D01*
X0097664Y0108215D01*
X0097720Y0108148D01*
X0097774Y0108077D01*
X0097824Y0108005D01*
X0097871Y0107930D01*
X0097915Y0107853D01*
X0097955Y0107774D01*
X0097992Y0107694D01*
X0098024Y0107612D01*
X0098054Y0107528D01*
X0098079Y0107444D01*
X0098101Y0107358D01*
X0098118Y0107272D01*
X0098132Y0107184D01*
X0098142Y0107096D01*
X0098148Y0107008D01*
X0098150Y0106920D01*
X0098148Y0106832D01*
X0098142Y0106744D01*
X0098132Y0106656D01*
X0098118Y0106568D01*
X0098101Y0106482D01*
X0098079Y0106396D01*
X0098054Y0106312D01*
X0098024Y0106228D01*
X0097992Y0106146D01*
X0097955Y0106066D01*
X0097915Y0105987D01*
X0097871Y0105910D01*
X0097824Y0105835D01*
X0097774Y0105763D01*
X0097720Y0105692D01*
X0097664Y0105625D01*
X0097604Y0105559D01*
X0097542Y0105497D01*
X0097476Y0105437D01*
X0097409Y0105381D01*
X0097338Y0105327D01*
X0097266Y0105277D01*
X0097191Y0105230D01*
X0097114Y0105186D01*
X0097035Y0105146D01*
X0096955Y0105109D01*
X0096873Y0105077D01*
X0096789Y0105047D01*
X0096705Y0105022D01*
X0096619Y0105000D01*
X0096533Y0104983D01*
X0096445Y0104969D01*
X0096357Y0104959D01*
X0096269Y0104953D01*
X0096181Y0104951D01*
X0096093Y0104953D01*
X0096005Y0104959D01*
X0095917Y0104969D01*
X0095829Y0104983D01*
X0095743Y0105000D01*
X0095657Y0105022D01*
X0095573Y0105047D01*
X0095489Y0105077D01*
X0095407Y0105109D01*
X0095327Y0105146D01*
X0095248Y0105186D01*
X0095171Y0105230D01*
X0095096Y0105277D01*
X0095024Y0105327D01*
X0094953Y0105381D01*
X0094886Y0105437D01*
X0094820Y0105497D01*
X0094758Y0105559D01*
X0094698Y0105625D01*
X0094642Y0105692D01*
X0094588Y0105763D01*
X0094538Y0105835D01*
X0094491Y0105910D01*
X0094447Y0105987D01*
X0094407Y0106066D01*
X0094370Y0106146D01*
X0094338Y0106228D01*
X0094308Y0106312D01*
X0094283Y0106396D01*
X0094261Y0106482D01*
X0094244Y0106568D01*
X0094230Y0106656D01*
X0094220Y0106744D01*
X0094214Y0106832D01*
X0094212Y0106920D01*
D22*
X0083681Y0106706D03*
X0079981Y0114606D03*
X0087381Y0114606D03*
X0124981Y0114606D03*
X0132381Y0114606D03*
X0128681Y0106706D03*
D23*
X0131172Y0108056D02*
X0134281Y0108056D01*
X0134281Y0111386D01*
X0134281Y0113256D02*
X0134281Y0108056D01*
X0123081Y0108056D01*
X0126092Y0108056D01*
X0123081Y0108056D02*
X0123081Y0111386D01*
X0123081Y0113256D02*
X0123081Y0108056D01*
X0123081Y0113256D02*
X0134281Y0113256D01*
X0147780Y0110857D02*
X0147780Y0107455D01*
X0150583Y0107455D02*
X0150583Y0110857D01*
X0167780Y0110857D02*
X0167780Y0107455D01*
X0170583Y0107455D02*
X0170583Y0110857D01*
X0202780Y0110857D02*
X0202780Y0107455D01*
X0205583Y0107455D02*
X0205583Y0110857D01*
X0222780Y0110857D02*
X0222780Y0107455D01*
X0225583Y0107455D02*
X0225583Y0110857D01*
X0257780Y0110857D02*
X0257780Y0107455D01*
X0260583Y0107455D02*
X0260583Y0110857D01*
X0277780Y0110857D02*
X0277780Y0107455D01*
X0280583Y0107455D02*
X0280583Y0110857D01*
X0312780Y0110857D02*
X0312780Y0107455D01*
X0315583Y0107455D02*
X0315583Y0110857D01*
X0332780Y0110857D02*
X0332780Y0107455D01*
X0335583Y0107455D02*
X0335583Y0110857D01*
X0284583Y0146455D02*
X0284583Y0149857D01*
X0281780Y0149857D02*
X0281780Y0146455D01*
X0273083Y0146455D02*
X0273083Y0149857D01*
X0270280Y0149857D02*
X0270280Y0146455D01*
X0253083Y0146455D02*
X0253083Y0149857D01*
X0250280Y0149857D02*
X0250280Y0146455D01*
X0243083Y0146455D02*
X0243083Y0149857D01*
X0240280Y0149857D02*
X0240280Y0146455D01*
X0233083Y0146455D02*
X0233083Y0149857D01*
X0230280Y0149857D02*
X0230280Y0146455D01*
X0223083Y0146455D02*
X0223083Y0149857D01*
X0220280Y0149857D02*
X0220280Y0146455D01*
X0209882Y0145255D02*
X0206480Y0145255D01*
X0206480Y0148058D02*
X0209882Y0148058D01*
X0185516Y0153822D02*
X0185516Y0156282D01*
X0185516Y0153822D02*
X0183055Y0153822D01*
X0167307Y0153822D02*
X0164846Y0153822D01*
X0164846Y0156282D01*
X0153882Y0155558D02*
X0150480Y0155558D01*
X0150480Y0152755D02*
X0153882Y0152755D01*
X0164846Y0172030D02*
X0164846Y0172991D01*
X0166346Y0174491D01*
X0167307Y0174491D01*
X0183055Y0174491D02*
X0185516Y0174491D01*
X0185516Y0172030D01*
X0230280Y0178455D02*
X0230280Y0181857D01*
X0233083Y0181857D02*
X0233083Y0178455D01*
X0240280Y0178455D02*
X0240280Y0181857D01*
X0243083Y0181857D02*
X0243083Y0178455D01*
X0130083Y0090357D02*
X0130083Y0086955D01*
X0127280Y0086955D02*
X0127280Y0090357D01*
X0098382Y0120255D02*
X0094980Y0120255D01*
X0094980Y0123058D02*
X0098382Y0123058D01*
X0076083Y0090357D02*
X0076083Y0086955D01*
X0073280Y0086955D02*
X0073280Y0090357D01*
D24*
X0074681Y0091156D03*
X0074681Y0086156D03*
X0128681Y0086156D03*
X0128681Y0091156D03*
X0149181Y0106656D03*
X0149181Y0111656D03*
X0169181Y0111656D03*
X0169181Y0106656D03*
X0204181Y0106656D03*
X0204181Y0111656D03*
X0224181Y0111656D03*
X0224181Y0106656D03*
X0259181Y0106656D03*
X0259181Y0111656D03*
X0279181Y0111656D03*
X0279181Y0106656D03*
X0314181Y0106656D03*
X0314181Y0111656D03*
X0334181Y0111656D03*
X0334181Y0106656D03*
X0283181Y0145656D03*
X0283181Y0150656D03*
X0271681Y0150656D03*
X0271681Y0145656D03*
X0251681Y0145656D03*
X0251681Y0150656D03*
X0241681Y0150656D03*
X0241681Y0145656D03*
X0231681Y0145656D03*
X0231681Y0150656D03*
X0221681Y0150656D03*
X0221681Y0145656D03*
X0231681Y0177656D03*
X0231681Y0182656D03*
X0241681Y0182656D03*
X0241681Y0177656D03*
D25*
X0210681Y0146656D03*
X0205681Y0146656D03*
X0154681Y0154156D03*
X0149681Y0154156D03*
X0099181Y0121656D03*
X0094181Y0121656D03*
D26*
X0166150Y0176140D03*
D27*
X0107894Y0156597D03*
D28*
X0105335Y0156597D03*
X0105335Y0159156D03*
X0105335Y0161715D03*
X0112028Y0161715D03*
X0112028Y0159156D03*
X0112028Y0156597D03*
M02*
