%
M48
M72
T01C0.01969
T02C0.03150
T03C0.03937
T04C0.04331
T05C0.07087
T06C0.12598
%
T01
X143181Y107156
X132181Y121156
X122681Y126656
X111681Y130156
X105181Y121656
X94181Y130156
X100681Y142156
X116681Y146156
X100681Y155656
X100681Y160656
X115681Y167656
X119181Y172156
X104681Y178656
X91181Y200156
X122681Y204656
X155181Y177156
X143681Y172156
X168681Y184156
X170681Y189656
X180181Y195656
X186181Y184156
X206681Y157156
X195681Y152156
X186681Y144156
X181681Y132656
X172181Y128156
X165181Y132656
X160181Y144156
X176181Y116156
X198181Y107156
X231181Y116156
X253181Y107156
X286181Y116156
X308181Y107156
X341181Y116156
X283181Y139656
X283181Y156656
X231681Y156656
X283181Y198156
X318181Y194656
X119681Y115156
T02
X87102Y148408
X77260Y148408
X77260Y156282
X87102Y156282
X87102Y164156
X77260Y164156
X77260Y172030
X87102Y172030
X87102Y179904
X77260Y179904
T03
X96181Y106920
X86339Y92156
X96181Y77392
X106024Y92156
T04
X211681Y134156
X221681Y134156
X231681Y134156
X241681Y134156
X251681Y134156
X261681Y134156
X271681Y134156
X261681Y194156
X251681Y194156
X241681Y194156
X231681Y194156
X221681Y194156
T05
X82181Y191715
X82181Y136597
T06
X69929Y49904
X69929Y211322
X353394Y211322
X353394Y49904
M30
