G75*
%MOIN*%
%OFA0B0*%
%FSLAX25Y25*%
%IPPOS*%
%LPD*%
%AMOC8*
5,1,8,0,0,1.08239X$1,22.5*
%
%ADD10C,0.07531*%
%ADD11C,0.13398*%
%ADD12OC8,0.07137*%
%ADD13C,0.04737*%
%ADD14R,0.06902X0.05918*%
%ADD15OC8,0.11430*%
%ADD16OC8,0.06350*%
D10*
X0211681Y0130791D02*
X0211681Y0137522D01*
X0221681Y0137522D02*
X0221681Y0130791D01*
X0231681Y0130791D02*
X0231681Y0137522D01*
X0241681Y0137522D02*
X0241681Y0130791D01*
X0251681Y0130791D02*
X0251681Y0137522D01*
X0261681Y0137522D02*
X0261681Y0130791D01*
X0271681Y0130791D02*
X0271681Y0137522D01*
X0261681Y0190791D02*
X0261681Y0197522D01*
X0251681Y0197522D02*
X0251681Y0190791D01*
X0241681Y0190791D02*
X0241681Y0197522D01*
X0231681Y0197522D02*
X0231681Y0190791D01*
X0221681Y0190791D02*
X0221681Y0197522D01*
D11*
X0069929Y0049904D03*
X0069929Y0211322D03*
X0353394Y0211322D03*
X0353394Y0049904D03*
D12*
X0106024Y0092156D03*
X0086339Y0092156D03*
D13*
X0096181Y0077392D03*
X0096181Y0106920D03*
D14*
X0143531Y0101014D03*
X0143531Y0083298D03*
X0174831Y0083298D03*
X0198531Y0083298D03*
X0198531Y0101014D03*
X0174831Y0101014D03*
X0229831Y0101014D03*
X0253531Y0101014D03*
X0253531Y0083298D03*
X0229831Y0083298D03*
X0284831Y0083298D03*
X0308531Y0083298D03*
X0308531Y0101014D03*
X0284831Y0101014D03*
X0339831Y0101014D03*
X0339831Y0083298D03*
D15*
X0082181Y0136597D03*
X0082181Y0191715D03*
D16*
X0077260Y0179904D03*
X0087102Y0179904D03*
X0087102Y0172030D03*
X0077260Y0172030D03*
X0077260Y0164156D03*
X0087102Y0164156D03*
X0087102Y0156282D03*
X0077260Y0156282D03*
X0077260Y0148408D03*
X0087102Y0148408D03*
M02*
