G75*
%MOIN*%
%OFA0B0*%
%FSLAX25Y25*%
%IPPOS*%
%LPD*%
%AMOC8*
5,1,8,0,0,1.08239X$1,22.5*
%
%ADD10R,0.05918X0.06706*%
%ADD11R,0.05131X0.04737*%
%ADD12R,0.04737X0.05131*%
%ADD13C,0.07531*%
%ADD14R,0.31800X0.10800*%
%ADD15R,0.11824X0.05918*%
%ADD16R,0.10643X0.04146*%
%ADD17C,0.13398*%
%ADD18R,0.04737X0.06312*%
%ADD19OC8,0.07137*%
%ADD20C,0.04737*%
%ADD21C,0.00380*%
%ADD22C,0.01430*%
%ADD23R,0.05918X0.11036*%
%ADD24R,0.03950X0.02178*%
%ADD25OC8,0.11430*%
%ADD26OC8,0.06350*%
D10*
X0104441Y0136156D03*
X0111921Y0136156D03*
D11*
X0111528Y0146156D03*
X0104835Y0146156D03*
X0104835Y0172156D03*
X0111528Y0172156D03*
X0148835Y0172156D03*
X0155528Y0172156D03*
X0194835Y0157156D03*
X0201528Y0157156D03*
X0221681Y0151503D03*
X0221681Y0144810D03*
X0231681Y0144810D03*
X0231681Y0151503D03*
X0241681Y0151503D03*
X0241681Y0144810D03*
X0251681Y0144810D03*
X0251681Y0151503D03*
X0271681Y0151503D03*
X0271681Y0144810D03*
X0283181Y0144810D03*
X0283181Y0151503D03*
X0241681Y0176810D03*
X0231681Y0176810D03*
X0231681Y0183503D03*
X0241681Y0183503D03*
X0129528Y0211156D03*
X0122835Y0211156D03*
X0149181Y0112503D03*
X0149181Y0105810D03*
X0169181Y0105810D03*
X0169181Y0112503D03*
X0204181Y0112503D03*
X0204181Y0105810D03*
X0224181Y0105810D03*
X0224181Y0112503D03*
X0259181Y0112503D03*
X0259181Y0105810D03*
X0279181Y0105810D03*
X0279181Y0112503D03*
X0314181Y0112503D03*
X0314181Y0105810D03*
X0334181Y0105810D03*
X0334181Y0112503D03*
X0128681Y0092003D03*
X0128681Y0085310D03*
X0074681Y0085310D03*
X0074681Y0092003D03*
D12*
X0093335Y0121656D03*
X0100028Y0121656D03*
X0148835Y0154156D03*
X0155528Y0154156D03*
X0165181Y0144503D03*
X0165181Y0137810D03*
X0181681Y0137810D03*
X0181681Y0144503D03*
X0204835Y0146656D03*
X0211528Y0146656D03*
X0214181Y0112503D03*
X0214181Y0105810D03*
X0268181Y0105810D03*
X0268181Y0112503D03*
X0324181Y0112503D03*
X0324181Y0105810D03*
X0181181Y0183810D03*
X0181181Y0190503D03*
X0159181Y0112503D03*
X0159181Y0105810D03*
D13*
X0211681Y0130791D02*
X0211681Y0137522D01*
X0221681Y0137522D02*
X0221681Y0130791D01*
X0231681Y0130791D02*
X0231681Y0137522D01*
X0241681Y0137522D02*
X0241681Y0130791D01*
X0251681Y0130791D02*
X0251681Y0137522D01*
X0261681Y0137522D02*
X0261681Y0130791D01*
X0271681Y0130791D02*
X0271681Y0137522D01*
X0261681Y0190791D02*
X0261681Y0197522D01*
X0251681Y0197522D02*
X0251681Y0190791D01*
X0241681Y0190791D02*
X0241681Y0197522D01*
X0231681Y0197522D02*
X0231681Y0190791D01*
X0221681Y0190791D02*
X0221681Y0197522D01*
D14*
X0134681Y0070156D03*
X0344681Y0070156D03*
D15*
X0318181Y0139156D03*
X0318181Y0149156D03*
X0318181Y0159156D03*
X0318181Y0169156D03*
X0318181Y0179156D03*
X0318181Y0189156D03*
D16*
X0122181Y0162979D03*
X0122181Y0153333D03*
D17*
X0069929Y0049904D03*
X0069929Y0211322D03*
X0353394Y0211322D03*
X0353394Y0049904D03*
D18*
X0132421Y0114987D03*
X0124941Y0114987D03*
X0128681Y0106325D03*
X0087421Y0114987D03*
X0079941Y0114987D03*
X0083681Y0106325D03*
D19*
X0086339Y0092156D03*
X0106024Y0092156D03*
D20*
X0096181Y0077392D03*
X0096181Y0106920D03*
D21*
X0169051Y0151717D02*
X0169051Y0156123D01*
X0169051Y0151717D02*
X0167531Y0151717D01*
X0167531Y0156123D01*
X0169051Y0156123D01*
X0169051Y0152096D02*
X0167531Y0152096D01*
X0167531Y0152475D02*
X0169051Y0152475D01*
X0169051Y0152854D02*
X0167531Y0152854D01*
X0167531Y0153233D02*
X0169051Y0153233D01*
X0169051Y0153612D02*
X0167531Y0153612D01*
X0167531Y0153991D02*
X0169051Y0153991D01*
X0169051Y0154370D02*
X0167531Y0154370D01*
X0167531Y0154749D02*
X0169051Y0154749D01*
X0169051Y0155128D02*
X0167531Y0155128D01*
X0167531Y0155507D02*
X0169051Y0155507D01*
X0169051Y0155886D02*
X0167531Y0155886D01*
X0167148Y0156506D02*
X0162742Y0156506D01*
X0162742Y0158026D01*
X0167148Y0158026D01*
X0167148Y0156506D01*
X0167148Y0156885D02*
X0162742Y0156885D01*
X0162742Y0157264D02*
X0167148Y0157264D01*
X0167148Y0157643D02*
X0162742Y0157643D01*
X0162742Y0158022D02*
X0167148Y0158022D01*
X0167148Y0158475D02*
X0162742Y0158475D01*
X0162742Y0159995D01*
X0167148Y0159995D01*
X0167148Y0158475D01*
X0167148Y0158854D02*
X0162742Y0158854D01*
X0162742Y0159233D02*
X0167148Y0159233D01*
X0167148Y0159612D02*
X0162742Y0159612D01*
X0162742Y0159991D02*
X0167148Y0159991D01*
X0167148Y0160443D02*
X0162742Y0160443D01*
X0162742Y0161963D01*
X0167148Y0161963D01*
X0167148Y0160443D01*
X0167148Y0160822D02*
X0162742Y0160822D01*
X0162742Y0161201D02*
X0167148Y0161201D01*
X0167148Y0161580D02*
X0162742Y0161580D01*
X0162742Y0161959D02*
X0167148Y0161959D01*
X0167148Y0162412D02*
X0162742Y0162412D01*
X0162742Y0163932D01*
X0167148Y0163932D01*
X0167148Y0162412D01*
X0167148Y0162791D02*
X0162742Y0162791D01*
X0162742Y0163170D02*
X0167148Y0163170D01*
X0167148Y0163549D02*
X0162742Y0163549D01*
X0162742Y0163928D02*
X0167148Y0163928D01*
X0167148Y0164380D02*
X0162742Y0164380D01*
X0162742Y0165900D01*
X0167148Y0165900D01*
X0167148Y0164380D01*
X0167148Y0164759D02*
X0162742Y0164759D01*
X0162742Y0165138D02*
X0167148Y0165138D01*
X0167148Y0165517D02*
X0162742Y0165517D01*
X0162742Y0165896D02*
X0167148Y0165896D01*
X0167148Y0166349D02*
X0162742Y0166349D01*
X0162742Y0167869D01*
X0167148Y0167869D01*
X0167148Y0166349D01*
X0167148Y0166728D02*
X0162742Y0166728D01*
X0162742Y0167107D02*
X0167148Y0167107D01*
X0167148Y0167486D02*
X0162742Y0167486D01*
X0162742Y0167865D02*
X0167148Y0167865D01*
X0167148Y0168317D02*
X0162742Y0168317D01*
X0162742Y0169837D01*
X0167148Y0169837D01*
X0167148Y0168317D01*
X0167148Y0168696D02*
X0162742Y0168696D01*
X0162742Y0169075D02*
X0167148Y0169075D01*
X0167148Y0169454D02*
X0162742Y0169454D01*
X0162742Y0169833D02*
X0167148Y0169833D01*
X0167148Y0170286D02*
X0162742Y0170286D01*
X0162742Y0171806D01*
X0167148Y0171806D01*
X0167148Y0170286D01*
X0167148Y0170665D02*
X0162742Y0170665D01*
X0162742Y0171044D02*
X0167148Y0171044D01*
X0167148Y0171423D02*
X0162742Y0171423D01*
X0162742Y0171802D02*
X0167148Y0171802D01*
X0167531Y0172189D02*
X0167531Y0176595D01*
X0169051Y0176595D01*
X0169051Y0172189D01*
X0167531Y0172189D01*
X0167531Y0172568D02*
X0169051Y0172568D01*
X0169051Y0172947D02*
X0167531Y0172947D01*
X0167531Y0173326D02*
X0169051Y0173326D01*
X0169051Y0173705D02*
X0167531Y0173705D01*
X0167531Y0174084D02*
X0169051Y0174084D01*
X0169051Y0174463D02*
X0167531Y0174463D01*
X0167531Y0174842D02*
X0169051Y0174842D01*
X0169051Y0175221D02*
X0167531Y0175221D01*
X0167531Y0175600D02*
X0169051Y0175600D01*
X0169051Y0175979D02*
X0167531Y0175979D01*
X0167531Y0176358D02*
X0169051Y0176358D01*
X0169500Y0176595D02*
X0169500Y0172189D01*
X0169500Y0176595D02*
X0171020Y0176595D01*
X0171020Y0172189D01*
X0169500Y0172189D01*
X0169500Y0172568D02*
X0171020Y0172568D01*
X0171020Y0172947D02*
X0169500Y0172947D01*
X0169500Y0173326D02*
X0171020Y0173326D01*
X0171020Y0173705D02*
X0169500Y0173705D01*
X0169500Y0174084D02*
X0171020Y0174084D01*
X0171020Y0174463D02*
X0169500Y0174463D01*
X0169500Y0174842D02*
X0171020Y0174842D01*
X0171020Y0175221D02*
X0169500Y0175221D01*
X0169500Y0175600D02*
X0171020Y0175600D01*
X0171020Y0175979D02*
X0169500Y0175979D01*
X0169500Y0176358D02*
X0171020Y0176358D01*
X0171468Y0176595D02*
X0171468Y0172189D01*
X0171468Y0176595D02*
X0172988Y0176595D01*
X0172988Y0172189D01*
X0171468Y0172189D01*
X0171468Y0172568D02*
X0172988Y0172568D01*
X0172988Y0172947D02*
X0171468Y0172947D01*
X0171468Y0173326D02*
X0172988Y0173326D01*
X0172988Y0173705D02*
X0171468Y0173705D01*
X0171468Y0174084D02*
X0172988Y0174084D01*
X0172988Y0174463D02*
X0171468Y0174463D01*
X0171468Y0174842D02*
X0172988Y0174842D01*
X0172988Y0175221D02*
X0171468Y0175221D01*
X0171468Y0175600D02*
X0172988Y0175600D01*
X0172988Y0175979D02*
X0171468Y0175979D01*
X0171468Y0176358D02*
X0172988Y0176358D01*
X0173437Y0176595D02*
X0173437Y0172189D01*
X0173437Y0176595D02*
X0174957Y0176595D01*
X0174957Y0172189D01*
X0173437Y0172189D01*
X0173437Y0172568D02*
X0174957Y0172568D01*
X0174957Y0172947D02*
X0173437Y0172947D01*
X0173437Y0173326D02*
X0174957Y0173326D01*
X0174957Y0173705D02*
X0173437Y0173705D01*
X0173437Y0174084D02*
X0174957Y0174084D01*
X0174957Y0174463D02*
X0173437Y0174463D01*
X0173437Y0174842D02*
X0174957Y0174842D01*
X0174957Y0175221D02*
X0173437Y0175221D01*
X0173437Y0175600D02*
X0174957Y0175600D01*
X0174957Y0175979D02*
X0173437Y0175979D01*
X0173437Y0176358D02*
X0174957Y0176358D01*
X0175405Y0176595D02*
X0175405Y0172189D01*
X0175405Y0176595D02*
X0176925Y0176595D01*
X0176925Y0172189D01*
X0175405Y0172189D01*
X0175405Y0172568D02*
X0176925Y0172568D01*
X0176925Y0172947D02*
X0175405Y0172947D01*
X0175405Y0173326D02*
X0176925Y0173326D01*
X0176925Y0173705D02*
X0175405Y0173705D01*
X0175405Y0174084D02*
X0176925Y0174084D01*
X0176925Y0174463D02*
X0175405Y0174463D01*
X0175405Y0174842D02*
X0176925Y0174842D01*
X0176925Y0175221D02*
X0175405Y0175221D01*
X0175405Y0175600D02*
X0176925Y0175600D01*
X0176925Y0175979D02*
X0175405Y0175979D01*
X0175405Y0176358D02*
X0176925Y0176358D01*
X0177374Y0176595D02*
X0177374Y0172189D01*
X0177374Y0176595D02*
X0178894Y0176595D01*
X0178894Y0172189D01*
X0177374Y0172189D01*
X0177374Y0172568D02*
X0178894Y0172568D01*
X0178894Y0172947D02*
X0177374Y0172947D01*
X0177374Y0173326D02*
X0178894Y0173326D01*
X0178894Y0173705D02*
X0177374Y0173705D01*
X0177374Y0174084D02*
X0178894Y0174084D01*
X0178894Y0174463D02*
X0177374Y0174463D01*
X0177374Y0174842D02*
X0178894Y0174842D01*
X0178894Y0175221D02*
X0177374Y0175221D01*
X0177374Y0175600D02*
X0178894Y0175600D01*
X0178894Y0175979D02*
X0177374Y0175979D01*
X0177374Y0176358D02*
X0178894Y0176358D01*
X0179342Y0176595D02*
X0179342Y0172189D01*
X0179342Y0176595D02*
X0180862Y0176595D01*
X0180862Y0172189D01*
X0179342Y0172189D01*
X0179342Y0172568D02*
X0180862Y0172568D01*
X0180862Y0172947D02*
X0179342Y0172947D01*
X0179342Y0173326D02*
X0180862Y0173326D01*
X0180862Y0173705D02*
X0179342Y0173705D01*
X0179342Y0174084D02*
X0180862Y0174084D01*
X0180862Y0174463D02*
X0179342Y0174463D01*
X0179342Y0174842D02*
X0180862Y0174842D01*
X0180862Y0175221D02*
X0179342Y0175221D01*
X0179342Y0175600D02*
X0180862Y0175600D01*
X0180862Y0175979D02*
X0179342Y0175979D01*
X0179342Y0176358D02*
X0180862Y0176358D01*
X0181311Y0176595D02*
X0181311Y0172189D01*
X0181311Y0176595D02*
X0182831Y0176595D01*
X0182831Y0172189D01*
X0181311Y0172189D01*
X0181311Y0172568D02*
X0182831Y0172568D01*
X0182831Y0172947D02*
X0181311Y0172947D01*
X0181311Y0173326D02*
X0182831Y0173326D01*
X0182831Y0173705D02*
X0181311Y0173705D01*
X0181311Y0174084D02*
X0182831Y0174084D01*
X0182831Y0174463D02*
X0181311Y0174463D01*
X0181311Y0174842D02*
X0182831Y0174842D01*
X0182831Y0175221D02*
X0181311Y0175221D01*
X0181311Y0175600D02*
X0182831Y0175600D01*
X0182831Y0175979D02*
X0181311Y0175979D01*
X0181311Y0176358D02*
X0182831Y0176358D01*
X0183214Y0171806D02*
X0187620Y0171806D01*
X0187620Y0170286D01*
X0183214Y0170286D01*
X0183214Y0171806D01*
X0183214Y0170665D02*
X0187620Y0170665D01*
X0187620Y0171044D02*
X0183214Y0171044D01*
X0183214Y0171423D02*
X0187620Y0171423D01*
X0187620Y0171802D02*
X0183214Y0171802D01*
X0183214Y0169837D02*
X0187620Y0169837D01*
X0187620Y0168317D01*
X0183214Y0168317D01*
X0183214Y0169837D01*
X0183214Y0168696D02*
X0187620Y0168696D01*
X0187620Y0169075D02*
X0183214Y0169075D01*
X0183214Y0169454D02*
X0187620Y0169454D01*
X0187620Y0169833D02*
X0183214Y0169833D01*
X0183214Y0167869D02*
X0187620Y0167869D01*
X0187620Y0166349D01*
X0183214Y0166349D01*
X0183214Y0167869D01*
X0183214Y0166728D02*
X0187620Y0166728D01*
X0187620Y0167107D02*
X0183214Y0167107D01*
X0183214Y0167486D02*
X0187620Y0167486D01*
X0187620Y0167865D02*
X0183214Y0167865D01*
X0183214Y0165900D02*
X0187620Y0165900D01*
X0187620Y0164380D01*
X0183214Y0164380D01*
X0183214Y0165900D01*
X0183214Y0164759D02*
X0187620Y0164759D01*
X0187620Y0165138D02*
X0183214Y0165138D01*
X0183214Y0165517D02*
X0187620Y0165517D01*
X0187620Y0165896D02*
X0183214Y0165896D01*
X0183214Y0163932D02*
X0187620Y0163932D01*
X0187620Y0162412D01*
X0183214Y0162412D01*
X0183214Y0163932D01*
X0183214Y0162791D02*
X0187620Y0162791D01*
X0187620Y0163170D02*
X0183214Y0163170D01*
X0183214Y0163549D02*
X0187620Y0163549D01*
X0187620Y0163928D02*
X0183214Y0163928D01*
X0183214Y0161963D02*
X0187620Y0161963D01*
X0187620Y0160443D01*
X0183214Y0160443D01*
X0183214Y0161963D01*
X0183214Y0160822D02*
X0187620Y0160822D01*
X0187620Y0161201D02*
X0183214Y0161201D01*
X0183214Y0161580D02*
X0187620Y0161580D01*
X0187620Y0161959D02*
X0183214Y0161959D01*
X0183214Y0159995D02*
X0187620Y0159995D01*
X0187620Y0158475D01*
X0183214Y0158475D01*
X0183214Y0159995D01*
X0183214Y0158854D02*
X0187620Y0158854D01*
X0187620Y0159233D02*
X0183214Y0159233D01*
X0183214Y0159612D02*
X0187620Y0159612D01*
X0187620Y0159991D02*
X0183214Y0159991D01*
X0183214Y0158026D02*
X0187620Y0158026D01*
X0187620Y0156506D01*
X0183214Y0156506D01*
X0183214Y0158026D01*
X0183214Y0156885D02*
X0187620Y0156885D01*
X0187620Y0157264D02*
X0183214Y0157264D01*
X0183214Y0157643D02*
X0187620Y0157643D01*
X0187620Y0158022D02*
X0183214Y0158022D01*
X0182831Y0156123D02*
X0182831Y0151717D01*
X0181311Y0151717D01*
X0181311Y0156123D01*
X0182831Y0156123D01*
X0182831Y0152096D02*
X0181311Y0152096D01*
X0181311Y0152475D02*
X0182831Y0152475D01*
X0182831Y0152854D02*
X0181311Y0152854D01*
X0181311Y0153233D02*
X0182831Y0153233D01*
X0182831Y0153612D02*
X0181311Y0153612D01*
X0181311Y0153991D02*
X0182831Y0153991D01*
X0182831Y0154370D02*
X0181311Y0154370D01*
X0181311Y0154749D02*
X0182831Y0154749D01*
X0182831Y0155128D02*
X0181311Y0155128D01*
X0181311Y0155507D02*
X0182831Y0155507D01*
X0182831Y0155886D02*
X0181311Y0155886D01*
X0180862Y0156123D02*
X0180862Y0151717D01*
X0179342Y0151717D01*
X0179342Y0156123D01*
X0180862Y0156123D01*
X0180862Y0152096D02*
X0179342Y0152096D01*
X0179342Y0152475D02*
X0180862Y0152475D01*
X0180862Y0152854D02*
X0179342Y0152854D01*
X0179342Y0153233D02*
X0180862Y0153233D01*
X0180862Y0153612D02*
X0179342Y0153612D01*
X0179342Y0153991D02*
X0180862Y0153991D01*
X0180862Y0154370D02*
X0179342Y0154370D01*
X0179342Y0154749D02*
X0180862Y0154749D01*
X0180862Y0155128D02*
X0179342Y0155128D01*
X0179342Y0155507D02*
X0180862Y0155507D01*
X0180862Y0155886D02*
X0179342Y0155886D01*
X0178894Y0156123D02*
X0178894Y0151717D01*
X0177374Y0151717D01*
X0177374Y0156123D01*
X0178894Y0156123D01*
X0178894Y0152096D02*
X0177374Y0152096D01*
X0177374Y0152475D02*
X0178894Y0152475D01*
X0178894Y0152854D02*
X0177374Y0152854D01*
X0177374Y0153233D02*
X0178894Y0153233D01*
X0178894Y0153612D02*
X0177374Y0153612D01*
X0177374Y0153991D02*
X0178894Y0153991D01*
X0178894Y0154370D02*
X0177374Y0154370D01*
X0177374Y0154749D02*
X0178894Y0154749D01*
X0178894Y0155128D02*
X0177374Y0155128D01*
X0177374Y0155507D02*
X0178894Y0155507D01*
X0178894Y0155886D02*
X0177374Y0155886D01*
X0176925Y0156123D02*
X0176925Y0151717D01*
X0175405Y0151717D01*
X0175405Y0156123D01*
X0176925Y0156123D01*
X0176925Y0152096D02*
X0175405Y0152096D01*
X0175405Y0152475D02*
X0176925Y0152475D01*
X0176925Y0152854D02*
X0175405Y0152854D01*
X0175405Y0153233D02*
X0176925Y0153233D01*
X0176925Y0153612D02*
X0175405Y0153612D01*
X0175405Y0153991D02*
X0176925Y0153991D01*
X0176925Y0154370D02*
X0175405Y0154370D01*
X0175405Y0154749D02*
X0176925Y0154749D01*
X0176925Y0155128D02*
X0175405Y0155128D01*
X0175405Y0155507D02*
X0176925Y0155507D01*
X0176925Y0155886D02*
X0175405Y0155886D01*
X0174957Y0156123D02*
X0174957Y0151717D01*
X0173437Y0151717D01*
X0173437Y0156123D01*
X0174957Y0156123D01*
X0174957Y0152096D02*
X0173437Y0152096D01*
X0173437Y0152475D02*
X0174957Y0152475D01*
X0174957Y0152854D02*
X0173437Y0152854D01*
X0173437Y0153233D02*
X0174957Y0153233D01*
X0174957Y0153612D02*
X0173437Y0153612D01*
X0173437Y0153991D02*
X0174957Y0153991D01*
X0174957Y0154370D02*
X0173437Y0154370D01*
X0173437Y0154749D02*
X0174957Y0154749D01*
X0174957Y0155128D02*
X0173437Y0155128D01*
X0173437Y0155507D02*
X0174957Y0155507D01*
X0174957Y0155886D02*
X0173437Y0155886D01*
X0172988Y0156123D02*
X0172988Y0151717D01*
X0171468Y0151717D01*
X0171468Y0156123D01*
X0172988Y0156123D01*
X0172988Y0152096D02*
X0171468Y0152096D01*
X0171468Y0152475D02*
X0172988Y0152475D01*
X0172988Y0152854D02*
X0171468Y0152854D01*
X0171468Y0153233D02*
X0172988Y0153233D01*
X0172988Y0153612D02*
X0171468Y0153612D01*
X0171468Y0153991D02*
X0172988Y0153991D01*
X0172988Y0154370D02*
X0171468Y0154370D01*
X0171468Y0154749D02*
X0172988Y0154749D01*
X0172988Y0155128D02*
X0171468Y0155128D01*
X0171468Y0155507D02*
X0172988Y0155507D01*
X0172988Y0155886D02*
X0171468Y0155886D01*
X0171020Y0156123D02*
X0171020Y0151717D01*
X0169500Y0151717D01*
X0169500Y0156123D01*
X0171020Y0156123D01*
X0171020Y0152096D02*
X0169500Y0152096D01*
X0169500Y0152475D02*
X0171020Y0152475D01*
X0171020Y0152854D02*
X0169500Y0152854D01*
X0169500Y0153233D02*
X0171020Y0153233D01*
X0171020Y0153612D02*
X0169500Y0153612D01*
X0169500Y0153991D02*
X0171020Y0153991D01*
X0171020Y0154370D02*
X0169500Y0154370D01*
X0169500Y0154749D02*
X0171020Y0154749D01*
X0171020Y0155128D02*
X0169500Y0155128D01*
X0169500Y0155507D02*
X0171020Y0155507D01*
X0171020Y0155886D02*
X0169500Y0155886D01*
D22*
X0168746Y0157721D02*
X0168746Y0170591D01*
X0181616Y0170591D01*
X0181616Y0157721D01*
X0168746Y0157721D01*
X0168746Y0159150D02*
X0181616Y0159150D01*
X0181616Y0160579D02*
X0168746Y0160579D01*
X0168746Y0162008D02*
X0181616Y0162008D01*
X0181616Y0163437D02*
X0168746Y0163437D01*
X0168746Y0164866D02*
X0181616Y0164866D01*
X0181616Y0166295D02*
X0168746Y0166295D01*
X0168746Y0167724D02*
X0181616Y0167724D01*
X0181616Y0169153D02*
X0168746Y0169153D01*
X0168746Y0170582D02*
X0181616Y0170582D01*
D23*
X0136181Y0185117D03*
X0116181Y0185117D03*
X0116181Y0205196D03*
X0136181Y0205196D03*
D24*
X0112028Y0161715D03*
X0112028Y0159156D03*
X0112028Y0156597D03*
X0105335Y0156597D03*
X0105335Y0159156D03*
X0105335Y0161715D03*
D25*
X0082181Y0136597D03*
X0082181Y0191715D03*
D26*
X0077260Y0179904D03*
X0087102Y0179904D03*
X0087102Y0172030D03*
X0077260Y0172030D03*
X0077260Y0164156D03*
X0087102Y0164156D03*
X0087102Y0156282D03*
X0077260Y0156282D03*
X0077260Y0148408D03*
X0087102Y0148408D03*
M02*
