G75*
%MOIN*%
%OFA0B0*%
%FSLAX25Y25*%
%IPPOS*%
%LPD*%
%AMOC8*
5,1,8,0,0,1.08239X$1,22.5*
%
%ADD10C,0.06731*%
%ADD11OC8,0.06337*%
%ADD12R,0.06102X0.05118*%
%ADD13OC8,0.10630*%
%ADD14OC8,0.05550*%
%ADD15C,0.01600*%
%ADD16C,0.03969*%
%ADD17C,0.01200*%
%ADD18C,0.01000*%
D10*
X0211681Y0130791D02*
X0211681Y0137522D01*
X0221681Y0137522D02*
X0221681Y0130791D01*
X0231681Y0130791D02*
X0231681Y0137522D01*
X0241681Y0137522D02*
X0241681Y0130791D01*
X0251681Y0130791D02*
X0251681Y0137522D01*
X0261681Y0137522D02*
X0261681Y0130791D01*
X0271681Y0130791D02*
X0271681Y0137522D01*
X0261681Y0190791D02*
X0261681Y0197522D01*
X0251681Y0197522D02*
X0251681Y0190791D01*
X0241681Y0190791D02*
X0241681Y0197522D01*
X0231681Y0197522D02*
X0231681Y0190791D01*
X0221681Y0190791D02*
X0221681Y0197522D01*
D11*
X0106024Y0092156D03*
X0086339Y0092156D03*
D12*
X0143531Y0083298D03*
X0143531Y0101014D03*
X0174831Y0101014D03*
X0198531Y0101014D03*
X0198531Y0083298D03*
X0174831Y0083298D03*
X0229831Y0083298D03*
X0253531Y0083298D03*
X0253531Y0101014D03*
X0229831Y0101014D03*
X0284831Y0101014D03*
X0308531Y0101014D03*
X0308531Y0083298D03*
X0284831Y0083298D03*
X0339831Y0083298D03*
X0339831Y0101014D03*
D13*
X0082181Y0136597D03*
X0082181Y0191715D03*
D14*
X0077260Y0179904D03*
X0087102Y0179904D03*
X0087102Y0172030D03*
X0077260Y0172030D03*
X0077260Y0164156D03*
X0087102Y0164156D03*
X0087102Y0156282D03*
X0077260Y0156282D03*
X0077260Y0148408D03*
X0087102Y0148408D03*
D15*
X0083740Y0049158D02*
X0083740Y0042156D01*
X0339583Y0042156D01*
X0339583Y0049158D01*
X0339529Y0049221D01*
X0339583Y0049976D01*
X0339583Y0050733D01*
X0339641Y0050791D01*
X0339661Y0051064D01*
X0339573Y0051201D01*
X0339718Y0051870D01*
X0339767Y0052554D01*
X0339890Y0052661D01*
X0339965Y0053006D01*
X0339898Y0053154D01*
X0340137Y0053797D01*
X0340283Y0054466D01*
X0340420Y0054554D01*
X0340543Y0054886D01*
X0340498Y0055042D01*
X0340826Y0055644D01*
X0341066Y0056286D01*
X0341214Y0056353D01*
X0341383Y0056664D01*
X0341360Y0056825D01*
X0341771Y0057374D01*
X0342099Y0057975D01*
X0342255Y0058021D01*
X0342468Y0058304D01*
X0342468Y0058467D01*
X0342952Y0058952D01*
X0343363Y0059500D01*
X0343524Y0059524D01*
X0343774Y0059774D01*
X0343797Y0059935D01*
X0344346Y0060346D01*
X0344831Y0060830D01*
X0344993Y0060830D01*
X0345277Y0061042D01*
X0345323Y0061199D01*
X0345924Y0061527D01*
X0346473Y0061938D01*
X0346634Y0061915D01*
X0346944Y0062084D01*
X0347012Y0062232D01*
X0347654Y0062472D01*
X0348256Y0062800D01*
X0348412Y0062754D01*
X0348744Y0062878D01*
X0348832Y0063015D01*
X0349501Y0063161D01*
X0350143Y0063400D01*
X0350291Y0063333D01*
X0350637Y0063408D01*
X0350744Y0063531D01*
X0351427Y0063580D01*
X0352097Y0063725D01*
X0352234Y0063637D01*
X0352507Y0063657D01*
X0352565Y0063715D01*
X0353322Y0063715D01*
X0354077Y0063769D01*
X0354140Y0063715D01*
X0361181Y0063715D01*
X0361181Y0197510D01*
X0354140Y0197510D01*
X0354077Y0197456D01*
X0353322Y0197510D01*
X0352565Y0197510D01*
X0352507Y0197569D01*
X0352234Y0197588D01*
X0352097Y0197500D01*
X0351427Y0197646D01*
X0350744Y0197695D01*
X0350637Y0197818D01*
X0350291Y0197893D01*
X0350143Y0197826D01*
X0349501Y0198065D01*
X0348832Y0198211D01*
X0348744Y0198348D01*
X0348412Y0198471D01*
X0348256Y0198425D01*
X0347654Y0198754D01*
X0347012Y0198993D01*
X0346944Y0199141D01*
X0346634Y0199311D01*
X0346473Y0199288D01*
X0345924Y0199699D01*
X0345323Y0200027D01*
X0345277Y0200183D01*
X0344993Y0200395D01*
X0344831Y0200395D01*
X0344346Y0200880D01*
X0343797Y0201291D01*
X0343774Y0201452D01*
X0343524Y0201702D01*
X0343363Y0201725D01*
X0342952Y0202274D01*
X0342468Y0202759D01*
X0342468Y0202921D01*
X0342255Y0203205D01*
X0342099Y0203250D01*
X0341771Y0203852D01*
X0341360Y0204401D01*
X0341383Y0204562D01*
X0341214Y0204872D01*
X0341066Y0204940D01*
X0340826Y0205582D01*
X0340498Y0206184D01*
X0340544Y0206340D01*
X0340420Y0206671D01*
X0340283Y0206759D01*
X0340137Y0207429D01*
X0339898Y0208071D01*
X0339965Y0208219D01*
X0339890Y0208565D01*
X0339767Y0208672D01*
X0339718Y0209355D01*
X0339573Y0210025D01*
X0339661Y0210162D01*
X0339641Y0210435D01*
X0339583Y0210493D01*
X0339583Y0211250D01*
X0339529Y0212005D01*
X0339583Y0212067D01*
X0339583Y0219156D01*
X0083740Y0219156D01*
X0083740Y0212067D01*
X0083794Y0212005D01*
X0083740Y0211250D01*
X0083740Y0210493D01*
X0083682Y0210435D01*
X0083662Y0210162D01*
X0083750Y0210025D01*
X0083605Y0209355D01*
X0083556Y0208672D01*
X0083433Y0208565D01*
X0083358Y0208219D01*
X0083425Y0208071D01*
X0083186Y0207429D01*
X0083040Y0206759D01*
X0082903Y0206671D01*
X0082779Y0206340D01*
X0082825Y0206184D01*
X0082497Y0205582D01*
X0082257Y0204940D01*
X0082109Y0204872D01*
X0081940Y0204562D01*
X0081963Y0204401D01*
X0081552Y0203852D01*
X0081224Y0203250D01*
X0081067Y0203205D01*
X0080855Y0202921D01*
X0080855Y0202759D01*
X0080371Y0202274D01*
X0079960Y0201725D01*
X0079799Y0201702D01*
X0079549Y0201452D01*
X0079525Y0201291D01*
X0078977Y0200880D01*
X0078492Y0200395D01*
X0078329Y0200395D01*
X0078046Y0200183D01*
X0078000Y0200027D01*
X0077399Y0199699D01*
X0076850Y0199288D01*
X0076689Y0199311D01*
X0076378Y0199141D01*
X0076311Y0198993D01*
X0075669Y0198754D01*
X0075067Y0198425D01*
X0074911Y0198471D01*
X0074579Y0198348D01*
X0074491Y0198211D01*
X0073822Y0198065D01*
X0073179Y0197826D01*
X0073031Y0197893D01*
X0072686Y0197818D01*
X0072579Y0197695D01*
X0071895Y0197646D01*
X0071226Y0197500D01*
X0071089Y0197588D01*
X0070816Y0197569D01*
X0070758Y0197510D01*
X0070001Y0197510D01*
X0069245Y0197456D01*
X0069183Y0197510D01*
X0062181Y0197510D01*
X0062181Y0063715D01*
X0069183Y0063715D01*
X0069245Y0063769D01*
X0070001Y0063715D01*
X0070758Y0063715D01*
X0070816Y0063657D01*
X0071089Y0063637D01*
X0071226Y0063725D01*
X0071895Y0063580D01*
X0072579Y0063531D01*
X0072686Y0063408D01*
X0073031Y0063333D01*
X0073179Y0063400D01*
X0073822Y0063161D01*
X0074491Y0063015D01*
X0074579Y0062878D01*
X0074911Y0062754D01*
X0075067Y0062800D01*
X0075669Y0062472D01*
X0076311Y0062232D01*
X0076378Y0062084D01*
X0076689Y0061915D01*
X0076850Y0061938D01*
X0077399Y0061527D01*
X0078000Y0061199D01*
X0078046Y0061042D01*
X0078329Y0060830D01*
X0078492Y0060830D01*
X0078977Y0060346D01*
X0079525Y0059935D01*
X0079549Y0059774D01*
X0079799Y0059524D01*
X0079960Y0059500D01*
X0080371Y0058952D01*
X0080855Y0058467D01*
X0080855Y0058304D01*
X0081067Y0058021D01*
X0081224Y0057975D01*
X0081552Y0057374D01*
X0081963Y0056825D01*
X0081940Y0056664D01*
X0082109Y0056353D01*
X0082257Y0056286D01*
X0082497Y0055644D01*
X0082825Y0055042D01*
X0082779Y0054886D01*
X0082903Y0054554D01*
X0083040Y0054466D01*
X0083186Y0053797D01*
X0083425Y0053154D01*
X0083358Y0053006D01*
X0083433Y0052661D01*
X0083556Y0052554D01*
X0083605Y0051870D01*
X0083750Y0051201D01*
X0083662Y0051064D01*
X0083682Y0050791D01*
X0083740Y0050733D01*
X0083740Y0049976D01*
X0083794Y0049221D01*
X0083740Y0049158D01*
X0083740Y0048840D02*
X0339583Y0048840D01*
X0339583Y0047242D02*
X0083740Y0047242D01*
X0083740Y0045643D02*
X0339583Y0045643D01*
X0339583Y0044045D02*
X0083740Y0044045D01*
X0083740Y0042446D02*
X0339583Y0042446D01*
X0339583Y0050439D02*
X0083740Y0050439D01*
X0083593Y0052037D02*
X0339730Y0052037D01*
X0340077Y0053636D02*
X0083246Y0053636D01*
X0082720Y0055234D02*
X0340602Y0055234D01*
X0341366Y0056833D02*
X0081957Y0056833D01*
X0080855Y0058431D02*
X0342468Y0058431D01*
X0343924Y0060030D02*
X0079399Y0060030D01*
X0077264Y0061628D02*
X0346059Y0061628D01*
X0349678Y0063227D02*
X0073645Y0063227D01*
X0062181Y0064825D02*
X0361181Y0064825D01*
X0361181Y0066424D02*
X0062181Y0066424D01*
X0062181Y0068022D02*
X0361181Y0068022D01*
X0361181Y0069621D02*
X0062181Y0069621D01*
X0062181Y0071219D02*
X0361181Y0071219D01*
X0361181Y0072818D02*
X0062181Y0072818D01*
X0062181Y0074416D02*
X0093545Y0074416D01*
X0093933Y0074028D02*
X0095392Y0073424D01*
X0096970Y0073424D01*
X0098429Y0074028D01*
X0099545Y0075144D01*
X0100150Y0076603D01*
X0100150Y0078182D01*
X0099545Y0079640D01*
X0098429Y0080757D01*
X0096970Y0081361D01*
X0095392Y0081361D01*
X0093933Y0080757D01*
X0092817Y0079640D01*
X0092213Y0078182D01*
X0092213Y0076603D01*
X0092817Y0075144D01*
X0093933Y0074028D01*
X0092456Y0076015D02*
X0062181Y0076015D01*
X0062181Y0077613D02*
X0092213Y0077613D01*
X0092639Y0079212D02*
X0062181Y0079212D01*
X0062181Y0080810D02*
X0094062Y0080810D01*
X0098300Y0080810D02*
X0138680Y0080810D01*
X0138680Y0080502D02*
X0138803Y0080044D01*
X0139040Y0079634D01*
X0139375Y0079298D01*
X0139786Y0079062D01*
X0140243Y0078939D01*
X0143052Y0078939D01*
X0143052Y0082818D01*
X0144011Y0082818D01*
X0144011Y0078939D01*
X0146820Y0078939D01*
X0147277Y0079062D01*
X0147688Y0079298D01*
X0148023Y0079634D01*
X0148260Y0080044D01*
X0148383Y0080502D01*
X0148383Y0082818D01*
X0144011Y0082818D01*
X0144011Y0083777D01*
X0148383Y0083777D01*
X0148383Y0086094D01*
X0148260Y0086552D01*
X0148023Y0086962D01*
X0147688Y0087297D01*
X0147277Y0087534D01*
X0146820Y0087657D01*
X0144011Y0087657D01*
X0144011Y0083777D01*
X0143052Y0083777D01*
X0143052Y0082818D01*
X0138680Y0082818D01*
X0138680Y0080502D01*
X0139525Y0079212D02*
X0099723Y0079212D01*
X0100150Y0077613D02*
X0361181Y0077613D01*
X0361181Y0076015D02*
X0099906Y0076015D01*
X0098817Y0074416D02*
X0361181Y0074416D01*
X0361181Y0079212D02*
X0343837Y0079212D01*
X0343987Y0079298D02*
X0344322Y0079634D01*
X0344559Y0080044D01*
X0344682Y0080502D01*
X0344682Y0082818D01*
X0340310Y0082818D01*
X0340310Y0078939D01*
X0343119Y0078939D01*
X0343577Y0079062D01*
X0343987Y0079298D01*
X0344682Y0080810D02*
X0361181Y0080810D01*
X0361181Y0082409D02*
X0344682Y0082409D01*
X0344682Y0083777D02*
X0344682Y0086094D01*
X0344559Y0086552D01*
X0344322Y0086962D01*
X0343987Y0087297D01*
X0343577Y0087534D01*
X0343119Y0087657D01*
X0340310Y0087657D01*
X0340310Y0083777D01*
X0344682Y0083777D01*
X0344682Y0084007D02*
X0361181Y0084007D01*
X0361181Y0085606D02*
X0344682Y0085606D01*
X0344080Y0087204D02*
X0361181Y0087204D01*
X0361181Y0088803D02*
X0109980Y0088803D01*
X0111192Y0090015D02*
X0108164Y0086988D01*
X0103883Y0086988D01*
X0100855Y0090015D01*
X0100855Y0094297D01*
X0103883Y0097325D01*
X0108164Y0097325D01*
X0111192Y0094297D01*
X0111192Y0090015D01*
X0111192Y0090401D02*
X0361181Y0090401D01*
X0361181Y0092000D02*
X0111192Y0092000D01*
X0111192Y0093598D02*
X0361181Y0093598D01*
X0361181Y0095197D02*
X0110292Y0095197D01*
X0108694Y0096795D02*
X0139312Y0096795D01*
X0139652Y0096455D02*
X0147411Y0096455D01*
X0148583Y0097627D01*
X0148583Y0098214D01*
X0169780Y0098214D01*
X0169780Y0097627D01*
X0170951Y0096455D01*
X0178710Y0096455D01*
X0179882Y0097627D01*
X0179882Y0104402D01*
X0178710Y0105573D01*
X0170951Y0105573D01*
X0169780Y0104402D01*
X0169780Y0103814D01*
X0148583Y0103814D01*
X0148583Y0104402D01*
X0147411Y0105573D01*
X0146838Y0105573D01*
X0147165Y0106364D01*
X0147165Y0107949D01*
X0146559Y0109413D01*
X0145438Y0110534D01*
X0143974Y0111140D01*
X0142389Y0111140D01*
X0140924Y0110534D01*
X0139803Y0109413D01*
X0139197Y0107949D01*
X0139197Y0106364D01*
X0139562Y0105483D01*
X0138480Y0104402D01*
X0138480Y0097627D01*
X0139652Y0096455D01*
X0138480Y0098394D02*
X0062181Y0098394D01*
X0062181Y0099992D02*
X0138480Y0099992D01*
X0138480Y0101591D02*
X0062181Y0101591D01*
X0062181Y0103189D02*
X0094817Y0103189D01*
X0095392Y0102951D02*
X0096970Y0102951D01*
X0098429Y0103556D01*
X0099545Y0104672D01*
X0100150Y0106131D01*
X0100150Y0107709D01*
X0099545Y0109168D01*
X0098429Y0110284D01*
X0096970Y0110888D01*
X0095392Y0110888D01*
X0093933Y0110284D01*
X0092817Y0109168D01*
X0092213Y0107709D01*
X0092213Y0106131D01*
X0092817Y0104672D01*
X0093933Y0103556D01*
X0095392Y0102951D01*
X0097545Y0103189D02*
X0138480Y0103189D01*
X0138866Y0104788D02*
X0099593Y0104788D01*
X0100150Y0106386D02*
X0139197Y0106386D01*
X0139212Y0107985D02*
X0100035Y0107985D01*
X0099130Y0109583D02*
X0139974Y0109583D01*
X0146388Y0109583D02*
X0194974Y0109583D01*
X0194803Y0109413D02*
X0194197Y0107949D01*
X0194197Y0106364D01*
X0194562Y0105483D01*
X0193480Y0104402D01*
X0193480Y0097627D01*
X0194652Y0096455D01*
X0202411Y0096455D01*
X0203583Y0097627D01*
X0203583Y0098214D01*
X0224780Y0098214D01*
X0224780Y0097627D01*
X0225951Y0096455D01*
X0233710Y0096455D01*
X0234882Y0097627D01*
X0234882Y0104402D01*
X0233710Y0105573D01*
X0225951Y0105573D01*
X0224780Y0104402D01*
X0224780Y0103814D01*
X0203583Y0103814D01*
X0203583Y0104402D01*
X0202411Y0105573D01*
X0201838Y0105573D01*
X0202165Y0106364D01*
X0202165Y0107949D01*
X0201559Y0109413D01*
X0200438Y0110534D01*
X0198974Y0111140D01*
X0197389Y0111140D01*
X0195924Y0110534D01*
X0194803Y0109413D01*
X0194212Y0107985D02*
X0147150Y0107985D01*
X0147165Y0106386D02*
X0194197Y0106386D01*
X0193866Y0104788D02*
X0179496Y0104788D01*
X0179882Y0103189D02*
X0193480Y0103189D01*
X0193480Y0101591D02*
X0179882Y0101591D01*
X0179882Y0099992D02*
X0193480Y0099992D01*
X0193480Y0098394D02*
X0179882Y0098394D01*
X0179050Y0096795D02*
X0194312Y0096795D01*
X0198531Y0101014D02*
X0229831Y0101014D01*
X0234882Y0101591D02*
X0248480Y0101591D01*
X0248480Y0103189D02*
X0234882Y0103189D01*
X0234496Y0104788D02*
X0248866Y0104788D01*
X0248480Y0104402D02*
X0248480Y0097627D01*
X0249652Y0096455D01*
X0257411Y0096455D01*
X0258583Y0097627D01*
X0258583Y0098214D01*
X0279780Y0098214D01*
X0279780Y0097627D01*
X0280951Y0096455D01*
X0288710Y0096455D01*
X0289882Y0097627D01*
X0289882Y0104402D01*
X0288710Y0105573D01*
X0280951Y0105573D01*
X0279780Y0104402D01*
X0279780Y0103814D01*
X0258583Y0103814D01*
X0258583Y0104402D01*
X0257411Y0105573D01*
X0256838Y0105573D01*
X0257165Y0106364D01*
X0257165Y0107949D01*
X0256559Y0109413D01*
X0255438Y0110534D01*
X0253974Y0111140D01*
X0252389Y0111140D01*
X0250924Y0110534D01*
X0249803Y0109413D01*
X0249197Y0107949D01*
X0249197Y0106364D01*
X0249562Y0105483D01*
X0248480Y0104402D01*
X0249197Y0106386D02*
X0202165Y0106386D01*
X0202150Y0107985D02*
X0249212Y0107985D01*
X0249974Y0109583D02*
X0201388Y0109583D01*
X0203197Y0104788D02*
X0225166Y0104788D01*
X0225611Y0096795D02*
X0202751Y0096795D01*
X0201820Y0087657D02*
X0199011Y0087657D01*
X0199011Y0083777D01*
X0203383Y0083777D01*
X0203383Y0086094D01*
X0203260Y0086552D01*
X0203023Y0086962D01*
X0202688Y0087297D01*
X0202277Y0087534D01*
X0201820Y0087657D01*
X0202781Y0087204D02*
X0225581Y0087204D01*
X0225674Y0087297D02*
X0225339Y0086962D01*
X0225102Y0086552D01*
X0224980Y0086094D01*
X0224980Y0083777D01*
X0229351Y0083777D01*
X0229351Y0082818D01*
X0230310Y0082818D01*
X0230310Y0078939D01*
X0233119Y0078939D01*
X0233577Y0079062D01*
X0233987Y0079298D01*
X0234322Y0079634D01*
X0234559Y0080044D01*
X0234682Y0080502D01*
X0234682Y0082818D01*
X0230310Y0082818D01*
X0230310Y0083777D01*
X0234682Y0083777D01*
X0234682Y0086094D01*
X0234559Y0086552D01*
X0234322Y0086962D01*
X0233987Y0087297D01*
X0233577Y0087534D01*
X0233119Y0087657D01*
X0230310Y0087657D01*
X0230310Y0083777D01*
X0229351Y0083777D01*
X0229351Y0087657D01*
X0226543Y0087657D01*
X0226085Y0087534D01*
X0225674Y0087297D01*
X0224980Y0085606D02*
X0203383Y0085606D01*
X0203383Y0084007D02*
X0224980Y0084007D01*
X0224980Y0082818D02*
X0224980Y0080502D01*
X0225102Y0080044D01*
X0225339Y0079634D01*
X0225674Y0079298D01*
X0226085Y0079062D01*
X0226543Y0078939D01*
X0229351Y0078939D01*
X0229351Y0082818D01*
X0224980Y0082818D01*
X0224980Y0082409D02*
X0203383Y0082409D01*
X0203383Y0082818D02*
X0199011Y0082818D01*
X0199011Y0078939D01*
X0201820Y0078939D01*
X0202277Y0079062D01*
X0202688Y0079298D01*
X0203023Y0079634D01*
X0203260Y0080044D01*
X0203383Y0080502D01*
X0203383Y0082818D01*
X0203383Y0080810D02*
X0224980Y0080810D01*
X0225824Y0079212D02*
X0202538Y0079212D01*
X0199011Y0079212D02*
X0198052Y0079212D01*
X0198052Y0078939D02*
X0195243Y0078939D01*
X0194786Y0079062D01*
X0194375Y0079298D01*
X0194040Y0079634D01*
X0193803Y0080044D01*
X0193680Y0080502D01*
X0193680Y0082818D01*
X0198052Y0082818D01*
X0199011Y0082818D01*
X0199011Y0083777D01*
X0198052Y0083777D01*
X0198052Y0082818D01*
X0198052Y0078939D01*
X0198052Y0080810D02*
X0199011Y0080810D01*
X0199011Y0082409D02*
X0198052Y0082409D01*
X0198052Y0083777D02*
X0193680Y0083777D01*
X0193680Y0086094D01*
X0193803Y0086552D01*
X0194040Y0086962D01*
X0194375Y0087297D01*
X0194786Y0087534D01*
X0195243Y0087657D01*
X0198052Y0087657D01*
X0198052Y0083777D01*
X0198052Y0084007D02*
X0199011Y0084007D01*
X0199011Y0085606D02*
X0198052Y0085606D01*
X0198052Y0087204D02*
X0199011Y0087204D01*
X0194282Y0087204D02*
X0179080Y0087204D01*
X0178987Y0087297D02*
X0178577Y0087534D01*
X0178119Y0087657D01*
X0175310Y0087657D01*
X0175310Y0083777D01*
X0179682Y0083777D01*
X0179682Y0086094D01*
X0179559Y0086552D01*
X0179322Y0086962D01*
X0178987Y0087297D01*
X0179682Y0085606D02*
X0193680Y0085606D01*
X0193680Y0084007D02*
X0179682Y0084007D01*
X0179682Y0082818D02*
X0175310Y0082818D01*
X0175310Y0078939D01*
X0178119Y0078939D01*
X0178577Y0079062D01*
X0178987Y0079298D01*
X0179322Y0079634D01*
X0179559Y0080044D01*
X0179682Y0080502D01*
X0179682Y0082818D01*
X0179682Y0082409D02*
X0193680Y0082409D01*
X0193680Y0080810D02*
X0179682Y0080810D01*
X0178837Y0079212D02*
X0194525Y0079212D01*
X0175310Y0079212D02*
X0174351Y0079212D01*
X0174351Y0078939D02*
X0171543Y0078939D01*
X0171085Y0079062D01*
X0170674Y0079298D01*
X0170339Y0079634D01*
X0170102Y0080044D01*
X0169980Y0080502D01*
X0169980Y0082818D01*
X0174351Y0082818D01*
X0175310Y0082818D01*
X0175310Y0083777D01*
X0174351Y0083777D01*
X0174351Y0082818D01*
X0174351Y0078939D01*
X0174351Y0080810D02*
X0175310Y0080810D01*
X0175310Y0082409D02*
X0174351Y0082409D01*
X0174351Y0083777D02*
X0169980Y0083777D01*
X0169980Y0086094D01*
X0170102Y0086552D01*
X0170339Y0086962D01*
X0170674Y0087297D01*
X0171085Y0087534D01*
X0171543Y0087657D01*
X0174351Y0087657D01*
X0174351Y0083777D01*
X0174351Y0084007D02*
X0175310Y0084007D01*
X0175310Y0085606D02*
X0174351Y0085606D01*
X0174351Y0087204D02*
X0175310Y0087204D01*
X0170581Y0087204D02*
X0147781Y0087204D01*
X0148383Y0085606D02*
X0169980Y0085606D01*
X0169980Y0084007D02*
X0148383Y0084007D01*
X0148383Y0082409D02*
X0169980Y0082409D01*
X0169980Y0080810D02*
X0148383Y0080810D01*
X0147538Y0079212D02*
X0170824Y0079212D01*
X0144011Y0079212D02*
X0143052Y0079212D01*
X0143052Y0080810D02*
X0144011Y0080810D01*
X0144011Y0082409D02*
X0143052Y0082409D01*
X0143052Y0083777D02*
X0138680Y0083777D01*
X0138680Y0086094D01*
X0138803Y0086552D01*
X0139040Y0086962D01*
X0139375Y0087297D01*
X0139786Y0087534D01*
X0140243Y0087657D01*
X0143052Y0087657D01*
X0143052Y0083777D01*
X0143052Y0084007D02*
X0144011Y0084007D01*
X0144011Y0085606D02*
X0143052Y0085606D01*
X0143052Y0087204D02*
X0144011Y0087204D01*
X0139282Y0087204D02*
X0108381Y0087204D01*
X0103666Y0087204D02*
X0088696Y0087204D01*
X0088479Y0086988D02*
X0091507Y0090015D01*
X0091507Y0094297D01*
X0088479Y0097325D01*
X0084198Y0097325D01*
X0081170Y0094297D01*
X0081170Y0090015D01*
X0084198Y0086988D01*
X0088479Y0086988D01*
X0090295Y0088803D02*
X0102068Y0088803D01*
X0100855Y0090401D02*
X0091507Y0090401D01*
X0091507Y0092000D02*
X0100855Y0092000D01*
X0100855Y0093598D02*
X0091507Y0093598D01*
X0090607Y0095197D02*
X0101755Y0095197D01*
X0103353Y0096795D02*
X0089009Y0096795D01*
X0083668Y0096795D02*
X0062181Y0096795D01*
X0062181Y0095197D02*
X0082070Y0095197D01*
X0081170Y0093598D02*
X0062181Y0093598D01*
X0062181Y0092000D02*
X0081170Y0092000D01*
X0081170Y0090401D02*
X0062181Y0090401D01*
X0062181Y0088803D02*
X0082383Y0088803D01*
X0083981Y0087204D02*
X0062181Y0087204D01*
X0062181Y0085606D02*
X0138680Y0085606D01*
X0138680Y0084007D02*
X0062181Y0084007D01*
X0062181Y0082409D02*
X0138680Y0082409D01*
X0147751Y0096795D02*
X0170611Y0096795D01*
X0174831Y0101014D02*
X0143531Y0101014D01*
X0148197Y0104788D02*
X0170166Y0104788D01*
X0173924Y0112778D02*
X0175389Y0112172D01*
X0176974Y0112172D01*
X0178438Y0112778D01*
X0179216Y0113556D01*
X0228147Y0113556D01*
X0228924Y0112778D01*
X0230389Y0112172D01*
X0231974Y0112172D01*
X0233438Y0112778D01*
X0234216Y0113556D01*
X0283147Y0113556D01*
X0283924Y0112778D01*
X0285389Y0112172D01*
X0286974Y0112172D01*
X0288438Y0112778D01*
X0289216Y0113556D01*
X0338147Y0113556D01*
X0338924Y0112778D01*
X0340389Y0112172D01*
X0341974Y0112172D01*
X0343438Y0112778D01*
X0344559Y0113899D01*
X0345165Y0115364D01*
X0345165Y0116949D01*
X0344559Y0118413D01*
X0343438Y0119534D01*
X0341974Y0120140D01*
X0340389Y0120140D01*
X0338924Y0119534D01*
X0338147Y0118756D01*
X0289216Y0118756D01*
X0288438Y0119534D01*
X0286974Y0120140D01*
X0285389Y0120140D01*
X0283924Y0119534D01*
X0283147Y0118756D01*
X0234216Y0118756D01*
X0233438Y0119534D01*
X0231974Y0120140D01*
X0230389Y0120140D01*
X0228924Y0119534D01*
X0228147Y0118756D01*
X0179216Y0118756D01*
X0178438Y0119534D01*
X0176974Y0120140D01*
X0175389Y0120140D01*
X0173924Y0119534D01*
X0173147Y0118756D01*
X0165258Y0118756D01*
X0148281Y0135733D01*
X0148281Y0146173D01*
X0147885Y0147129D01*
X0147154Y0147860D01*
X0125458Y0169556D01*
X0127104Y0169556D01*
X0139977Y0156683D01*
X0140708Y0155952D01*
X0141664Y0155556D01*
X0161948Y0155556D01*
X0162904Y0155952D01*
X0164331Y0157379D01*
X0164331Y0149983D01*
X0162045Y0147697D01*
X0160974Y0148140D01*
X0159389Y0148140D01*
X0157924Y0147534D01*
X0156803Y0146413D01*
X0156197Y0144949D01*
X0156197Y0143364D01*
X0156803Y0141899D01*
X0157924Y0140778D01*
X0159389Y0140172D01*
X0160974Y0140172D01*
X0162438Y0140778D01*
X0163559Y0141899D01*
X0163565Y0141915D01*
X0163654Y0141952D01*
X0164385Y0142683D01*
X0168404Y0146702D01*
X0169135Y0147433D01*
X0169531Y0148389D01*
X0169531Y0161556D01*
X0180581Y0161556D01*
X0180581Y0147139D01*
X0180977Y0146183D01*
X0181708Y0145452D01*
X0181708Y0145452D01*
X0182697Y0144463D01*
X0182697Y0143364D01*
X0183303Y0141899D01*
X0184424Y0140778D01*
X0185889Y0140172D01*
X0187474Y0140172D01*
X0188938Y0140778D01*
X0190059Y0141899D01*
X0190665Y0143364D01*
X0190665Y0144949D01*
X0190059Y0146413D01*
X0188938Y0147534D01*
X0187474Y0148140D01*
X0186374Y0148140D01*
X0185781Y0148733D01*
X0185781Y0158379D01*
X0191697Y0152463D01*
X0191697Y0151364D01*
X0192303Y0149899D01*
X0193424Y0148778D01*
X0194889Y0148172D01*
X0196474Y0148172D01*
X0197938Y0148778D01*
X0199059Y0149899D01*
X0199665Y0151364D01*
X0199665Y0152949D01*
X0199059Y0154413D01*
X0197938Y0155534D01*
X0196474Y0156140D01*
X0195374Y0156140D01*
X0189958Y0161556D01*
X0223104Y0161556D01*
X0227697Y0156963D01*
X0227697Y0155864D01*
X0228303Y0154399D01*
X0229424Y0153278D01*
X0230889Y0152672D01*
X0232474Y0152672D01*
X0233938Y0153278D01*
X0235059Y0154399D01*
X0235665Y0155864D01*
X0235665Y0157449D01*
X0235059Y0158913D01*
X0233938Y0160034D01*
X0232474Y0160640D01*
X0231374Y0160640D01*
X0225654Y0166360D01*
X0224698Y0166756D01*
X0185781Y0166756D01*
X0185781Y0180079D01*
X0185874Y0180172D01*
X0186974Y0180172D01*
X0188438Y0180778D01*
X0189559Y0181899D01*
X0190165Y0183364D01*
X0190165Y0184949D01*
X0189559Y0186413D01*
X0188438Y0187534D01*
X0186974Y0188140D01*
X0185389Y0188140D01*
X0183924Y0187534D01*
X0182803Y0186413D01*
X0182197Y0184949D01*
X0182197Y0183849D01*
X0181708Y0183360D01*
X0180977Y0182629D01*
X0180581Y0181673D01*
X0180581Y0166756D01*
X0169531Y0166756D01*
X0169531Y0180196D01*
X0170938Y0180778D01*
X0172059Y0181899D01*
X0172665Y0183364D01*
X0172665Y0184949D01*
X0172059Y0186413D01*
X0170938Y0187534D01*
X0169474Y0188140D01*
X0167889Y0188140D01*
X0166424Y0187534D01*
X0165303Y0186413D01*
X0164697Y0184949D01*
X0164697Y0183806D01*
X0164331Y0182923D01*
X0164331Y0170683D01*
X0159015Y0176000D01*
X0159165Y0176364D01*
X0159165Y0177949D01*
X0158559Y0179413D01*
X0157438Y0180534D01*
X0155974Y0181140D01*
X0154389Y0181140D01*
X0152924Y0180534D01*
X0151803Y0179413D01*
X0151197Y0177949D01*
X0151197Y0176364D01*
X0151803Y0174899D01*
X0152924Y0173778D01*
X0154389Y0173172D01*
X0154488Y0173172D01*
X0163629Y0164031D01*
X0160354Y0160756D01*
X0143258Y0160756D01*
X0130385Y0173629D01*
X0129654Y0174360D01*
X0128698Y0174756D01*
X0125123Y0174756D01*
X0125281Y0175139D01*
X0125281Y0201622D01*
X0126059Y0202399D01*
X0126665Y0203864D01*
X0126665Y0205449D01*
X0126059Y0206913D01*
X0124938Y0208034D01*
X0123474Y0208640D01*
X0121889Y0208640D01*
X0120424Y0208034D01*
X0119303Y0206913D01*
X0118697Y0205449D01*
X0118697Y0203864D01*
X0119303Y0202399D01*
X0120081Y0201622D01*
X0120081Y0176733D01*
X0119488Y0176140D01*
X0119157Y0176140D01*
X0095165Y0200132D01*
X0095165Y0200949D01*
X0094559Y0202413D01*
X0093438Y0203534D01*
X0091974Y0204140D01*
X0090389Y0204140D01*
X0088924Y0203534D01*
X0087803Y0202413D01*
X0087197Y0200949D01*
X0087197Y0199364D01*
X0087803Y0197899D01*
X0088924Y0196778D01*
X0090389Y0196172D01*
X0091206Y0196172D01*
X0115197Y0172181D01*
X0115197Y0171640D01*
X0114889Y0171640D01*
X0113424Y0171034D01*
X0112847Y0170456D01*
X0107124Y0170456D01*
X0106095Y0170030D01*
X0105307Y0169242D01*
X0100706Y0164640D01*
X0099889Y0164640D01*
X0098424Y0164034D01*
X0097303Y0162913D01*
X0096697Y0161449D01*
X0096697Y0159864D01*
X0097303Y0158399D01*
X0097547Y0158156D01*
X0097303Y0157913D01*
X0096697Y0156449D01*
X0096697Y0154864D01*
X0097303Y0153399D01*
X0098424Y0152278D01*
X0099889Y0151672D01*
X0100706Y0151672D01*
X0107807Y0144570D01*
X0108421Y0143956D01*
X0104248Y0143956D01*
X0104059Y0144413D01*
X0102938Y0145534D01*
X0101474Y0146140D01*
X0099889Y0146140D01*
X0098424Y0145534D01*
X0097303Y0144413D01*
X0096697Y0142949D01*
X0096697Y0141364D01*
X0097303Y0139899D01*
X0098424Y0138778D01*
X0099889Y0138172D01*
X0101474Y0138172D01*
X0101918Y0138356D01*
X0115021Y0138356D01*
X0122737Y0130640D01*
X0121889Y0130640D01*
X0120424Y0130034D01*
X0119303Y0128913D01*
X0118697Y0127449D01*
X0118697Y0126207D01*
X0116646Y0124156D01*
X0108316Y0124156D01*
X0107438Y0125034D01*
X0105974Y0125640D01*
X0104389Y0125640D01*
X0102924Y0125034D01*
X0101803Y0123913D01*
X0101197Y0122449D01*
X0101197Y0120864D01*
X0101803Y0119399D01*
X0102924Y0118278D01*
X0104389Y0117672D01*
X0105974Y0117672D01*
X0107438Y0118278D01*
X0108316Y0119156D01*
X0118178Y0119156D01*
X0119097Y0119537D01*
X0122232Y0122672D01*
X0123474Y0122672D01*
X0124938Y0123278D01*
X0126059Y0124399D01*
X0126665Y0125864D01*
X0126665Y0126712D01*
X0129381Y0123996D01*
X0129381Y0123991D01*
X0128803Y0123413D01*
X0128197Y0121949D01*
X0128197Y0120364D01*
X0128803Y0118899D01*
X0129924Y0117778D01*
X0131389Y0117172D01*
X0132974Y0117172D01*
X0134438Y0117778D01*
X0135559Y0118899D01*
X0136165Y0120364D01*
X0136165Y0121949D01*
X0135559Y0123413D01*
X0134981Y0123991D01*
X0134981Y0125713D01*
X0134555Y0126742D01*
X0133767Y0127530D01*
X0118641Y0142656D01*
X0118938Y0142778D01*
X0120059Y0143899D01*
X0120665Y0145364D01*
X0120665Y0146949D01*
X0120059Y0148413D01*
X0118938Y0149534D01*
X0117474Y0150140D01*
X0115889Y0150140D01*
X0114424Y0149534D01*
X0113847Y0148956D01*
X0111341Y0148956D01*
X0104665Y0155632D01*
X0104665Y0156449D01*
X0104059Y0157913D01*
X0103816Y0158156D01*
X0104059Y0158399D01*
X0104665Y0159864D01*
X0104665Y0160681D01*
X0108841Y0164856D01*
X0112847Y0164856D01*
X0113424Y0164278D01*
X0114889Y0163672D01*
X0116474Y0163672D01*
X0117938Y0164278D01*
X0119059Y0165399D01*
X0119665Y0166864D01*
X0119665Y0167995D01*
X0143081Y0144579D01*
X0143081Y0134139D01*
X0143477Y0133183D01*
X0161977Y0114683D01*
X0162708Y0113952D01*
X0163664Y0113556D01*
X0173147Y0113556D01*
X0173924Y0112778D01*
X0173922Y0112780D02*
X0062181Y0112780D01*
X0062181Y0111182D02*
X0361181Y0111182D01*
X0361181Y0112780D02*
X0343440Y0112780D01*
X0344757Y0114379D02*
X0361181Y0114379D01*
X0361181Y0115978D02*
X0345165Y0115978D01*
X0344905Y0117576D02*
X0361181Y0117576D01*
X0361181Y0119175D02*
X0343797Y0119175D01*
X0338565Y0119175D02*
X0288797Y0119175D01*
X0283565Y0119175D02*
X0233797Y0119175D01*
X0228565Y0119175D02*
X0178797Y0119175D01*
X0173565Y0119175D02*
X0164840Y0119175D01*
X0163241Y0120773D02*
X0361181Y0120773D01*
X0361181Y0122372D02*
X0161643Y0122372D01*
X0160044Y0123970D02*
X0361181Y0123970D01*
X0361181Y0125569D02*
X0273094Y0125569D01*
X0272748Y0125425D02*
X0274720Y0126242D01*
X0276230Y0127752D01*
X0277046Y0129724D01*
X0277046Y0138589D01*
X0276230Y0140561D01*
X0274720Y0142070D01*
X0272748Y0142887D01*
X0270614Y0142887D01*
X0268642Y0142070D01*
X0267133Y0140561D01*
X0266681Y0139471D01*
X0266230Y0140561D01*
X0264720Y0142070D01*
X0262748Y0142887D01*
X0260614Y0142887D01*
X0258642Y0142070D01*
X0257133Y0140561D01*
X0256681Y0139471D01*
X0256230Y0140561D01*
X0254720Y0142070D01*
X0252748Y0142887D01*
X0250614Y0142887D01*
X0248642Y0142070D01*
X0247133Y0140561D01*
X0246681Y0139471D01*
X0246230Y0140561D01*
X0244720Y0142070D01*
X0242748Y0142887D01*
X0240614Y0142887D01*
X0238642Y0142070D01*
X0237133Y0140561D01*
X0236681Y0139471D01*
X0236230Y0140561D01*
X0234720Y0142070D01*
X0232748Y0142887D01*
X0230614Y0142887D01*
X0228642Y0142070D01*
X0227133Y0140561D01*
X0226681Y0139471D01*
X0226230Y0140561D01*
X0224720Y0142070D01*
X0222748Y0142887D01*
X0220614Y0142887D01*
X0218642Y0142070D01*
X0217133Y0140561D01*
X0216681Y0139471D01*
X0216230Y0140561D01*
X0214720Y0142070D01*
X0212748Y0142887D01*
X0210614Y0142887D01*
X0208642Y0142070D01*
X0207133Y0140561D01*
X0206316Y0138589D01*
X0206316Y0129724D01*
X0207133Y0127752D01*
X0208642Y0126242D01*
X0210614Y0125425D01*
X0212748Y0125425D01*
X0214720Y0126242D01*
X0216230Y0127752D01*
X0216681Y0128842D01*
X0217133Y0127752D01*
X0218642Y0126242D01*
X0220614Y0125425D01*
X0222748Y0125425D01*
X0224720Y0126242D01*
X0226230Y0127752D01*
X0226681Y0128842D01*
X0227133Y0127752D01*
X0228642Y0126242D01*
X0230614Y0125425D01*
X0232748Y0125425D01*
X0234720Y0126242D01*
X0236230Y0127752D01*
X0236681Y0128842D01*
X0237133Y0127752D01*
X0238642Y0126242D01*
X0240614Y0125425D01*
X0242748Y0125425D01*
X0244720Y0126242D01*
X0246230Y0127752D01*
X0246681Y0128842D01*
X0247133Y0127752D01*
X0248642Y0126242D01*
X0250614Y0125425D01*
X0252748Y0125425D01*
X0254720Y0126242D01*
X0256230Y0127752D01*
X0256681Y0128842D01*
X0257133Y0127752D01*
X0258642Y0126242D01*
X0260614Y0125425D01*
X0262748Y0125425D01*
X0264720Y0126242D01*
X0266230Y0127752D01*
X0266681Y0128842D01*
X0267133Y0127752D01*
X0268642Y0126242D01*
X0270614Y0125425D01*
X0272748Y0125425D01*
X0270268Y0125569D02*
X0263094Y0125569D01*
X0260268Y0125569D02*
X0253094Y0125569D01*
X0250268Y0125569D02*
X0243094Y0125569D01*
X0240268Y0125569D02*
X0233094Y0125569D01*
X0230268Y0125569D02*
X0223094Y0125569D01*
X0220268Y0125569D02*
X0213094Y0125569D01*
X0210268Y0125569D02*
X0158446Y0125569D01*
X0156847Y0127167D02*
X0207717Y0127167D01*
X0206713Y0128766D02*
X0155249Y0128766D01*
X0153650Y0130364D02*
X0206316Y0130364D01*
X0206316Y0131963D02*
X0152052Y0131963D01*
X0150453Y0133561D02*
X0206316Y0133561D01*
X0206316Y0135160D02*
X0148855Y0135160D01*
X0148281Y0136758D02*
X0206316Y0136758D01*
X0206316Y0138357D02*
X0148281Y0138357D01*
X0148281Y0139955D02*
X0206882Y0139955D01*
X0208126Y0141554D02*
X0189713Y0141554D01*
X0190578Y0143152D02*
X0361181Y0143152D01*
X0361181Y0141554D02*
X0275237Y0141554D01*
X0276480Y0139955D02*
X0361181Y0139955D01*
X0361181Y0138357D02*
X0277046Y0138357D01*
X0277046Y0136758D02*
X0361181Y0136758D01*
X0361181Y0135160D02*
X0277046Y0135160D01*
X0277046Y0133561D02*
X0361181Y0133561D01*
X0361181Y0131963D02*
X0277046Y0131963D01*
X0277046Y0130364D02*
X0361181Y0130364D01*
X0361181Y0128766D02*
X0276650Y0128766D01*
X0275645Y0127167D02*
X0361181Y0127167D01*
X0338922Y0112780D02*
X0288440Y0112780D01*
X0283922Y0112780D02*
X0233440Y0112780D01*
X0228922Y0112780D02*
X0178440Y0112780D01*
X0162281Y0114379D02*
X0062181Y0114379D01*
X0062181Y0115978D02*
X0160683Y0115978D01*
X0159084Y0117576D02*
X0133949Y0117576D01*
X0135673Y0119175D02*
X0157486Y0119175D01*
X0155887Y0120773D02*
X0136165Y0120773D01*
X0135990Y0122372D02*
X0154289Y0122372D01*
X0152690Y0123970D02*
X0135002Y0123970D01*
X0134981Y0125569D02*
X0151092Y0125569D01*
X0149493Y0127167D02*
X0134130Y0127167D01*
X0132531Y0128766D02*
X0147895Y0128766D01*
X0146296Y0130364D02*
X0130933Y0130364D01*
X0129334Y0131963D02*
X0144698Y0131963D01*
X0143320Y0133561D02*
X0127736Y0133561D01*
X0126137Y0135160D02*
X0143081Y0135160D01*
X0143081Y0136758D02*
X0124539Y0136758D01*
X0122940Y0138357D02*
X0143081Y0138357D01*
X0143081Y0139955D02*
X0121342Y0139955D01*
X0119743Y0141554D02*
X0143081Y0141554D01*
X0143081Y0143152D02*
X0119312Y0143152D01*
X0120411Y0144751D02*
X0142910Y0144751D01*
X0141311Y0146349D02*
X0120665Y0146349D01*
X0120252Y0147948D02*
X0139713Y0147948D01*
X0138114Y0149546D02*
X0118908Y0149546D01*
X0114454Y0149546D02*
X0110751Y0149546D01*
X0109152Y0151145D02*
X0136516Y0151145D01*
X0134917Y0152743D02*
X0107554Y0152743D01*
X0105955Y0154342D02*
X0133319Y0154342D01*
X0131720Y0155940D02*
X0104665Y0155940D01*
X0104214Y0157539D02*
X0130121Y0157539D01*
X0128523Y0159137D02*
X0104364Y0159137D01*
X0104721Y0160736D02*
X0126924Y0160736D01*
X0125326Y0162334D02*
X0106319Y0162334D01*
X0107918Y0163933D02*
X0114259Y0163933D01*
X0117104Y0163933D02*
X0123727Y0163933D01*
X0122129Y0165531D02*
X0119113Y0165531D01*
X0119665Y0167130D02*
X0120530Y0167130D01*
X0115681Y0167656D02*
X0107681Y0167656D01*
X0100681Y0160656D01*
X0096998Y0159137D02*
X0090717Y0159137D01*
X0089777Y0160078D02*
X0091677Y0158177D01*
X0091677Y0156282D01*
X0087102Y0156282D01*
X0082528Y0156282D01*
X0082528Y0154387D01*
X0084428Y0152487D01*
X0082328Y0150386D01*
X0082328Y0146430D01*
X0084846Y0143912D01*
X0079516Y0143912D01*
X0082035Y0146430D01*
X0082035Y0150386D01*
X0079934Y0152487D01*
X0081835Y0154387D01*
X0081835Y0156282D01*
X0077260Y0156282D01*
X0077260Y0156282D01*
X0081835Y0156282D01*
X0081835Y0158177D01*
X0079793Y0160219D01*
X0081835Y0162261D01*
X0081835Y0164156D01*
X0077260Y0164156D01*
X0077260Y0164156D01*
X0077260Y0156282D01*
X0077260Y0156282D01*
X0072685Y0156282D01*
X0072685Y0154387D01*
X0074586Y0152487D01*
X0072485Y0150386D01*
X0072485Y0146430D01*
X0075282Y0143633D01*
X0078872Y0143633D01*
X0074866Y0139627D01*
X0074866Y0133567D01*
X0079151Y0129282D01*
X0085211Y0129282D01*
X0089381Y0133452D01*
X0089381Y0131599D01*
X0089807Y0130570D01*
X0090197Y0130181D01*
X0090197Y0129364D01*
X0090803Y0127899D01*
X0091924Y0126778D01*
X0093389Y0126172D01*
X0094974Y0126172D01*
X0096438Y0126778D01*
X0097559Y0127899D01*
X0098165Y0129364D01*
X0098165Y0130949D01*
X0097559Y0132413D01*
X0096438Y0133534D01*
X0094981Y0134137D01*
X0094981Y0143713D01*
X0094555Y0144742D01*
X0093767Y0145530D01*
X0091877Y0147420D01*
X0091877Y0150386D01*
X0089777Y0152487D01*
X0091677Y0154387D01*
X0091677Y0156282D01*
X0087102Y0156282D01*
X0087102Y0156282D01*
X0082528Y0156282D01*
X0082528Y0158177D01*
X0084428Y0160078D01*
X0082328Y0162178D01*
X0082328Y0166134D01*
X0084287Y0168093D01*
X0082328Y0170052D01*
X0082328Y0174008D01*
X0084287Y0175967D01*
X0082328Y0177926D01*
X0082328Y0181882D01*
X0084846Y0184400D01*
X0079516Y0184400D01*
X0082035Y0181882D01*
X0082035Y0177926D01*
X0080075Y0175967D01*
X0082035Y0174008D01*
X0082035Y0170052D01*
X0079934Y0167952D01*
X0081835Y0166051D01*
X0081835Y0164156D01*
X0077260Y0164156D01*
X0077260Y0164156D01*
X0077260Y0160857D01*
X0077260Y0156282D01*
X0077260Y0156282D01*
X0072685Y0156282D01*
X0072685Y0158177D01*
X0074727Y0160219D01*
X0072685Y0162261D01*
X0072685Y0164156D01*
X0077260Y0164156D01*
X0077260Y0164156D01*
X0072685Y0164156D01*
X0072685Y0166051D01*
X0074586Y0167952D01*
X0072485Y0170052D01*
X0072485Y0174008D01*
X0074444Y0175967D01*
X0072485Y0177926D01*
X0072485Y0181882D01*
X0075282Y0184679D01*
X0078872Y0184679D01*
X0074866Y0188685D01*
X0074866Y0194745D01*
X0079151Y0199030D01*
X0085211Y0199030D01*
X0089496Y0194745D01*
X0089496Y0188685D01*
X0085490Y0184679D01*
X0089080Y0184679D01*
X0091877Y0181882D01*
X0091877Y0177926D01*
X0089918Y0175967D01*
X0091877Y0174008D01*
X0091877Y0170052D01*
X0089918Y0168093D01*
X0091877Y0166134D01*
X0091877Y0162178D01*
X0089777Y0160078D01*
X0090435Y0160736D02*
X0096697Y0160736D01*
X0097064Y0162334D02*
X0091877Y0162334D01*
X0091877Y0163933D02*
X0098323Y0163933D01*
X0101597Y0165531D02*
X0091877Y0165531D01*
X0090881Y0167130D02*
X0103195Y0167130D01*
X0104794Y0168728D02*
X0090553Y0168728D01*
X0091877Y0170327D02*
X0106812Y0170327D01*
X0105307Y0169242D02*
X0105307Y0169242D01*
X0113854Y0173524D02*
X0091877Y0173524D01*
X0091877Y0171925D02*
X0115197Y0171925D01*
X0119181Y0172156D02*
X0091181Y0200156D01*
X0088201Y0197502D02*
X0086740Y0197502D01*
X0087306Y0199100D02*
X0076359Y0199100D01*
X0077623Y0197502D02*
X0071232Y0197502D01*
X0071224Y0197502D02*
X0069876Y0197502D01*
X0069193Y0197502D02*
X0062181Y0197502D01*
X0062181Y0195903D02*
X0076024Y0195903D01*
X0074866Y0194305D02*
X0062181Y0194305D01*
X0062181Y0192706D02*
X0074866Y0192706D01*
X0074866Y0191108D02*
X0062181Y0191108D01*
X0062181Y0189509D02*
X0074866Y0189509D01*
X0075641Y0187911D02*
X0062181Y0187911D01*
X0062181Y0186312D02*
X0077239Y0186312D01*
X0078838Y0184714D02*
X0062181Y0184714D01*
X0062181Y0183115D02*
X0073718Y0183115D01*
X0072485Y0181516D02*
X0062181Y0181516D01*
X0062181Y0179918D02*
X0072485Y0179918D01*
X0072485Y0178319D02*
X0062181Y0178319D01*
X0062181Y0176721D02*
X0073690Y0176721D01*
X0073600Y0175122D02*
X0062181Y0175122D01*
X0062181Y0173524D02*
X0072485Y0173524D01*
X0072485Y0171925D02*
X0062181Y0171925D01*
X0062181Y0170327D02*
X0072485Y0170327D01*
X0073809Y0168728D02*
X0062181Y0168728D01*
X0062181Y0167130D02*
X0073764Y0167130D01*
X0072685Y0165531D02*
X0062181Y0165531D01*
X0062181Y0163933D02*
X0072685Y0163933D01*
X0072685Y0162334D02*
X0062181Y0162334D01*
X0062181Y0160736D02*
X0074210Y0160736D01*
X0073645Y0159137D02*
X0062181Y0159137D01*
X0062181Y0157539D02*
X0072685Y0157539D01*
X0072685Y0155940D02*
X0062181Y0155940D01*
X0062181Y0154342D02*
X0072730Y0154342D01*
X0074329Y0152743D02*
X0062181Y0152743D01*
X0062181Y0151145D02*
X0073244Y0151145D01*
X0072485Y0149546D02*
X0062181Y0149546D01*
X0062181Y0147948D02*
X0072485Y0147948D01*
X0072566Y0146349D02*
X0062181Y0146349D01*
X0062181Y0144751D02*
X0074165Y0144751D01*
X0076793Y0141554D02*
X0062181Y0141554D01*
X0062181Y0143152D02*
X0078391Y0143152D01*
X0080355Y0144751D02*
X0084007Y0144751D01*
X0082409Y0146349D02*
X0081954Y0146349D01*
X0082035Y0147948D02*
X0082328Y0147948D01*
X0082328Y0149546D02*
X0082035Y0149546D01*
X0081276Y0151145D02*
X0083086Y0151145D01*
X0084171Y0152743D02*
X0080191Y0152743D01*
X0081789Y0154342D02*
X0082573Y0154342D01*
X0082528Y0155940D02*
X0081835Y0155940D01*
X0081835Y0157539D02*
X0082528Y0157539D01*
X0083488Y0159137D02*
X0080874Y0159137D01*
X0080309Y0160736D02*
X0083770Y0160736D01*
X0082328Y0162334D02*
X0081835Y0162334D01*
X0081835Y0163933D02*
X0082328Y0163933D01*
X0082328Y0165531D02*
X0081835Y0165531D01*
X0080756Y0167130D02*
X0083324Y0167130D01*
X0083652Y0168728D02*
X0080711Y0168728D01*
X0082035Y0170327D02*
X0082328Y0170327D01*
X0082328Y0171925D02*
X0082035Y0171925D01*
X0082035Y0173524D02*
X0082328Y0173524D01*
X0083442Y0175122D02*
X0080920Y0175122D01*
X0080829Y0176721D02*
X0083533Y0176721D01*
X0082328Y0178319D02*
X0082035Y0178319D01*
X0082035Y0179918D02*
X0082328Y0179918D01*
X0082328Y0181516D02*
X0082035Y0181516D01*
X0080802Y0183115D02*
X0083561Y0183115D01*
X0085524Y0184714D02*
X0102664Y0184714D01*
X0101065Y0186312D02*
X0087123Y0186312D01*
X0088721Y0187911D02*
X0099467Y0187911D01*
X0097868Y0189509D02*
X0089496Y0189509D01*
X0089496Y0191108D02*
X0096270Y0191108D01*
X0094671Y0192706D02*
X0089496Y0192706D01*
X0089496Y0194305D02*
X0093073Y0194305D01*
X0091474Y0195903D02*
X0088338Y0195903D01*
X0087197Y0200699D02*
X0078795Y0200699D01*
X0080394Y0202297D02*
X0087755Y0202297D01*
X0089798Y0203896D02*
X0081585Y0203896D01*
X0082464Y0205494D02*
X0118716Y0205494D01*
X0118697Y0203896D02*
X0092565Y0203896D01*
X0094607Y0202297D02*
X0119406Y0202297D01*
X0120081Y0200699D02*
X0095165Y0200699D01*
X0096197Y0199100D02*
X0120081Y0199100D01*
X0120081Y0197502D02*
X0097795Y0197502D01*
X0099394Y0195903D02*
X0120081Y0195903D01*
X0120081Y0194305D02*
X0100992Y0194305D01*
X0102591Y0192706D02*
X0120081Y0192706D01*
X0120081Y0191108D02*
X0104189Y0191108D01*
X0105788Y0189509D02*
X0120081Y0189509D01*
X0120081Y0187911D02*
X0107387Y0187911D01*
X0108985Y0186312D02*
X0120081Y0186312D01*
X0120081Y0184714D02*
X0110584Y0184714D01*
X0112182Y0183115D02*
X0120081Y0183115D01*
X0120081Y0181516D02*
X0113781Y0181516D01*
X0115379Y0179918D02*
X0120081Y0179918D01*
X0120081Y0178319D02*
X0116978Y0178319D01*
X0118576Y0176721D02*
X0120069Y0176721D01*
X0125281Y0176721D02*
X0151197Y0176721D01*
X0151350Y0178319D02*
X0125281Y0178319D01*
X0125281Y0179918D02*
X0152308Y0179918D01*
X0158054Y0179918D02*
X0164331Y0179918D01*
X0164331Y0181516D02*
X0125281Y0181516D01*
X0125281Y0183115D02*
X0164410Y0183115D01*
X0164697Y0184714D02*
X0125281Y0184714D01*
X0125281Y0186312D02*
X0165262Y0186312D01*
X0167334Y0187911D02*
X0125281Y0187911D01*
X0125281Y0189509D02*
X0216405Y0189509D01*
X0216316Y0189724D02*
X0217133Y0187752D01*
X0218642Y0186242D01*
X0220614Y0185425D01*
X0222748Y0185425D01*
X0224720Y0186242D01*
X0226230Y0187752D01*
X0226681Y0188842D01*
X0227133Y0187752D01*
X0228642Y0186242D01*
X0230614Y0185425D01*
X0232748Y0185425D01*
X0234720Y0186242D01*
X0236230Y0187752D01*
X0236681Y0188842D01*
X0237133Y0187752D01*
X0238642Y0186242D01*
X0240614Y0185425D01*
X0242748Y0185425D01*
X0244720Y0186242D01*
X0246230Y0187752D01*
X0246681Y0188842D01*
X0247133Y0187752D01*
X0248642Y0186242D01*
X0250614Y0185425D01*
X0252748Y0185425D01*
X0254720Y0186242D01*
X0256230Y0187752D01*
X0256681Y0188842D01*
X0257133Y0187752D01*
X0258642Y0186242D01*
X0260614Y0185425D01*
X0262748Y0185425D01*
X0264720Y0186242D01*
X0266230Y0187752D01*
X0267046Y0189724D01*
X0267046Y0198589D01*
X0266230Y0200561D01*
X0264720Y0202070D01*
X0262748Y0202887D01*
X0260614Y0202887D01*
X0258642Y0202070D01*
X0257133Y0200561D01*
X0256681Y0199471D01*
X0256230Y0200561D01*
X0254720Y0202070D01*
X0252748Y0202887D01*
X0250614Y0202887D01*
X0248642Y0202070D01*
X0247133Y0200561D01*
X0246681Y0199471D01*
X0246230Y0200561D01*
X0244720Y0202070D01*
X0242748Y0202887D01*
X0240614Y0202887D01*
X0238642Y0202070D01*
X0237133Y0200561D01*
X0236681Y0199471D01*
X0236230Y0200561D01*
X0234720Y0202070D01*
X0232748Y0202887D01*
X0230614Y0202887D01*
X0228642Y0202070D01*
X0227133Y0200561D01*
X0226681Y0199471D01*
X0226230Y0200561D01*
X0224720Y0202070D01*
X0222748Y0202887D01*
X0220614Y0202887D01*
X0218642Y0202070D01*
X0217133Y0200561D01*
X0216316Y0198589D01*
X0216316Y0189724D01*
X0216316Y0191108D02*
X0125281Y0191108D01*
X0125281Y0192706D02*
X0216316Y0192706D01*
X0216316Y0194305D02*
X0125281Y0194305D01*
X0125281Y0195903D02*
X0216316Y0195903D01*
X0216316Y0197502D02*
X0125281Y0197502D01*
X0125281Y0199100D02*
X0216528Y0199100D01*
X0217270Y0200699D02*
X0125281Y0200699D01*
X0125957Y0202297D02*
X0219190Y0202297D01*
X0224172Y0202297D02*
X0229190Y0202297D01*
X0227270Y0200699D02*
X0226092Y0200699D01*
X0234172Y0202297D02*
X0239190Y0202297D01*
X0237270Y0200699D02*
X0236092Y0200699D01*
X0244172Y0202297D02*
X0249190Y0202297D01*
X0247270Y0200699D02*
X0246092Y0200699D01*
X0254172Y0202297D02*
X0259190Y0202297D01*
X0257270Y0200699D02*
X0256092Y0200699D01*
X0264172Y0202297D02*
X0342929Y0202297D01*
X0341738Y0203896D02*
X0126665Y0203896D01*
X0126647Y0205494D02*
X0340859Y0205494D01*
X0340210Y0207093D02*
X0125879Y0207093D01*
X0119483Y0207093D02*
X0083112Y0207093D01*
X0083557Y0208691D02*
X0339766Y0208691D01*
X0339651Y0210290D02*
X0083671Y0210290D01*
X0083786Y0211888D02*
X0339537Y0211888D01*
X0339583Y0213487D02*
X0083740Y0213487D01*
X0083740Y0215085D02*
X0339583Y0215085D01*
X0339583Y0216684D02*
X0083740Y0216684D01*
X0083740Y0218282D02*
X0339583Y0218282D01*
X0344527Y0200699D02*
X0286273Y0200699D01*
X0286559Y0200413D02*
X0285438Y0201534D01*
X0283974Y0202140D01*
X0282389Y0202140D01*
X0280924Y0201534D01*
X0279803Y0200413D01*
X0279197Y0198949D01*
X0279197Y0197364D01*
X0279803Y0195899D01*
X0280681Y0195022D01*
X0280681Y0159791D01*
X0279803Y0158913D01*
X0279197Y0157449D01*
X0279197Y0155864D01*
X0279803Y0154399D01*
X0280924Y0153278D01*
X0282389Y0152672D01*
X0283974Y0152672D01*
X0285438Y0153278D01*
X0286559Y0154399D01*
X0287165Y0155864D01*
X0287165Y0157449D01*
X0286559Y0158913D01*
X0285681Y0159791D01*
X0285681Y0195022D01*
X0286559Y0195899D01*
X0287165Y0197364D01*
X0287165Y0198949D01*
X0286559Y0200413D01*
X0287103Y0199100D02*
X0346963Y0199100D01*
X0352091Y0197502D02*
X0287165Y0197502D01*
X0286560Y0195903D02*
X0361181Y0195903D01*
X0361181Y0194305D02*
X0285681Y0194305D01*
X0285681Y0192706D02*
X0361181Y0192706D01*
X0361181Y0191108D02*
X0285681Y0191108D01*
X0285681Y0189509D02*
X0361181Y0189509D01*
X0361181Y0187911D02*
X0285681Y0187911D01*
X0285681Y0186312D02*
X0361181Y0186312D01*
X0361181Y0184714D02*
X0285681Y0184714D01*
X0285681Y0183115D02*
X0361181Y0183115D01*
X0361181Y0181516D02*
X0285681Y0181516D01*
X0285681Y0179918D02*
X0361181Y0179918D01*
X0361181Y0178319D02*
X0285681Y0178319D01*
X0285681Y0176721D02*
X0361181Y0176721D01*
X0361181Y0175122D02*
X0285681Y0175122D01*
X0285681Y0173524D02*
X0361181Y0173524D01*
X0361181Y0171925D02*
X0285681Y0171925D01*
X0285681Y0170327D02*
X0361181Y0170327D01*
X0361181Y0168728D02*
X0285681Y0168728D01*
X0285681Y0167130D02*
X0361181Y0167130D01*
X0361181Y0165531D02*
X0285681Y0165531D01*
X0285681Y0163933D02*
X0361181Y0163933D01*
X0361181Y0162334D02*
X0285681Y0162334D01*
X0285681Y0160736D02*
X0361181Y0160736D01*
X0361181Y0159137D02*
X0286334Y0159137D01*
X0287128Y0157539D02*
X0361181Y0157539D01*
X0361181Y0155940D02*
X0287165Y0155940D01*
X0286501Y0154342D02*
X0361181Y0154342D01*
X0361181Y0152743D02*
X0284146Y0152743D01*
X0282216Y0152743D02*
X0232646Y0152743D01*
X0230716Y0152743D02*
X0199665Y0152743D01*
X0199575Y0151145D02*
X0361181Y0151145D01*
X0361181Y0149546D02*
X0198706Y0149546D01*
X0192656Y0149546D02*
X0185781Y0149546D01*
X0185781Y0151145D02*
X0191787Y0151145D01*
X0191417Y0152743D02*
X0185781Y0152743D01*
X0185781Y0154342D02*
X0189819Y0154342D01*
X0188220Y0155940D02*
X0185781Y0155940D01*
X0185781Y0157539D02*
X0186621Y0157539D01*
X0190778Y0160736D02*
X0223924Y0160736D01*
X0225523Y0159137D02*
X0192377Y0159137D01*
X0193975Y0157539D02*
X0227121Y0157539D01*
X0227697Y0155940D02*
X0196957Y0155940D01*
X0199088Y0154342D02*
X0228361Y0154342D01*
X0235001Y0154342D02*
X0279861Y0154342D01*
X0279197Y0155940D02*
X0235665Y0155940D01*
X0235628Y0157539D02*
X0279234Y0157539D01*
X0280028Y0159137D02*
X0234834Y0159137D01*
X0231278Y0160736D02*
X0280681Y0160736D01*
X0280681Y0162334D02*
X0229680Y0162334D01*
X0228081Y0163933D02*
X0280681Y0163933D01*
X0280681Y0165531D02*
X0226483Y0165531D01*
X0224790Y0186312D02*
X0228572Y0186312D01*
X0227067Y0187911D02*
X0226295Y0187911D01*
X0218572Y0186312D02*
X0189601Y0186312D01*
X0190165Y0184714D02*
X0280681Y0184714D01*
X0280681Y0186312D02*
X0264790Y0186312D01*
X0266295Y0187911D02*
X0280681Y0187911D01*
X0280681Y0189509D02*
X0266958Y0189509D01*
X0267046Y0191108D02*
X0280681Y0191108D01*
X0280681Y0192706D02*
X0267046Y0192706D01*
X0267046Y0194305D02*
X0280681Y0194305D01*
X0279802Y0195903D02*
X0267046Y0195903D01*
X0267046Y0197502D02*
X0279197Y0197502D01*
X0279260Y0199100D02*
X0266835Y0199100D01*
X0266092Y0200699D02*
X0280089Y0200699D01*
X0258572Y0186312D02*
X0254790Y0186312D01*
X0256295Y0187911D02*
X0257067Y0187911D01*
X0248572Y0186312D02*
X0244790Y0186312D01*
X0246295Y0187911D02*
X0247067Y0187911D01*
X0238572Y0186312D02*
X0234790Y0186312D01*
X0236295Y0187911D02*
X0237067Y0187911D01*
X0217067Y0187911D02*
X0187529Y0187911D01*
X0184834Y0187911D02*
X0170029Y0187911D01*
X0172101Y0186312D02*
X0182762Y0186312D01*
X0182197Y0184714D02*
X0172665Y0184714D01*
X0172562Y0183115D02*
X0181463Y0183115D01*
X0181708Y0183360D02*
X0181708Y0183360D01*
X0180581Y0181516D02*
X0171676Y0181516D01*
X0169531Y0179918D02*
X0180581Y0179918D01*
X0180581Y0178319D02*
X0169531Y0178319D01*
X0169531Y0176721D02*
X0180581Y0176721D01*
X0180581Y0175122D02*
X0169531Y0175122D01*
X0169531Y0173524D02*
X0180581Y0173524D01*
X0180581Y0171925D02*
X0169531Y0171925D01*
X0169531Y0170327D02*
X0180581Y0170327D01*
X0180581Y0168728D02*
X0169531Y0168728D01*
X0169531Y0167130D02*
X0180581Y0167130D01*
X0185781Y0167130D02*
X0280681Y0167130D01*
X0280681Y0168728D02*
X0185781Y0168728D01*
X0185781Y0170327D02*
X0280681Y0170327D01*
X0280681Y0171925D02*
X0185781Y0171925D01*
X0185781Y0173524D02*
X0280681Y0173524D01*
X0280681Y0175122D02*
X0185781Y0175122D01*
X0185781Y0176721D02*
X0280681Y0176721D01*
X0280681Y0178319D02*
X0185781Y0178319D01*
X0185781Y0179918D02*
X0280681Y0179918D01*
X0280681Y0181516D02*
X0189176Y0181516D01*
X0190062Y0183115D02*
X0280681Y0183115D01*
X0268126Y0141554D02*
X0265237Y0141554D01*
X0266480Y0139955D02*
X0266882Y0139955D01*
X0258126Y0141554D02*
X0255237Y0141554D01*
X0256480Y0139955D02*
X0256882Y0139955D01*
X0248126Y0141554D02*
X0245237Y0141554D01*
X0246480Y0139955D02*
X0246882Y0139955D01*
X0238126Y0141554D02*
X0235237Y0141554D01*
X0236480Y0139955D02*
X0236882Y0139955D01*
X0228126Y0141554D02*
X0225237Y0141554D01*
X0226480Y0139955D02*
X0226882Y0139955D01*
X0218126Y0141554D02*
X0215237Y0141554D01*
X0216480Y0139955D02*
X0216882Y0139955D01*
X0216713Y0128766D02*
X0216650Y0128766D01*
X0215645Y0127167D02*
X0217717Y0127167D01*
X0225645Y0127167D02*
X0227717Y0127167D01*
X0226713Y0128766D02*
X0226650Y0128766D01*
X0235645Y0127167D02*
X0237717Y0127167D01*
X0236713Y0128766D02*
X0236650Y0128766D01*
X0245645Y0127167D02*
X0247717Y0127167D01*
X0246713Y0128766D02*
X0246650Y0128766D01*
X0255645Y0127167D02*
X0257717Y0127167D01*
X0256713Y0128766D02*
X0256650Y0128766D01*
X0265645Y0127167D02*
X0267717Y0127167D01*
X0266713Y0128766D02*
X0266650Y0128766D01*
X0256388Y0109583D02*
X0304974Y0109583D01*
X0304803Y0109413D02*
X0304197Y0107949D01*
X0304197Y0106364D01*
X0304562Y0105483D01*
X0303480Y0104402D01*
X0303480Y0097627D01*
X0304652Y0096455D01*
X0312411Y0096455D01*
X0313583Y0097627D01*
X0313583Y0098214D01*
X0334780Y0098214D01*
X0334780Y0097627D01*
X0335951Y0096455D01*
X0343710Y0096455D01*
X0344882Y0097627D01*
X0344882Y0104402D01*
X0343710Y0105573D01*
X0335951Y0105573D01*
X0334780Y0104402D01*
X0334780Y0103814D01*
X0313583Y0103814D01*
X0313583Y0104402D01*
X0312411Y0105573D01*
X0311838Y0105573D01*
X0312165Y0106364D01*
X0312165Y0107949D01*
X0311559Y0109413D01*
X0310438Y0110534D01*
X0308974Y0111140D01*
X0307389Y0111140D01*
X0305924Y0110534D01*
X0304803Y0109413D01*
X0304212Y0107985D02*
X0257150Y0107985D01*
X0257165Y0106386D02*
X0304197Y0106386D01*
X0303866Y0104788D02*
X0289496Y0104788D01*
X0289882Y0103189D02*
X0303480Y0103189D01*
X0303480Y0101591D02*
X0289882Y0101591D01*
X0289882Y0099992D02*
X0303480Y0099992D01*
X0303480Y0098394D02*
X0289882Y0098394D01*
X0289050Y0096795D02*
X0304312Y0096795D01*
X0308531Y0101014D02*
X0339831Y0101014D01*
X0344882Y0101591D02*
X0361181Y0101591D01*
X0361181Y0103189D02*
X0344882Y0103189D01*
X0344496Y0104788D02*
X0361181Y0104788D01*
X0361181Y0106386D02*
X0312165Y0106386D01*
X0312150Y0107985D02*
X0361181Y0107985D01*
X0361181Y0109583D02*
X0311388Y0109583D01*
X0313197Y0104788D02*
X0335166Y0104788D01*
X0344882Y0099992D02*
X0361181Y0099992D01*
X0361181Y0098394D02*
X0344882Y0098394D01*
X0344050Y0096795D02*
X0361181Y0096795D01*
X0340310Y0087204D02*
X0339351Y0087204D01*
X0339351Y0087657D02*
X0336543Y0087657D01*
X0336085Y0087534D01*
X0335674Y0087297D01*
X0335339Y0086962D01*
X0335102Y0086552D01*
X0334980Y0086094D01*
X0334980Y0083777D01*
X0339351Y0083777D01*
X0339351Y0082818D01*
X0340310Y0082818D01*
X0340310Y0083777D01*
X0339351Y0083777D01*
X0339351Y0087657D01*
X0339351Y0085606D02*
X0340310Y0085606D01*
X0340310Y0084007D02*
X0339351Y0084007D01*
X0339351Y0082818D02*
X0334980Y0082818D01*
X0334980Y0080502D01*
X0335102Y0080044D01*
X0335339Y0079634D01*
X0335674Y0079298D01*
X0336085Y0079062D01*
X0336543Y0078939D01*
X0339351Y0078939D01*
X0339351Y0082818D01*
X0339351Y0082409D02*
X0340310Y0082409D01*
X0340310Y0080810D02*
X0339351Y0080810D01*
X0339351Y0079212D02*
X0340310Y0079212D01*
X0335824Y0079212D02*
X0312538Y0079212D01*
X0312688Y0079298D02*
X0313023Y0079634D01*
X0313260Y0080044D01*
X0313383Y0080502D01*
X0313383Y0082818D01*
X0309011Y0082818D01*
X0309011Y0078939D01*
X0311820Y0078939D01*
X0312277Y0079062D01*
X0312688Y0079298D01*
X0313383Y0080810D02*
X0334980Y0080810D01*
X0334980Y0082409D02*
X0313383Y0082409D01*
X0313383Y0083777D02*
X0313383Y0086094D01*
X0313260Y0086552D01*
X0313023Y0086962D01*
X0312688Y0087297D01*
X0312277Y0087534D01*
X0311820Y0087657D01*
X0309011Y0087657D01*
X0309011Y0083777D01*
X0313383Y0083777D01*
X0313383Y0084007D02*
X0334980Y0084007D01*
X0334980Y0085606D02*
X0313383Y0085606D01*
X0312781Y0087204D02*
X0335581Y0087204D01*
X0335611Y0096795D02*
X0312751Y0096795D01*
X0308052Y0087657D02*
X0305243Y0087657D01*
X0304786Y0087534D01*
X0304375Y0087297D01*
X0304040Y0086962D01*
X0303803Y0086552D01*
X0303680Y0086094D01*
X0303680Y0083777D01*
X0308052Y0083777D01*
X0308052Y0082818D01*
X0309011Y0082818D01*
X0309011Y0083777D01*
X0308052Y0083777D01*
X0308052Y0087657D01*
X0308052Y0087204D02*
X0309011Y0087204D01*
X0309011Y0085606D02*
X0308052Y0085606D01*
X0308052Y0084007D02*
X0309011Y0084007D01*
X0308052Y0082818D02*
X0303680Y0082818D01*
X0303680Y0080502D01*
X0303803Y0080044D01*
X0304040Y0079634D01*
X0304375Y0079298D01*
X0304786Y0079062D01*
X0305243Y0078939D01*
X0308052Y0078939D01*
X0308052Y0082818D01*
X0308052Y0082409D02*
X0309011Y0082409D01*
X0309011Y0080810D02*
X0308052Y0080810D01*
X0308052Y0079212D02*
X0309011Y0079212D01*
X0304525Y0079212D02*
X0288837Y0079212D01*
X0288987Y0079298D02*
X0289322Y0079634D01*
X0289559Y0080044D01*
X0289682Y0080502D01*
X0289682Y0082818D01*
X0285310Y0082818D01*
X0285310Y0078939D01*
X0288119Y0078939D01*
X0288577Y0079062D01*
X0288987Y0079298D01*
X0289682Y0080810D02*
X0303680Y0080810D01*
X0303680Y0082409D02*
X0289682Y0082409D01*
X0289682Y0083777D02*
X0289682Y0086094D01*
X0289559Y0086552D01*
X0289322Y0086962D01*
X0288987Y0087297D01*
X0288577Y0087534D01*
X0288119Y0087657D01*
X0285310Y0087657D01*
X0285310Y0083777D01*
X0289682Y0083777D01*
X0289682Y0084007D02*
X0303680Y0084007D01*
X0303680Y0085606D02*
X0289682Y0085606D01*
X0289080Y0087204D02*
X0304282Y0087204D01*
X0285310Y0087204D02*
X0284351Y0087204D01*
X0284351Y0087657D02*
X0281543Y0087657D01*
X0281085Y0087534D01*
X0280674Y0087297D01*
X0280339Y0086962D01*
X0280102Y0086552D01*
X0279980Y0086094D01*
X0279980Y0083777D01*
X0284351Y0083777D01*
X0284351Y0082818D01*
X0285310Y0082818D01*
X0285310Y0083777D01*
X0284351Y0083777D01*
X0284351Y0087657D01*
X0284351Y0085606D02*
X0285310Y0085606D01*
X0285310Y0084007D02*
X0284351Y0084007D01*
X0284351Y0082818D02*
X0279980Y0082818D01*
X0279980Y0080502D01*
X0280102Y0080044D01*
X0280339Y0079634D01*
X0280674Y0079298D01*
X0281085Y0079062D01*
X0281543Y0078939D01*
X0284351Y0078939D01*
X0284351Y0082818D01*
X0284351Y0082409D02*
X0285310Y0082409D01*
X0285310Y0080810D02*
X0284351Y0080810D01*
X0284351Y0079212D02*
X0285310Y0079212D01*
X0280824Y0079212D02*
X0257538Y0079212D01*
X0257688Y0079298D02*
X0258023Y0079634D01*
X0258260Y0080044D01*
X0258383Y0080502D01*
X0258383Y0082818D01*
X0254011Y0082818D01*
X0254011Y0078939D01*
X0256820Y0078939D01*
X0257277Y0079062D01*
X0257688Y0079298D01*
X0258383Y0080810D02*
X0279980Y0080810D01*
X0279980Y0082409D02*
X0258383Y0082409D01*
X0258383Y0083777D02*
X0258383Y0086094D01*
X0258260Y0086552D01*
X0258023Y0086962D01*
X0257688Y0087297D01*
X0257277Y0087534D01*
X0256820Y0087657D01*
X0254011Y0087657D01*
X0254011Y0083777D01*
X0258383Y0083777D01*
X0258383Y0084007D02*
X0279980Y0084007D01*
X0279980Y0085606D02*
X0258383Y0085606D01*
X0257781Y0087204D02*
X0280581Y0087204D01*
X0280611Y0096795D02*
X0257751Y0096795D01*
X0253531Y0101014D02*
X0284831Y0101014D01*
X0280166Y0104788D02*
X0258197Y0104788D01*
X0248480Y0099992D02*
X0234882Y0099992D01*
X0234882Y0098394D02*
X0248480Y0098394D01*
X0249312Y0096795D02*
X0234050Y0096795D01*
X0249375Y0087297D02*
X0249786Y0087534D01*
X0250243Y0087657D01*
X0253052Y0087657D01*
X0253052Y0083777D01*
X0253052Y0082818D01*
X0254011Y0082818D01*
X0254011Y0083777D01*
X0253052Y0083777D01*
X0248680Y0083777D01*
X0248680Y0086094D01*
X0248803Y0086552D01*
X0249040Y0086962D01*
X0249375Y0087297D01*
X0249282Y0087204D02*
X0234080Y0087204D01*
X0234682Y0085606D02*
X0248680Y0085606D01*
X0248680Y0084007D02*
X0234682Y0084007D01*
X0234682Y0082409D02*
X0248680Y0082409D01*
X0248680Y0082818D02*
X0248680Y0080502D01*
X0248803Y0080044D01*
X0249040Y0079634D01*
X0249375Y0079298D01*
X0249786Y0079062D01*
X0250243Y0078939D01*
X0253052Y0078939D01*
X0253052Y0082818D01*
X0248680Y0082818D01*
X0248680Y0080810D02*
X0234682Y0080810D01*
X0233837Y0079212D02*
X0249525Y0079212D01*
X0253052Y0079212D02*
X0254011Y0079212D01*
X0254011Y0080810D02*
X0253052Y0080810D01*
X0253052Y0082409D02*
X0254011Y0082409D01*
X0254011Y0084007D02*
X0253052Y0084007D01*
X0253052Y0085606D02*
X0254011Y0085606D01*
X0254011Y0087204D02*
X0253052Y0087204D01*
X0230310Y0087204D02*
X0229351Y0087204D01*
X0229351Y0085606D02*
X0230310Y0085606D01*
X0230310Y0084007D02*
X0229351Y0084007D01*
X0229351Y0082409D02*
X0230310Y0082409D01*
X0230310Y0080810D02*
X0229351Y0080810D01*
X0229351Y0079212D02*
X0230310Y0079212D01*
X0132181Y0121156D02*
X0132181Y0125156D01*
X0116181Y0141156D01*
X0101681Y0141156D01*
X0100681Y0142156D01*
X0097641Y0144751D02*
X0094546Y0144751D01*
X0093767Y0145530D02*
X0093767Y0145530D01*
X0092948Y0146349D02*
X0106028Y0146349D01*
X0107627Y0144751D02*
X0103721Y0144751D01*
X0104430Y0147948D02*
X0091877Y0147948D01*
X0091877Y0149546D02*
X0102831Y0149546D01*
X0101233Y0151145D02*
X0091118Y0151145D01*
X0090033Y0152743D02*
X0097959Y0152743D01*
X0096913Y0154342D02*
X0091632Y0154342D01*
X0091677Y0155940D02*
X0096697Y0155940D01*
X0097148Y0157539D02*
X0091677Y0157539D01*
X0087102Y0156282D02*
X0087102Y0156282D01*
X0077260Y0157539D02*
X0077260Y0157539D01*
X0077260Y0159137D02*
X0077260Y0159137D01*
X0077260Y0160736D02*
X0077260Y0160736D01*
X0077260Y0162334D02*
X0077260Y0162334D01*
X0077260Y0163933D02*
X0077260Y0163933D01*
X0090763Y0175122D02*
X0112255Y0175122D01*
X0110657Y0176721D02*
X0090672Y0176721D01*
X0091877Y0178319D02*
X0109058Y0178319D01*
X0107459Y0179918D02*
X0091877Y0179918D01*
X0091877Y0181516D02*
X0105861Y0181516D01*
X0104262Y0183115D02*
X0090644Y0183115D01*
X0125274Y0175122D02*
X0151711Y0175122D01*
X0153539Y0173524D02*
X0130490Y0173524D01*
X0130385Y0173629D02*
X0130385Y0173629D01*
X0132089Y0171925D02*
X0155735Y0171925D01*
X0157333Y0170327D02*
X0133687Y0170327D01*
X0135286Y0168728D02*
X0158932Y0168728D01*
X0160530Y0167130D02*
X0136884Y0167130D01*
X0138483Y0165531D02*
X0162129Y0165531D01*
X0163531Y0163933D02*
X0140081Y0163933D01*
X0141680Y0162334D02*
X0161932Y0162334D01*
X0169531Y0160736D02*
X0180581Y0160736D01*
X0180581Y0159137D02*
X0169531Y0159137D01*
X0169531Y0157539D02*
X0180581Y0157539D01*
X0180581Y0155940D02*
X0169531Y0155940D01*
X0169531Y0154342D02*
X0180581Y0154342D01*
X0180581Y0152743D02*
X0169531Y0152743D01*
X0169531Y0151145D02*
X0180581Y0151145D01*
X0180581Y0149546D02*
X0169531Y0149546D01*
X0169348Y0147948D02*
X0180581Y0147948D01*
X0180908Y0146349D02*
X0168051Y0146349D01*
X0168404Y0146702D02*
X0168404Y0146702D01*
X0166453Y0144751D02*
X0182410Y0144751D01*
X0182784Y0143152D02*
X0164854Y0143152D01*
X0163213Y0141554D02*
X0183649Y0141554D01*
X0187939Y0147948D02*
X0361181Y0147948D01*
X0361181Y0146349D02*
X0190085Y0146349D01*
X0190665Y0144751D02*
X0361181Y0144751D01*
X0361181Y0197502D02*
X0354129Y0197502D01*
X0353447Y0197502D02*
X0352099Y0197502D01*
X0164331Y0178319D02*
X0159012Y0178319D01*
X0159165Y0176721D02*
X0164331Y0176721D01*
X0164331Y0175122D02*
X0159892Y0175122D01*
X0161490Y0173524D02*
X0164331Y0173524D01*
X0164331Y0171925D02*
X0163089Y0171925D01*
X0162876Y0155940D02*
X0164331Y0155940D01*
X0164331Y0154342D02*
X0140672Y0154342D01*
X0140737Y0155940D02*
X0139074Y0155940D01*
X0139977Y0156683D02*
X0139977Y0156683D01*
X0139122Y0157539D02*
X0137475Y0157539D01*
X0137523Y0159137D02*
X0135877Y0159137D01*
X0135924Y0160736D02*
X0134278Y0160736D01*
X0134326Y0162334D02*
X0132680Y0162334D01*
X0132727Y0163933D02*
X0131081Y0163933D01*
X0131129Y0165531D02*
X0129483Y0165531D01*
X0129530Y0167130D02*
X0127884Y0167130D01*
X0127932Y0168728D02*
X0126286Y0168728D01*
X0142271Y0152743D02*
X0164331Y0152743D01*
X0164331Y0151145D02*
X0143869Y0151145D01*
X0145468Y0149546D02*
X0163894Y0149546D01*
X0162296Y0147948D02*
X0161439Y0147948D01*
X0158923Y0147948D02*
X0147066Y0147948D01*
X0148208Y0146349D02*
X0156777Y0146349D01*
X0156197Y0144751D02*
X0148281Y0144751D01*
X0148281Y0143152D02*
X0156284Y0143152D01*
X0157149Y0141554D02*
X0148281Y0141554D01*
X0121415Y0131963D02*
X0115245Y0131963D01*
X0115059Y0132413D02*
X0113938Y0133534D01*
X0112474Y0134140D01*
X0110889Y0134140D01*
X0109424Y0133534D01*
X0108303Y0132413D01*
X0107697Y0130949D01*
X0107697Y0129364D01*
X0108303Y0127899D01*
X0109424Y0126778D01*
X0110889Y0126172D01*
X0112474Y0126172D01*
X0113938Y0126778D01*
X0115059Y0127899D01*
X0115665Y0129364D01*
X0115665Y0130949D01*
X0115059Y0132413D01*
X0113872Y0133561D02*
X0119816Y0133561D01*
X0118218Y0135160D02*
X0094981Y0135160D01*
X0094981Y0136758D02*
X0116619Y0136758D01*
X0109490Y0133561D02*
X0096372Y0133561D01*
X0097745Y0131963D02*
X0108117Y0131963D01*
X0107697Y0130364D02*
X0098165Y0130364D01*
X0097918Y0128766D02*
X0107945Y0128766D01*
X0109036Y0127167D02*
X0096827Y0127167D01*
X0094181Y0130156D02*
X0092181Y0132156D01*
X0092181Y0143156D01*
X0087102Y0148235D01*
X0087102Y0148408D01*
X0094981Y0143152D02*
X0096781Y0143152D01*
X0096697Y0141554D02*
X0094981Y0141554D01*
X0094981Y0139955D02*
X0097280Y0139955D01*
X0099442Y0138357D02*
X0094981Y0138357D01*
X0089381Y0131963D02*
X0087892Y0131963D01*
X0086293Y0130364D02*
X0090013Y0130364D01*
X0090445Y0128766D02*
X0062181Y0128766D01*
X0062181Y0130364D02*
X0078069Y0130364D01*
X0076471Y0131963D02*
X0062181Y0131963D01*
X0062181Y0133561D02*
X0074872Y0133561D01*
X0074866Y0135160D02*
X0062181Y0135160D01*
X0062181Y0136758D02*
X0074866Y0136758D01*
X0074866Y0138357D02*
X0062181Y0138357D01*
X0062181Y0139955D02*
X0075194Y0139955D01*
X0062181Y0127167D02*
X0091536Y0127167D01*
X0101197Y0122372D02*
X0062181Y0122372D01*
X0062181Y0123970D02*
X0101860Y0123970D01*
X0104215Y0125569D02*
X0062181Y0125569D01*
X0062181Y0120773D02*
X0101234Y0120773D01*
X0102028Y0119175D02*
X0062181Y0119175D01*
X0062181Y0117576D02*
X0130413Y0117576D01*
X0128689Y0119175D02*
X0118223Y0119175D01*
X0120334Y0120773D02*
X0128197Y0120773D01*
X0128372Y0122372D02*
X0121932Y0122372D01*
X0125630Y0123970D02*
X0129360Y0123970D01*
X0127809Y0125569D02*
X0126543Y0125569D01*
X0121222Y0130364D02*
X0115665Y0130364D01*
X0115418Y0128766D02*
X0119242Y0128766D01*
X0118697Y0127167D02*
X0114327Y0127167D01*
X0118058Y0125569D02*
X0106147Y0125569D01*
X0093232Y0109583D02*
X0062181Y0109583D01*
X0062181Y0107985D02*
X0092327Y0107985D01*
X0092213Y0106386D02*
X0062181Y0106386D01*
X0062181Y0104788D02*
X0092769Y0104788D01*
X0110181Y0146156D02*
X0116681Y0146156D01*
X0110181Y0146156D02*
X0100681Y0155656D01*
D16*
X0100681Y0155656D03*
X0100681Y0160656D03*
X0115681Y0167656D03*
X0119181Y0172156D03*
X0104681Y0178656D03*
X0091181Y0200156D03*
X0122681Y0204656D03*
X0155181Y0177156D03*
X0143681Y0172156D03*
X0168681Y0184156D03*
X0170681Y0189656D03*
X0180181Y0195656D03*
X0186181Y0184156D03*
X0206681Y0157156D03*
X0195681Y0152156D03*
X0186681Y0144156D03*
X0181681Y0132656D03*
X0172181Y0128156D03*
X0165181Y0132656D03*
X0160181Y0144156D03*
X0132181Y0121156D03*
X0122681Y0126656D03*
X0111681Y0130156D03*
X0105181Y0121656D03*
X0094181Y0130156D03*
X0100681Y0142156D03*
X0116681Y0146156D03*
X0119681Y0115156D03*
X0143181Y0107156D03*
X0176181Y0116156D03*
X0198181Y0107156D03*
X0231181Y0116156D03*
X0253181Y0107156D03*
X0286181Y0116156D03*
X0308181Y0107156D03*
X0341181Y0116156D03*
X0283181Y0139656D03*
X0283181Y0156656D03*
X0231681Y0156656D03*
X0283181Y0198156D03*
X0318181Y0194656D03*
D17*
X0231681Y0156656D02*
X0224181Y0164156D01*
X0183181Y0164156D01*
X0183181Y0181156D01*
X0186181Y0184156D01*
X0168681Y0184156D02*
X0166931Y0182406D01*
X0166931Y0164406D01*
X0166931Y0163656D01*
X0161431Y0158156D01*
X0142181Y0158156D01*
X0128181Y0172156D01*
X0119181Y0172156D01*
X0145681Y0145656D01*
X0145681Y0134656D01*
X0164181Y0116156D01*
X0176181Y0116156D01*
X0231181Y0116156D01*
X0286181Y0116156D01*
X0341181Y0116156D01*
X0308181Y0107156D02*
X0308181Y0101365D01*
X0308531Y0101014D01*
X0253531Y0101014D02*
X0253181Y0101365D01*
X0253181Y0107156D01*
X0198531Y0101014D02*
X0198181Y0101365D01*
X0198181Y0107156D01*
X0143531Y0101014D02*
X0143181Y0101365D01*
X0143181Y0107156D01*
X0160181Y0144156D02*
X0162181Y0144156D01*
X0166931Y0148906D01*
X0166931Y0163656D01*
X0167181Y0164156D02*
X0166931Y0164406D01*
X0155181Y0176156D01*
X0155181Y0177156D01*
X0167181Y0164156D02*
X0183181Y0164156D01*
X0183181Y0147656D01*
X0186681Y0144156D01*
X0195681Y0152156D02*
X0183681Y0164156D01*
X0122681Y0175656D02*
X0122681Y0204656D01*
X0122681Y0175656D02*
X0119181Y0172156D01*
D18*
X0183181Y0164156D02*
X0183681Y0164156D01*
X0122681Y0126656D02*
X0117681Y0121656D01*
X0105181Y0121656D01*
X0283181Y0156656D02*
X0283181Y0198156D01*
M02*
